<?xml version="1.0" standalone="no"?>
<!DOCTYPE svg PUBLIC "-//W3C//DTD SVG 1.1//EN" "http://www.w3.org/Graphics/SVG/1.1/DTD/svg11.dtd" >
<svg xmlns="http://www.w3.org/2000/svg" xmlns:xlink="http://www.w3.org/1999/xlink" version="1.1">
<metadata>
Created by FontForge 20170731 at Thu Apr 21 15:30:48 2022
 By Aleksey,,,
Copyright 2020 (c) Fontles | All Rights Reserved
</metadata>
<defs>
<font id="NEONLEDLightRegular" horiz-adv-x="0" >
  <font-face 
    font-family="NEON LED Light"
    font-weight="400"
    font-stretch="normal"
    units-per-em="2048"
    panose-1="0 0 0 0 0 0 0 0 0 0"
    ascent="1638"
    descent="-410"
    x-height="1296"
    cap-height="1432"
    bbox="-53 -266 2005 1481"
    underline-thickness="102"
    underline-position="-307"
    unicode-range="U+000A-00AD"
  />
<missing-glyph horiz-adv-x="1079" 
d="M205 1434h874v-1434h-874v1434zM262 1393l379 -633l381 633h-760zM616 717l-368 614v-1231zM643 674l-379 -631h758zM668 717l370 -621v1239z" />
    <glyph glyph-name=".notdef" horiz-adv-x="1079" 
d="M205 1434h874v-1434h-874v1434zM262 1393l379 -633l381 633h-760zM616 717l-368 614v-1231zM643 674l-379 -631h758zM668 717l370 -621v1239z" />
    <glyph glyph-name=".null" 
 />
    <glyph glyph-name=".null" 
 />
    <glyph glyph-name="nonmarkingreturn" unicode="&#xa;" 
 />
    <glyph glyph-name="space" unicode=" " horiz-adv-x="729" 
 />
    <glyph glyph-name="exclam" unicode="!" horiz-adv-x="575" 
d="M371 395q82 0 140 -58.5t58 -141.5t-58 -142t-140 -59q-83 0 -142 59t-59 142t59 141.5t142 58.5zM371 84q46 0 78 32.5t32 78.5t-32 79t-78 33t-79.5 -33t-33.5 -79t33.5 -78.5t79.5 -32.5zM532 403h-325l-39 814h88l35 -725h158l36 725h88z" />
    <glyph glyph-name="quotedbl" unicode="&#x22;" horiz-adv-x="739" 
d="M438 1257h299v-485h-88v397h-123v-397h-88v485zM119 772v485h301v-485h-88v397h-125v-397h-88z" />
    <glyph glyph-name="quotedbl" unicode="&#x201d;" horiz-adv-x="739" 
d="M438 1257h299v-485h-88v397h-123v-397h-88v485zM119 772v485h301v-485h-88v397h-125v-397h-88z" />
    <glyph glyph-name="quotedbl" unicode="&#x201c;" horiz-adv-x="739" 
d="M438 1257h299v-485h-88v397h-123v-397h-88v485zM119 772v485h301v-485h-88v397h-125v-397h-88z" />
    <glyph glyph-name="numbersign" unicode="#" horiz-adv-x="1150" 
d="M1104 537h-133l-4 -31h135l-45 -287h-137h-2l-37 -229h-90l14 88l35 213h2l2 16l69 426l39 228h-127l-37 -228l-69 -426l-4 -16l-49 -301h-88l36 229h-53l-8 -47l-2 -6l-29 -176h-90l14 88l15 82l2 4l20 127l2 16l37 228l17 90l18 108l37 228h-127l-37 -228l-18 -108
l-15 -93l-37 -225l-4 -16l-49 -301h-90l39 229h-133l43 285h137l4 33h-135l43 284h139l37 228h305l-37 -228h54l37 228h307l-39 -228h133zM1004 733l-19 -108h45l17 108h-43zM281 377l8 39h-47l-17 -109h45zM322 625l18 108h-49l-17 -108h48zM641 377l6 39h-55l-6 -39v2
l-11 -72h54zM662 504l4 33h-54l-2 -15l-2 -18h54zM682 625l16 108h-53l-18 -108h55zM999 416h-49l-16 -109h47z" />
    <glyph glyph-name="dollar" unicode="$" horiz-adv-x="1130" 
d="M739 770q207 -59 294 -145t87 -234q0 -149 -104.5 -258t-272.5 -137v-166h-217v164q-164 23 -268.5 109t-130.5 219l-8 38l342 107q-61 19 -108.5 45.5t-91 68.5t-67.5 105t-24 143q0 149 97 255t259 135v163h217v-163q135 -26 226.5 -111t117.5 -209l9 -41l-84 -20
q-1 16 -6.5 37.5t-11.5 34.5l-5 14q-31 88 -108.5 144.5t-186.5 68.5l-39 4v153h-41v-153l-39 -4q-144 -15 -230.5 -99t-86.5 -209q0 -123 70.5 -192t234.5 -107q40 -10 47 -12q37 -8 55.5 -12.5t47 -15.5t42.5 -23t25 -32.5t11 -47.5q0 -50 -40.5 -87.5t-125.5 -37.5
q-74 0 -126 28t-77 72l-199 -63q20 -60 62 -104t95 -67t98.5 -34.5t94.5 -15.5l41 -4v-156h41v156l39 4q149 15 243.5 102.5t94.5 210.5q0 54 -13 93.5t-48 77.5t-101.5 69t-169.5 59q-8 2 -23.5 6t-23.5 6q-30 7 -47.5 12t-44 15.5t-41 22.5t-26 32t-11.5 45q0 55 43.5 89
t114.5 34q102 0 150 -78q0 -1 4 -15.5t9 -35.5t7 -35zM723 776q2 -2 8 -2l-10 37q-4 20 -23 36.5t-57 16.5q-70 0 -70 -35q0 -20 103 -41q8 -2 24.5 -6t24.5 -6zM543 444q-8 2 -25.5 6.5t-25.5 6.5l4 -37q2 -28 37.5 -49t91.5 -21q32 0 54.5 9t22.5 28q0 13 -25 22.5
t-85 22.5q-8 2 -24.5 6t-24.5 6z" />
    <glyph glyph-name="percent" unicode="%" horiz-adv-x="1472" 
d="M1055 1200h260l-793 -1200h-104l84 129l649 983h-49l-645 -975l-33 -49l-57 -88h-107zM762 883q0 -137 -97 -233.5t-233 -96.5t-233 96.5t-97 233.5q0 107 63 192.5t163 118.5q37 13 88 16v-88q-45 -3 -88 -22q-62 -30 -100 -88.5t-38 -128.5q0 -100 71 -171t171 -71
t171 71t71 171q0 70 -37.5 129t-99.5 88v-137q26 -37 26 -80q0 -57 -37.5 -95t-93.5 -38q-54 0 -92.5 39t-38.5 94q0 41 27 80q32 43 88 49v-90q-27 -12 -27 -39v-2q0 -17 13 -30t30 -13q19 0 31 12t12 31v2q0 29 -26 39v288q54 -4 88 -16q99 -33 162 -118t63 -193z
M1247 629q98 -33 162 -119t64 -193q0 -137 -97 -234t-233 -97t-233 97t-97 234q0 106 63 193t162 119q40 15 88 18v-90q-45 -3 -88 -22q-62 -29 -99.5 -88.5t-37.5 -129.5q0 -101 71 -172t171 -71t170.5 71t70.5 172q0 69 -38 128.5t-99 89.5v-138q27 -39 27 -80
q0 -55 -38.5 -94t-92.5 -39q-55 0 -94 39t-39 94q0 44 28 80q32 43 88 49v-90q-19 -8 -26 -28q-2 -4 -2 -11q0 -19 13 -32t32 -13t31 13t12 32v11q-7 21 -27 28v291q44 -3 88 -18z" />
    <glyph glyph-name="ampersand" unicode="&#x26;" horiz-adv-x="1525" 
d="M1401 92l82 -76h-129l-94 88l-76 72q-17 15 -49 44.5t-48 43.5l-26 27l-125 123l-43 39q-95 83 -160 139l-65 55l-70 74l-16 18q-62 74 -62 133q0 54 34.5 88.5t88.5 34.5t89.5 -33t35.5 -85q0 -71 -70 -121l80 -80q90 29 137.5 87.5t47.5 139.5q0 115 -84.5 179.5
t-235.5 64.5q-147 0 -232 -70t-85 -190q0 -99 77 -209l29 -43l84 -92l29 -29q32 -31 67 -60.5t84.5 -70.5t59.5 -49l61 -51l123 -103l4 -4l84 -72l105 -88h-138l-65 58q-150 -78 -328 -78q-215 0 -347 103t-132 270q0 92 47 169t135 130q-67 113 -67 219q0 158 110.5 253
t294.5 95q87 0 157.5 -20t116.5 -52.5t77 -76.5t44 -89.5t13 -93.5q0 -154 -121 -246l332 -63l-7 -41q-15 -140 -79 -250zM524 414q-2 -4 -2 -17q0 -64 105 -71q-56 47 -103 88zM362 600q-151 -85 -151 -231q0 -76 35 -133t93.5 -89t124.5 -47.5t138 -15.5q141 0 252 51
l-137 115q-47 -12 -86 -12q-88 0 -142.5 44t-54.5 115q0 44 27 90zM631 819q22 9 35.5 25t13.5 33q0 30 -37 30q-35 0 -35 -35q0 -16 23 -53zM915 612l5 37q-25 -20 -72 -41q9 -8 27.5 -23.5t27.5 -23.5q2 4 12 51zM1110 367q38 71 53 155l-170 33q-1 -3 -18 -61z" />
    <glyph glyph-name="quotesingle" unicode="'" horiz-adv-x="419" 
d="M119 1257h299v-485h-88v397h-123v-397h-88v485z" />
    <glyph glyph-name="quotesingle" unicode="&#x2019;" horiz-adv-x="419" 
d="M119 1257h299v-485h-88v397h-123v-397h-88v485z" />
    <glyph glyph-name="quotesingle" unicode="&#x2018;" horiz-adv-x="419" 
d="M119 1257h299v-485h-88v397h-123v-397h-88v485z" />
    <glyph glyph-name="parenleft" unicode="(" horiz-adv-x="698" 
d="M694 72l25 -35l-68 -51l-51 71q-35 57 -65 128.5t-58 201.5t-28 270q0 197 47 349t104 249l-133 99q-54 -76 -101.5 -171.5t-86.5 -240t-39 -285.5q0 -121 25 -238.5t65 -208t73 -149t66 -102.5l51 -72l-67 -51l-27 33q-110 135 -192 347t-82 441q0 124 26.5 248
t60.5 209t78.5 165t68 112t40.5 53l27 31l266 -197l-25 -35q-20 -30 -41 -72t-50 -116.5t-47.5 -179t-18.5 -218.5q0 -115 18.5 -220.5t47.5 -179t50 -115.5t41 -70z" />
    <glyph glyph-name="parenright" unicode=")" horiz-adv-x="700" 
d="M410 1444q42 -53 85.5 -127.5t87.5 -176t71.5 -229t27.5 -254.5q0 -230 -81.5 -441t-190.5 -347l-27 -33l-72 53l56 70q33 45 65 102.5t72 148.5t65 209t25 238q0 206 -69.5 391t-157.5 306l-134 -99q34 -59 64 -129t59 -201t29 -268q0 -107 -15.5 -206.5t-41.5 -175.5
t-48 -126t-47 -92l-51 -71l-67 51l24 35q20 29 41.5 70.5t50.5 115t47.5 179t18.5 220.5q0 114 -18.5 218.5t-48 179t-50.5 116.5t-41 72l-24 35l268 197z" />
    <glyph glyph-name="asterisk" unicode="*" horiz-adv-x="835" 
d="M834 885l-150 -33l100 -117l-237 -172l-80 131l-76 -131l-239 172l102 117l-152 33l91 278l145 -63l-16 157h292l-14 -157l143 63zM573 690l82 60l-137 155l203 45l-31 94l-192 -83l20 208h-98l18 -208l-192 83l-29 -94l201 -45l-135 -155l82 -60l102 176z" />
    <glyph glyph-name="plus" unicode="+" horiz-adv-x="860" 
d="M659 944v-199h199v-342h-199v-198h-88v651h-165v-651h-89v198h-198v342h198v199h342zM317 492v165h-110v-165h110zM770 492v165h-111v-165h111z" />
    <glyph glyph-name="comma" unicode="," horiz-adv-x="499" 
d="M362 162l76 -45l-250 -383l-241 137l196 416l78 -45l-39 -80l-45 -96l-76 -158l99 -58l96 148z" />
    <glyph glyph-name="hyphenminus" unicode="-" horiz-adv-x="831" 
d="M834 670h-648v-166h449h199v-88h-736v342h736v-88z" />
    <glyph glyph-name="period" unicode="." horiz-adv-x="495" 
d="M295 399q82 0 140.5 -58.5t58.5 -141.5t-58.5 -141t-140.5 -58q-83 0 -142 58t-59 141t59 141.5t142 58.5zM295 88q46 0 78.5 32.5t32.5 78.5t-32.5 79t-78.5 33q-47 0 -80 -32.5t-33 -79.5q0 -46 33 -78.5t80 -32.5z" />
    <glyph glyph-name="slash" unicode="/" horiz-adv-x="829" 
d="M459 1421h348l-490 -1507h-92l29 88l25 76l405 1255h-162l-409 -1270l-2 -2l-19 -59l-26 -88h-95z" />
    <glyph glyph-name="zero" unicode="0" horiz-adv-x="1370" 
d="M891 1415q225 -44 352 -229.5t127 -474.5q0 -311 -147 -502q-161 -217 -465 -217q-302 0 -467 217q-148 193 -148 502q0 306 148 499q123 160 321 201q40 9 84 12v-84q-30 -2 -84 -14q-184 -46 -284.5 -205.5t-100.5 -408.5q0 -96 17 -184.5t57.5 -171.5t100 -144
t151.5 -98t205 -37q248 0 388 168.5t140 466.5q0 253 -103.5 414t-291.5 202v-301q110 -87 110 -315q0 -170 -64.5 -266.5t-178.5 -96.5t-180 98t-66 265q0 209 100 303q37 34 84 49v-92q-62 -33 -84 -131q-14 -51 -14 -129q0 -27 2 -54.5t11.5 -70.5t25 -74.5t47.5 -54.5
t74 -23q51 0 86 32t49.5 83.5t19.5 89t5 72.5q0 94 -27 166q-28 78 -84 100v448q31 -2 84 -10z" />
    <glyph glyph-name="one" unicode="1" horiz-adv-x="933" 
d="M481 1386h361v-1388h-86v1102l-301 -197v-905h-84v850l-154 -103l-201 328zM756 1202v101h-248l-377 -254l113 -185l211 140z" />
    <glyph glyph-name="two" unicode="2" horiz-adv-x="1189" 
d="M322 352q-14 -14 -39.5 -38t-36.5 -35v-191h930v-86h-1014v313l12 13q228 219 367 362q166 173 166 221q0 32 -19 51t-51 19q-44 0 -61 -27t-17 -61l-2 -51l-430 102l6 39q34 202 176.5 316t362.5 114q223 0 359 -124.5t136 -327.5q0 -125 -69.5 -233.5t-247.5 -289.5
h326v-86h-854zM600 631q-44 -47 -190 -193h321q85 86 131.5 135t96 107.5t72.5 99.5t37.5 87t14.5 94q0 168 -112 268t-301 100q-28 0 -56.5 -2.5t-68.5 -11t-76 -22t-75 -38t-70 -57t-58 -81.5t-41 -109l256 -62q15 56 56.5 87.5t99.5 31.5q67 0 110.5 -43.5t43.5 -110.5
q0 -48 -44.5 -110.5t-146.5 -169.5z" />
    <glyph glyph-name="three" unicode="3" horiz-adv-x="1247" 
d="M1057 737q166 -104 166 -311q0 -198 -149.5 -317t-401.5 -119q-221 0 -370.5 105.5t-186.5 287.5l-9 41l453 98l6 -45q3 -27 28 -46t69 -19q75 0 75 71q0 62 -82 62h-184v362h184q24 0 40 5.5t21.5 15.5t7 16t1.5 14q0 10 -1.5 16.5t-7 18t-20.5 17.5t-39 6
q-25 0 -43.5 -12.5t-21.5 -38.5l-6 -47l-430 98l10 41q38 176 170.5 272t335.5 96q240 0 377 -110q141 -113 141 -305q0 -168 -133 -273zM672 76q217 0 342 93.5t125 256.5q0 192 -183 268l-84 35l80 41q154 82 154 240q0 155 -115 243t-319 88q-160 0 -266.5 -67.5
t-147.5 -194.5l262 -59q19 37 55.5 58.5t81.5 21.5q69 0 110.5 -39t41.5 -103q0 -63 -41.5 -99t-112.5 -36h-98v-194h98q76 0 122 -40t46 -106q0 -70 -44.5 -113.5t-116.5 -43.5q-63 0 -105.5 26.5t-62.5 69.5l-285 -64q41 -132 164.5 -207t298.5 -75z" />
    <glyph glyph-name="four" unicode="4" horiz-adv-x="1288" 
d="M430 555l328 547v-463h301v680h-400l-460 -768v-244h475h608v-84h-137v-209h-471v209h-559v352l6 11l491 817h533v-764h137v-84h-852zM758 223v-125h301v125h-301zM674 639v156l-94 -156h94z" />
    <glyph glyph-name="five" unicode="5" horiz-adv-x="1218" 
d="M1102 799q110 -119 110 -314q0 -217 -147.5 -350t-386.5 -133q-214 0 -361.5 106.5t-181.5 284.5l-8 41l448 98l5 -49q2 -24 23 -44.5t63 -20.5q84 0 84 98q0 50 -30.5 69t-68.5 19q-58 0 -106 -41l-17 -12l-340 72l91 792h831v-86h-756l-73 -641l227 -47q68 47 143 47
q83 0 134 -47.5t51 -124.5q0 -83 -46.5 -132.5t-123.5 -49.5q-57 0 -98.5 27t-59.5 69l-281 -59q40 -131 161.5 -208t289.5 -77q201 0 324.5 110t123.5 289q0 169 -92.5 264t-255.5 95q-103 0 -170 -33l-69 -33l34 287h537v-86h-463l-8 -68q61 17 139 17q210 0 324 -129z
" />
    <glyph glyph-name="six" unicode="6" horiz-adv-x="1224" 
d="M821 1004q181 -43 288.5 -174t107.5 -310q0 -226 -156 -372t-395 -146t-395 146t-156 372q0 65 14 126t41 115.5t44.5 83.5t45.5 70l8 13l271 385l71 102h105l-60 -86l-106 -149l-219 -314q-27 -39 -42.5 -64t-40 -72.5t-36.5 -100.5t-12 -109q0 -189 132 -311.5
t335 -122.5t335 122.5t132 311.5q0 160 -100 270t-269 138q-85 -117 -139 -244q24 4 41 4q75 0 122.5 -47t47.5 -121q0 -75 -47.5 -122.5t-122.5 -47.5t-121.5 47.5t-46.5 122.5q0 29 4 43q0 5 1.5 14t11 42.5t25.5 73.5t49.5 106.5t78.5 140.5l225 303l129 172h104
l-127 -172zM666 604q-64 0 -80 -55q-4 -20 -4 -29q0 -40 23 -63t61 -23t61 23t23 63q0 38 -23 61t-61 23z" />
    <glyph glyph-name="seven" unicode="7" horiz-adv-x="1097" 
d="M123 1403h983v-359l-4 -8l-31 -67l-426 -955h-92l37 84l51 113l338 758h-297l-342 -772l-4 -9l-41 -90l-37 -84h-92l424 955h-467v434zM1020 1063v256h-813v-266h809z" />
    <glyph glyph-name="eight" unicode="8" horiz-adv-x="1284" 
d="M885 475q0 -68 -44 -119t-126 -51t-125 51t-43 119q0 75 47 122.5t121 47.5q75 0 122.5 -47.5t47.5 -122.5zM631 475q0 -35 21 -59.5t63 -24.5q44 0 64 24.5t20 59.5q0 11 -2.5 22.5t-10 27.5t-26 26t-45.5 10t-45.5 -10t-26 -26t-10 -27.5t-2.5 -22.5zM1122 770
q160 -114 160 -309q0 -214 -154 -341.5t-413 -127.5q-258 0 -413 127.5t-155 341.5q0 195 160 309q-108 99 -108 256q0 162 101.5 263.5t287.5 127.5q33 5 86 8v-84q-57 -4 -86 -8q-147 -25 -226 -103.5t-79 -203.5q0 -146 123 -225l59 -39l-64 -35q-170 -86 -170 -266
q0 -178 130.5 -281.5t353.5 -103.5q224 0 353.5 103t129.5 282q0 180 -168 266l-65 35l61 39q121 80 121 225q0 126 -80 205t-231 102v-256q32 -40 32 -94q0 -62 -43.5 -102.5t-109.5 -40.5q-65 0 -108.5 41t-43.5 102q0 50 25 86q32 43 86 55v-90q-27 -14 -27 -51v-4
q3 -26 22.5 -39.5t45.5 -13.5q24 0 42.5 11.5t22.5 33.5q2 4 2 12q0 43 -30 53v389q3 0 84 -6q190 -26 293.5 -128.5t103.5 -264.5q0 -154 -111 -256z" />
    <glyph glyph-name="nine" unicode="9" horiz-adv-x="1224" 
d="M678 1415q239 0 395 -146t156 -372q0 -65 -14 -126.5t-41.5 -116.5t-44.5 -82t-46 -70l-8 -13l-270 -385l-72 -102h-104l59 84l107 152l219 311q29 42 43 65.5t39 72.5t37 101.5t12 108.5q0 189 -132 310.5t-335 121.5t-335 -121.5t-132 -310.5q0 -160 100 -270t269 -138
q88 120 139 244q-12 -4 -41 -4q-75 0 -122.5 47t-47.5 121q0 75 47.5 122.5t122.5 47.5t122.5 -47.5t47.5 -122.5q0 -22 -6 -43v-12.5t-8 -41t-23 -71.5t-50.5 -107.5t-84.5 -146.5l-225 -303l-129 -170h-105l127 170l178 242q-181 43 -288 173.5t-107 309.5q0 226 156 372
t395 146zM678 813q64 0 80 55q4 8 4 29q0 39 -22.5 61.5t-61.5 22.5t-61.5 -22.5t-22.5 -61.5q0 -38 23 -61t61 -23z" />
    <glyph glyph-name="colon" unicode=":" horiz-adv-x="536" 
d="M336 532q-83 0 -142 59t-59 142t59 141t142 58q82 0 140.5 -58t58.5 -141t-58.5 -142t-140.5 -59zM336 844q-47 0 -80 -32.5t-33 -78.5q0 -47 33 -79.5t80 -32.5q46 0 78 33t32 79t-32 78.5t-78 32.5zM336 399q82 0 140.5 -58.5t58.5 -141.5t-58.5 -141t-140.5 -58
q-83 0 -142 58t-59 141t59 141.5t142 58.5zM336 88q46 0 78 32.5t32 78.5t-32 79t-78 33q-47 0 -80 -32.5t-33 -79.5q0 -46 33 -78.5t80 -32.5z" />
    <glyph glyph-name="semicolon" unicode=";" horiz-adv-x="563" 
d="M303 469q-83 0 -141 59t-58 142t58 140.5t141 57.5q84 0 142.5 -57.5t58.5 -140.5t-59 -142t-142 -59zM303 780q-46 0 -78 -32t-32 -78t32.5 -79.5t77.5 -33.5q46 0 79.5 33.5t33.5 79.5q0 45 -33.5 77.5t-79.5 32.5zM0 -109l197 416l292 -170l-249 -383zM365 109
l-129 73l-121 -254l96 -57z" />
    <glyph glyph-name="less" unicode="&#x3c;" horiz-adv-x="847" 
d="M829 905l-88 -35l-84 -32l-430 -172l193 -70l256 92l8 2l57 21l88 32v-94l-276 -98l276 -100v-353l-710 285v334l710 284v-96zM741 389l-534 191v-138l534 -213v160z" />
    <glyph glyph-name="greater" unicode="&#x3e;" horiz-adv-x="847" 
d="M152 1001l710 -284v-334l-710 -285v353l276 100l-276 98v94l88 -32l57 -21l10 -2l254 -92l193 70l-430 172l-84 32l-88 35v96zM774 442v138l-534 -191v-160z" />
    <glyph glyph-name="question" unicode="?" horiz-adv-x="948" 
d="M502 391q83 0 141.5 -59t58.5 -142t-58.5 -140.5t-141.5 -57.5t-141 57.5t-58 140.5t58 142t141 59zM502 80q46 0 79 32t33 78t-33 79.5t-79 33.5t-78.5 -33.5t-32.5 -79.5t32.5 -78t78.5 -32zM500 1231q112 0 197 -31t133 -83.5t71 -113.5t23 -129q0 -46 -11 -86
t-35.5 -76t-42.5 -57t-51 -55q-32 -34 -48.5 -53t-31 -48t-14.5 -57v-43h-84q-3 21 -2.5 41t2.5 34l2 13q7 34 26.5 68t36.5 53.5t50 53.5q30 31 44 47.5t34 44.5t28.5 57t8.5 63q0 20 -2.5 40t-11 48t-23 52t-40.5 48.5t-60 41.5t-85.5 28t-113.5 11q-118 0 -206 -58
t-126 -161l192 -50q36 68 115 68q54 0 87.5 -33.5t33.5 -87.5q0 -24 -12.5 -49t-25.5 -40.5t-40 -43.5q-32 -34 -49 -55.5t-37 -62t-26 -83.5q-1 -6 -2.5 -15.5t-3.5 -35t3 -37.5h-90v43q0 55 12.5 103t38 88t43 62t48.5 55q53 57 53 71q0 18 -7.5 25.5t-25.5 7.5
q-35 0 -43 -41l-8 -45l-367 92l11 43q40 152 156 240t276 88z" />
    <glyph glyph-name="at" unicode="@" horiz-adv-x="1515" 
d="M1520 612q0 -194 -96 -305.5t-224 -111.5q-30 0 -57 6l119 -142l-33 -28q-25 -21 -57.5 -41t-86 -45t-127 -40.5t-153.5 -15.5q-143 0 -268 48.5t-215 140.5q-91 91 -139 214t-48 263q0 296 196.5 484t506.5 188q131 0 243 -34.5t191.5 -94t136 -138t84 -167t27.5 -181.5
zM1038 365q49 -82 162 -82q92 0 162 85.5t70 243.5q0 78 -22 152.5t-70 142.5t-116 119.5t-168 82t-218 30.5q-277 0 -446 -160.5t-169 -423.5q0 -255 162.5 -416.5t419.5 -161.5q191 0 332 95l-60 69q-113 -82 -272 -82q-92 0 -178 32.5t-155.5 92.5t-111 156.5
t-41.5 214.5q0 232 140 367t379 135q124 0 222 -38t157 -102t89.5 -142t30.5 -163q0 -105 -38 -169t-101 -64q-15 0 -30.5 4t-36.5 16t-34.5 41t-13.5 72v299h-100v-123l-76 82q-52 55 -123 55q-75 0 -128.5 -40.5t-77 -99t-23.5 -126.5q0 -49 13.5 -94.5t42 -85.5t78.5 -64
t116 -24q105 0 160 76l39 53zM1053 231q-32 19 -54 41q-78 -69 -194 -69q-149 0 -243.5 99.5t-94.5 256.5q0 91 34.5 170.5t108.5 132.5t174 53q54 0 111 -26v10h209q-103 70 -266 70q-203 0 -316.5 -109.5t-113.5 -304.5q0 -78 22.5 -145t60.5 -114.5t89 -81.5t108 -50.5
t117 -16.5q148 0 248 84zM1171 512q0 -21 5 -31.5t9.5 -12t12.5 -1.5q11 0 22.5 16.5t20 51t8.5 77.5q0 130 -78 224v-324zM823 713q66 0 110 -44t44 -110t-44.5 -111t-109.5 -45q-67 0 -111 44t-44 112q0 66 44.5 110t110.5 44zM823 492q28 0 47 19t19 48t-18.5 47.5
t-47.5 18.5q-31 0 -49 -18.5t-18 -47.5q0 -31 18 -49t49 -18z" />
    <glyph glyph-name="A" unicode="A" horiz-adv-x="1519" 
d="M1473 250l90 -250h-439l-77 250h-447l-78 -250h-440l516 1432h449l305 -846l30 -86h-796l237 745l207 -659h230l-273 760h-328l-454 -1260h254l78 250h903l14 -35zM705 586h235l-117 375zM1188 86h252l-60 164h-243z" />
    <glyph glyph-name="A" unicode="&#xc5;" horiz-adv-x="1519" 
d="M1473 250l90 -250h-439l-77 250h-447l-78 -250h-440l516 1432h449l305 -846l30 -86h-796l237 745l207 -659h230l-273 760h-328l-454 -1260h254l78 250h903l14 -35zM705 586h235l-117 375zM1188 86h252l-60 164h-243z" />
    <glyph glyph-name="A" unicode="&#xc4;" horiz-adv-x="1519" 
d="M1473 250l90 -250h-439l-77 250h-447l-78 -250h-440l516 1432h449l305 -846l30 -86h-796l237 745l207 -659h230l-273 760h-328l-454 -1260h254l78 250h903l14 -35zM705 586h235l-117 375zM1188 86h252l-60 164h-243z" />
    <glyph glyph-name="A" unicode="&#xc3;" horiz-adv-x="1519" 
d="M1473 250l90 -250h-439l-77 250h-447l-78 -250h-440l516 1432h449l305 -846l30 -86h-796l237 745l207 -659h230l-273 760h-328l-454 -1260h254l78 250h903l14 -35zM705 586h235l-117 375zM1188 86h252l-60 164h-243z" />
    <glyph glyph-name="A" unicode="&#xc2;" horiz-adv-x="1519" 
d="M1473 250l90 -250h-439l-77 250h-447l-78 -250h-440l516 1432h449l305 -846l30 -86h-796l237 745l207 -659h230l-273 760h-328l-454 -1260h254l78 250h903l14 -35zM705 586h235l-117 375zM1188 86h252l-60 164h-243z" />
    <glyph glyph-name="A" unicode="&#xc1;" horiz-adv-x="1519" 
d="M1473 250l90 -250h-439l-77 250h-447l-78 -250h-440l516 1432h449l305 -846l30 -86h-796l237 745l207 -659h230l-273 760h-328l-454 -1260h254l78 250h903l14 -35zM705 586h235l-117 375zM1188 86h252l-60 164h-243z" />
    <glyph glyph-name="A" unicode="&#xc0;" horiz-adv-x="1519" 
d="M1473 250l90 -250h-439l-77 250h-447l-78 -250h-440l516 1432h449l305 -846l30 -86h-796l237 745l207 -659h230l-273 760h-328l-454 -1260h254l78 250h903l14 -35zM705 586h235l-117 375zM1188 86h252l-60 164h-243z" />
    <glyph glyph-name="B" unicode="B" horiz-adv-x="1273" 
d="M1153 758q166 -104 166 -305q0 -207 -131 -326q-139 -127 -408 -127h-583v655h565q105 0 164 -49.5t59 -138.5q0 -95 -60 -151t-163 -56h-236v309h-243v-483h497q221 0 337 93.5t116 273.5q0 182 -174 256l-27 12v59l23 13q123 71 123 225q0 158 -116 243t-333 85h-446
v-465h243v293h187q104 0 161.5 -50t57.5 -141q0 -77 -53.5 -132.5t-165.5 -55.5h-516v637h532q255 0 395 -108t140 -306q0 -166 -111 -260zM614 1087v-206h99q133 0 133 102q0 47 -26.5 75.5t-106.5 28.5h-99zM614 569v-223h148q137 0 137 121q0 16 -2.5 27.5t-14 31.5
t-42 31.5t-78.5 11.5h-148z" />
    <glyph glyph-name="C" unicode="C" horiz-adv-x="1398" 
d="M1294 272q36 40 54 66l71 -47l-26 -35q-1 -2 -7 -8q-100 -129 -250 -201t-323 -72q-152 0 -287 55t-235 158q-98 101 -151.5 238.5t-53.5 290.5t53 289.5t152 238.5q100 102 235 156.5t287 54.5q177 0 328 -72t252 -204l26 -37l-346 -228l-24 31q-85 107 -236 107
q-77 0 -138 -29.5t-97 -78t-55 -107t-19 -121.5q0 -50 11.5 -97.5t36 -91.5t60 -77t87.5 -52.5t114 -19.5q50 0 100 16q72 21 127 82q1 2 4.5 5t4.5 5l20 29l4 4l74 -49q-23 -37 -55 -65l-9 -9q-64 -61 -141 -84q-68 -20 -129 -20q-94 0 -171 36.5t-125.5 96.5t-74.5 135.5
t-26 155.5t26 155t74.5 135t125.5 96t171 36q168 0 277 -109l204 133q-90 100 -213 153.5t-268 53.5q-183 0 -329.5 -83.5t-229 -233t-82.5 -336.5t82.5 -336.5t229 -233.5t329.5 -84q101 0 203 29q165 50 278 178v2z" />
    <glyph glyph-name="C" unicode="&#xc7;" horiz-adv-x="1398" 
d="M1294 272q36 40 54 66l71 -47l-26 -35q-1 -2 -7 -8q-100 -129 -250 -201t-323 -72q-152 0 -287 55t-235 158q-98 101 -151.5 238.5t-53.5 290.5t53 289.5t152 238.5q100 102 235 156.5t287 54.5q177 0 328 -72t252 -204l26 -37l-346 -228l-24 31q-85 107 -236 107
q-77 0 -138 -29.5t-97 -78t-55 -107t-19 -121.5q0 -50 11.5 -97.5t36 -91.5t60 -77t87.5 -52.5t114 -19.5q50 0 100 16q72 21 127 82q1 2 4.5 5t4.5 5l20 29l4 4l74 -49q-23 -37 -55 -65l-9 -9q-64 -61 -141 -84q-68 -20 -129 -20q-94 0 -171 36.5t-125.5 96.5t-74.5 135.5
t-26 155.5t26 155t74.5 135t125.5 96t171 36q168 0 277 -109l204 133q-90 100 -213 153.5t-268 53.5q-183 0 -329.5 -83.5t-229 -233t-82.5 -336.5t82.5 -336.5t229 -233.5t329.5 -84q101 0 203 29q165 50 278 178v2z" />
    <glyph glyph-name="D" unicode="D" horiz-adv-x="1413" 
d="M702 1432q350 0 554 -192.5t204 -522.5q0 -331 -204 -524t-554 -193h-514v86h514q315 0 493.5 167.5t178.5 463.5q0 295 -178.5 462t-493.5 167h-428v-951h244v725h184q196 0 313.5 -109.5t117.5 -293.5q0 -186 -118 -297t-313 -111h-514v1123h514zM606 1034v-639h96
q161 0 253 85.5t92 236.5q0 149 -91.5 233t-253.5 84h-96z" />
    <glyph glyph-name="E" unicode="E" horiz-adv-x="1103" 
d="M608 532v-137h516v-395h-931v618h768v209h-768v605h915v-398h-500v-121h439v-381h-439zM522 913v207h500v226h-743v-433h243zM1038 86v223h-516v223h-243v-446h759z" />
    <glyph glyph-name="E" unicode="&#xcb;" horiz-adv-x="1103" 
d="M608 532v-137h516v-395h-931v618h768v209h-768v605h915v-398h-500v-121h439v-381h-439zM522 913v207h500v226h-743v-433h243zM1038 86v223h-516v223h-243v-446h759z" />
    <glyph glyph-name="E" unicode="&#xca;" horiz-adv-x="1103" 
d="M608 532v-137h516v-395h-931v618h768v209h-768v605h915v-398h-500v-121h439v-381h-439zM522 913v207h500v226h-743v-433h243zM1038 86v223h-516v223h-243v-446h759z" />
    <glyph glyph-name="E" unicode="&#xc9;" horiz-adv-x="1103" 
d="M608 532v-137h516v-395h-931v618h768v209h-768v605h915v-398h-500v-121h439v-381h-439zM522 913v207h500v226h-743v-433h243zM1038 86v223h-516v223h-243v-446h759z" />
    <glyph glyph-name="E" unicode="&#xc8;" horiz-adv-x="1103" 
d="M608 532v-137h516v-395h-931v618h768v209h-768v605h915v-398h-500v-121h439v-381h-439zM522 913v207h500v226h-743v-433h243zM1038 86v223h-516v223h-243v-446h759z" />
    <glyph glyph-name="F" unicode="F" horiz-adv-x="1069" 
d="M1112 1034h-508v-170h453v-395h-453v-469h-416v555h783v223h-367h-416v654h924v-398zM516 86v383h-242v-383h242zM516 1120h510v226h-752v-480h242v254z" />
    <glyph glyph-name="G" unicode="G" horiz-adv-x="1525" 
d="M774 866h721v-864h-86v778h-549v-176h305v-604h-86v25h-6q-115 -50 -256 -50q-156 0 -291.5 56t-231 154t-150 236t-54.5 296q0 154 53 290.5t152 237.5q100 102 235 156.5t287 54.5q177 0 327.5 -72t250.5 -204l26 -37l-344 -228l-24 31q-83 109 -236 109
q-77 0 -138.5 -29.5t-98 -78.5t-55.5 -107.5t-19 -122.5q0 -63 19 -121.5t55.5 -107t98 -78t138.5 -29.5q184 0 262 137h2h-307v348zM1079 123v260q-107 -90 -262 -90q-95 0 -172.5 36.5t-126 97t-74.5 135t-26 155.5t26 155.5t74.5 135t126 97t172.5 36.5q166 0 277 -111
l202 133q-88 100 -211 153.5t-268 53.5q-183 0 -329.5 -83.5t-229 -233t-82.5 -336.5t82.5 -336.5t229 -233.5t329.5 -84q148 0 262 60z" />
    <glyph glyph-name="H" unicode="H" horiz-adv-x="1429" 
d="M1006 1432h415v-1432h-415v524h-402v-524h-416v610h328h576v-524h241v1260h-241v-510h-904v596h416v-510h402v510zM516 922v424h-242v-424h242zM516 86v436h-242v-436h242z" />
    <glyph glyph-name="I" unicode="I" horiz-adv-x="620" 
d="M535 1432h86v-1432h-416v1432h86v-1346h244v1346z" />
    <glyph glyph-name="I" unicode="&#xcf;" horiz-adv-x="620" 
d="M535 1432h86v-1432h-416v1432h86v-1346h244v1346z" />
    <glyph glyph-name="I" unicode="&#xce;" horiz-adv-x="620" 
d="M535 1432h86v-1432h-416v1432h86v-1346h244v1346z" />
    <glyph glyph-name="I" unicode="&#xcd;" horiz-adv-x="620" 
d="M535 1432h86v-1432h-416v1432h86v-1346h244v1346z" />
    <glyph glyph-name="I" unicode="&#xcc;" horiz-adv-x="620" 
d="M535 1432h86v-1432h-416v1432h86v-1346h244v1346z" />
    <glyph glyph-name="J" unicode="J" horiz-adv-x="1179" 
d="M1012 1446h86v-911q0 -264 -139 -405.5t-400 -141.5q-151 0 -273 57.5t-193.5 162t-78.5 236.5l-2 37l410 76l4 -47q1 -18 6 -35t18 -37.5t40.5 -33.5t66.5 -13q127 0 127 144v911h86v-88v-823q0 -95 -52 -162.5t-161 -67.5q-87 0 -138 42.5t-71 107.5l-244 -43
q23 -153 147 -245.5t308 -92.5q453 0 453 461v911z" />
    <glyph glyph-name="K" unicode="K" horiz-adv-x="1355" 
d="M926 737l530 -737h-491l-361 520v-520h-416v608h461l60 -88l301 -434h278l-467 651l434 609h-260l-286 -414l-60 -88h-461v588h416v-502l344 502h475zM516 930v416h-242v-416h242zM516 86v434h-242v-434h242z" />
    <glyph glyph-name="L" unicode="L" horiz-adv-x="1036" 
d="M623 395h501v-395h-589v309v1037h-244v-1346h-86v1432h418v-1037zM1036 86v223h-413v-223h413z" />
    <glyph glyph-name="M" unicode="M" horiz-adv-x="1773" 
d="M1688 1432h86v-1432h-418v688l-283 -467h-168l-284 467v2v-690h-416v1432h86v-1346h241v911h3v435h83l3 -2l366 -609l369 609l2 2h84v-1346h246v1346zM1356 856v408l-369 -611l-366 611v-410l331 -547h74z" />
    <glyph glyph-name="N" unicode="N" horiz-adv-x="1435" 
d="M1018 1432h418v-1432h-357l-456 686v-686h-418v1432h86v-1346h244v520v826h24l62 -93l397 -591v684zM1126 86h224v1260h-246v-883l-483 721v-342z" />
    <glyph glyph-name="N" unicode="&#xd1;" horiz-adv-x="1435" 
d="M1018 1432h418v-1432h-357l-456 686v-686h-418v1432h86v-1346h244v520v826h24l62 -93l397 -591v684zM1126 86h224v1260h-246v-883l-483 721v-342z" />
    <glyph glyph-name="O" unicode="O" horiz-adv-x="1542" 
d="M1335 1247q99 -101 152 -237.5t53 -290.5t-53 -291t-152 -238q-99 -102 -233.5 -156t-288.5 -54q-153 0 -288 54t-234 156q-98 101 -151.5 238.5t-53.5 290.5t53 289.5t152 238.5q143 146 348 193q31 7 86 14v-88q-32 -2 -86 -14q-211 -56 -339 -227t-128 -406
q0 -187 82.5 -336.5t229 -233t329.5 -83.5q184 0 330.5 83.5t228.5 233t82 336.5q0 234 -127 405.5t-336 225.5v-248q105 -51 162 -156t57 -227q0 -80 -26 -154.5t-74.5 -134.5t-125.5 -96.5t-171 -36.5t-171 36.5t-125.5 96.5t-74.5 134.5t-26 154.5q0 123 58 228t165 157
q43 21 86 29v-89q-46 -11 -86 -40q-66 -45 -100.5 -122t-34.5 -163q0 -63 19 -121.5t55 -107t97 -78t138 -29.5t138 29.5t98 78t56 107t19 121.5q0 85 -34 160.5t-99 121.5q-42 30 -86 41v412q60 -8 86 -16q207 -48 344 -191z" />
    <glyph glyph-name="O" unicode="&#xd8;" horiz-adv-x="1542" 
d="M1335 1247q99 -101 152 -237.5t53 -290.5t-53 -291t-152 -238q-99 -102 -233.5 -156t-288.5 -54q-153 0 -288 54t-234 156q-98 101 -151.5 238.5t-53.5 290.5t53 289.5t152 238.5q143 146 348 193q31 7 86 14v-88q-32 -2 -86 -14q-211 -56 -339 -227t-128 -406
q0 -187 82.5 -336.5t229 -233t329.5 -83.5q184 0 330.5 83.5t228.5 233t82 336.5q0 234 -127 405.5t-336 225.5v-248q105 -51 162 -156t57 -227q0 -80 -26 -154.5t-74.5 -134.5t-125.5 -96.5t-171 -36.5t-171 36.5t-125.5 96.5t-74.5 134.5t-26 154.5q0 123 58 228t165 157
q43 21 86 29v-89q-46 -11 -86 -40q-66 -45 -100.5 -122t-34.5 -163q0 -63 19 -121.5t55 -107t97 -78t138 -29.5t138 29.5t98 78t56 107t19 121.5q0 85 -34 160.5t-99 121.5q-42 30 -86 41v412q60 -8 86 -16q207 -48 344 -191z" />
    <glyph glyph-name="O" unicode="&#xd6;" horiz-adv-x="1542" 
d="M1335 1247q99 -101 152 -237.5t53 -290.5t-53 -291t-152 -238q-99 -102 -233.5 -156t-288.5 -54q-153 0 -288 54t-234 156q-98 101 -151.5 238.5t-53.5 290.5t53 289.5t152 238.5q143 146 348 193q31 7 86 14v-88q-32 -2 -86 -14q-211 -56 -339 -227t-128 -406
q0 -187 82.5 -336.5t229 -233t329.5 -83.5q184 0 330.5 83.5t228.5 233t82 336.5q0 234 -127 405.5t-336 225.5v-248q105 -51 162 -156t57 -227q0 -80 -26 -154.5t-74.5 -134.5t-125.5 -96.5t-171 -36.5t-171 36.5t-125.5 96.5t-74.5 134.5t-26 154.5q0 123 58 228t165 157
q43 21 86 29v-89q-46 -11 -86 -40q-66 -45 -100.5 -122t-34.5 -163q0 -63 19 -121.5t55 -107t97 -78t138 -29.5t138 29.5t98 78t56 107t19 121.5q0 85 -34 160.5t-99 121.5q-42 30 -86 41v412q60 -8 86 -16q207 -48 344 -191z" />
    <glyph glyph-name="O" unicode="&#xd5;" horiz-adv-x="1542" 
d="M1335 1247q99 -101 152 -237.5t53 -290.5t-53 -291t-152 -238q-99 -102 -233.5 -156t-288.5 -54q-153 0 -288 54t-234 156q-98 101 -151.5 238.5t-53.5 290.5t53 289.5t152 238.5q143 146 348 193q31 7 86 14v-88q-32 -2 -86 -14q-211 -56 -339 -227t-128 -406
q0 -187 82.5 -336.5t229 -233t329.5 -83.5q184 0 330.5 83.5t228.5 233t82 336.5q0 234 -127 405.5t-336 225.5v-248q105 -51 162 -156t57 -227q0 -80 -26 -154.5t-74.5 -134.5t-125.5 -96.5t-171 -36.5t-171 36.5t-125.5 96.5t-74.5 134.5t-26 154.5q0 123 58 228t165 157
q43 21 86 29v-89q-46 -11 -86 -40q-66 -45 -100.5 -122t-34.5 -163q0 -63 19 -121.5t55 -107t97 -78t138 -29.5t138 29.5t98 78t56 107t19 121.5q0 85 -34 160.5t-99 121.5q-42 30 -86 41v412q60 -8 86 -16q207 -48 344 -191z" />
    <glyph glyph-name="O" unicode="&#xd4;" horiz-adv-x="1542" 
d="M1335 1247q99 -101 152 -237.5t53 -290.5t-53 -291t-152 -238q-99 -102 -233.5 -156t-288.5 -54q-153 0 -288 54t-234 156q-98 101 -151.5 238.5t-53.5 290.5t53 289.5t152 238.5q143 146 348 193q31 7 86 14v-88q-32 -2 -86 -14q-211 -56 -339 -227t-128 -406
q0 -187 82.5 -336.5t229 -233t329.5 -83.5q184 0 330.5 83.5t228.5 233t82 336.5q0 234 -127 405.5t-336 225.5v-248q105 -51 162 -156t57 -227q0 -80 -26 -154.5t-74.5 -134.5t-125.5 -96.5t-171 -36.5t-171 36.5t-125.5 96.5t-74.5 134.5t-26 154.5q0 123 58 228t165 157
q43 21 86 29v-89q-46 -11 -86 -40q-66 -45 -100.5 -122t-34.5 -163q0 -63 19 -121.5t55 -107t97 -78t138 -29.5t138 29.5t98 78t56 107t19 121.5q0 85 -34 160.5t-99 121.5q-42 30 -86 41v412q60 -8 86 -16q207 -48 344 -191z" />
    <glyph glyph-name="O" unicode="&#xd3;" horiz-adv-x="1542" 
d="M1335 1247q99 -101 152 -237.5t53 -290.5t-53 -291t-152 -238q-99 -102 -233.5 -156t-288.5 -54q-153 0 -288 54t-234 156q-98 101 -151.5 238.5t-53.5 290.5t53 289.5t152 238.5q143 146 348 193q31 7 86 14v-88q-32 -2 -86 -14q-211 -56 -339 -227t-128 -406
q0 -187 82.5 -336.5t229 -233t329.5 -83.5q184 0 330.5 83.5t228.5 233t82 336.5q0 234 -127 405.5t-336 225.5v-248q105 -51 162 -156t57 -227q0 -80 -26 -154.5t-74.5 -134.5t-125.5 -96.5t-171 -36.5t-171 36.5t-125.5 96.5t-74.5 134.5t-26 154.5q0 123 58 228t165 157
q43 21 86 29v-89q-46 -11 -86 -40q-66 -45 -100.5 -122t-34.5 -163q0 -63 19 -121.5t55 -107t97 -78t138 -29.5t138 29.5t98 78t56 107t19 121.5q0 85 -34 160.5t-99 121.5q-42 30 -86 41v412q60 -8 86 -16q207 -48 344 -191z" />
    <glyph glyph-name="O" unicode="&#xd2;" horiz-adv-x="1542" 
d="M1335 1247q99 -101 152 -237.5t53 -290.5t-53 -291t-152 -238q-99 -102 -233.5 -156t-288.5 -54q-153 0 -288 54t-234 156q-98 101 -151.5 238.5t-53.5 290.5t53 289.5t152 238.5q143 146 348 193q31 7 86 14v-88q-32 -2 -86 -14q-211 -56 -339 -227t-128 -406
q0 -187 82.5 -336.5t229 -233t329.5 -83.5q184 0 330.5 83.5t228.5 233t82 336.5q0 234 -127 405.5t-336 225.5v-248q105 -51 162 -156t57 -227q0 -80 -26 -154.5t-74.5 -134.5t-125.5 -96.5t-171 -36.5t-171 36.5t-125.5 96.5t-74.5 134.5t-26 154.5q0 123 58 228t165 157
q43 21 86 29v-89q-46 -11 -86 -40q-66 -45 -100.5 -122t-34.5 -163q0 -63 19 -121.5t55 -107t97 -78t138 -29.5t138 29.5t98 78t56 107t19 121.5q0 85 -34 160.5t-99 121.5q-42 30 -86 41v412q60 -8 86 -16q207 -48 344 -191z" />
    <glyph glyph-name="P" unicode="P" horiz-adv-x="1251" 
d="M737 1432q263 0 420.5 -143t157.5 -382q0 -252 -174 -385q-153 -123 -404 -123h-129v-399h-415v485h329h215q31 0 64 2.5t83.5 12.5t95 27t91.5 49t81 75t55.5 109t21.5 147q0 203 -132.5 321t-359.5 118h-458v-568h243v342h215q110 0 177 -58t67 -155q0 -101 -65 -158
t-179 -57h-544v740h544zM608 1034v-256h129q158 0 158 129q0 60 -41.5 93.5t-116.5 33.5h-129zM522 86v311h-243v-311h243z" />
    <glyph glyph-name="Q" unicode="Q" horiz-adv-x="1558" 
d="M1427 313l123 -120l-237 -234l-72 74l-57 57q-166 -96 -371 -96q-152 0 -287 55t-235 158q-99 102 -152 238.5t-53 289.5t53 289t152 238q100 103 235 158t287 55q153 0 287.5 -55t234.5 -158q100 -101 152.5 -237t52.5 -290q0 -235 -115 -418zM813 80q171 0 307 74
l-176 178q-62 -21 -131 -21q-94 0 -171 36.5t-125.5 96.5t-74.5 135.5t-26 155.5t26 154.5t74.5 134.5t125.5 96.5t171 36.5t171 -36.5t125.5 -96.5t74.5 -134.5t26 -154.5q0 -91 -30 -170l182 -184q92 157 92 354q0 187 -82 336.5t-228.5 233.5t-330.5 84
q-183 0 -329.5 -84t-229 -233.5t-82.5 -336.5t82.5 -337t229 -234t329.5 -84zM1427 193l-55 55l-59 59l-170 172l-8 8l-60 60q27 46 35 88l2 -2q12 49 12 102q0 63 -19 121.5t-56 107t-98 78t-138 29.5t-138 -29.5t-97 -78t-55 -107t-19 -121.5q0 -50 11.5 -97.5t36 -91.5
t60 -77t87.5 -52.5t114 -19.5h4h12q7 0 11 2h8h2q4 0 11.5 1t10.5 1h2l-2 2q47 8 91 33l69 -71l164 -164l107 -109l10 -10z" />
    <glyph glyph-name="R" unicode="R" horiz-adv-x="1339" 
d="M1120 553l301 -553h-448l-228 451h-137v-451h-415v537h442h164l227 -451h250l-272 500l36 20q187 103 187 318q0 198 -126 310t-347 112h-475v-533h241v307h234q103 0 165 -53t62 -143q0 -92 -60.5 -144.5t-166.5 -52.5h-561v705h561q258 0 408.5 -136.5t150.5 -371.5
q0 -238 -193 -371zM608 1034v-221h146q141 0 141 111q0 34 -14 57.5t-38 34t-45 14.5t-44 4h-146zM520 86v365h-241v-365h241z" />
    <glyph glyph-name="S" unicode="S" horiz-adv-x="1251" 
d="M776 887q253 -72 355 -172t102 -277q0 -87 -37.5 -169t-106.5 -148t-179.5 -106t-245.5 -40q-235 0 -388 100t-196 281l-10 39l84 25q0 -24 20 -84q24 -70 72.5 -122.5t101 -80.5t116.5 -44.5t109.5 -21t90.5 -4.5q115 0 208.5 32t152.5 85.5t90.5 120t31.5 137.5
q0 69 -14.5 117t-56.5 94t-120 82.5t-202 71.5q-8 2 -22.5 5t-20.5 5q-35 10 -48.5 13.5t-47 15t-49.5 20t-40.5 24t-36 31.5t-21 38.5t-9.5 48.5q0 76 57 124t146 48q76 0 132.5 -32t84.5 -91l221 55q-43 120 -157 191t-267 71q-201 0 -326 -102t-125 -267q0 -152 84 -239
t275 -133q24 -7 59 -15q42 -11 57 -14.5t51 -14.5t50.5 -18.5t38.5 -22t34 -29.5t18.5 -36.5t8.5 -46.5q0 -82 -64.5 -128t-177.5 -46q-100 0 -166.5 42t-95.5 106q-20 56 -20 83l80 25l10 -45q12 -52 60 -88.5t132 -36.5q20 0 40.5 2.5t49 10.5t46.5 27t18 48q0 33 -40 52
t-148 46q-28 6 -64 15q-219 54 -320.5 163.5t-101.5 292.5q0 204 148 329.5t389 125.5q196 0 338 -101t182 -268l10 -43l-385 -94l-12 41q-8 38 -42.5 68.5t-104.5 30.5q-48 0 -82.5 -21t-34.5 -65q0 -36 47.5 -59t140.5 -48q27 -8 43 -10z" />
    <glyph glyph-name="T" unicode="T" horiz-adv-x="1075" 
d="M29 1432h1044v-398h-315v-1038h-86v1124h315v226h-872v-226h315v-1124h-86v1038h-315v398z" />
    <glyph glyph-name="U" unicode="U" horiz-adv-x="1380" 
d="M965 1444h413v-864q0 -286 -156 -439t-448 -153q-293 0 -449.5 153t-156.5 439v864h86v-864q0 -249 132.5 -377.5t387.5 -128.5t386.5 128.5t131.5 377.5v778h-241v-746q0 -146 -72.5 -226.5t-204.5 -80.5q-134 0 -205 79t-71 228v832h88v-832q0 -114 45.5 -167.5
t142.5 -53.5q191 0 191 221v832z" />
    <glyph glyph-name="U" unicode="&#xdc;" horiz-adv-x="1380" 
d="M965 1444h413v-864q0 -286 -156 -439t-448 -153q-293 0 -449.5 153t-156.5 439v864h86v-864q0 -249 132.5 -377.5t387.5 -128.5t386.5 128.5t131.5 377.5v778h-241v-746q0 -146 -72.5 -226.5t-204.5 -80.5q-134 0 -205 79t-71 228v832h88v-832q0 -114 45.5 -167.5
t142.5 -53.5q191 0 191 221v832z" />
    <glyph glyph-name="U" unicode="&#xdb;" horiz-adv-x="1380" 
d="M965 1444h413v-864q0 -286 -156 -439t-448 -153q-293 0 -449.5 153t-156.5 439v864h86v-864q0 -249 132.5 -377.5t387.5 -128.5t386.5 128.5t131.5 377.5v778h-241v-746q0 -146 -72.5 -226.5t-204.5 -80.5q-134 0 -205 79t-71 228v832h88v-832q0 -114 45.5 -167.5
t142.5 -53.5q191 0 191 221v832z" />
    <glyph glyph-name="U" unicode="&#xda;" horiz-adv-x="1380" 
d="M965 1444h413v-864q0 -286 -156 -439t-448 -153q-293 0 -449.5 153t-156.5 439v864h86v-864q0 -249 132.5 -377.5t387.5 -128.5t386.5 128.5t131.5 377.5v778h-241v-746q0 -146 -72.5 -226.5t-204.5 -80.5q-134 0 -205 79t-71 228v832h88v-832q0 -114 45.5 -167.5
t142.5 -53.5q191 0 191 221v832z" />
    <glyph glyph-name="U" unicode="&#xd9;" horiz-adv-x="1380" 
d="M965 1444h413v-864q0 -286 -156 -439t-448 -153q-293 0 -449.5 153t-156.5 439v864h86v-864q0 -249 132.5 -377.5t387.5 -128.5t386.5 128.5t131.5 377.5v778h-241v-746q0 -146 -72.5 -226.5t-204.5 -80.5q-134 0 -205 79t-71 228v832h88v-832q0 -114 45.5 -167.5
t142.5 -53.5q191 0 191 221v832z" />
    <glyph glyph-name="V" unicode="V" horiz-adv-x="1470" 
d="M1032 1432h438l-514 -1432h-92l8 23l23 63l16 45l437 1215h-252l-226 -719l-6 -21l-88 -278l-45 -144l-31 -98l-26 -86h-168l-514 1432h436l252 -795l51 -166v2v-2l57 182zM686 328l-82 258l-6 24l-231 736h-252l450 -1260h45z" />
    <glyph glyph-name="W" unicode="W" horiz-adv-x="2004" 
d="M1915 1432h90l-37 -119l-407 -1313h-365l-4 12l-191 678l-190 -680l-2 -10h-84l-23 86l-67 256l-92 346l-174 658h-252l377 -1219l12 -41l26 -86h-90l-30 100l-412 1332h436l189 -721l12 -41l215 762h301l213 -762l10 35l166 630l25 97h90l-23 -86l-10 -33l-166 -631
l-2 -10l-88 -330v-2l-65 -254h194l387 1251l4 9zM1001 1008l236 -830l86 328l-236 840h-169l-238 -840l88 -332z" />
    <glyph glyph-name="X" unicode="X" horiz-adv-x="1394" 
d="M1255 215l140 -215h-103l-57 86l-55 86l-295 461l-51 80l-132 202l-51 80l-225 353h-256l352 -555l51 -80l129 -205l52 -80l133 -207l10 -16l74 -119l55 -86h-102l-133 209l-89 137l-221 -346h-469l459 713l-459 721h461l229 -359l232 359h459l-457 -721l242 -377z
M651 428l-129 205l-352 -547h264zM885 793l352 555h-256l-227 -353z" />
    <glyph glyph-name="Y" unicode="Y" horiz-adv-x="1417" 
d="M1317 1432h98l-514 -893v-539h-418v539l-516 893h455l270 -521l269 521h98l-490 -947v-399h244v475l455 785h-2zM117 1346l422 -732l104 203l-274 529h-252z" />
    <glyph glyph-name="Y" unicode="&#x178;" horiz-adv-x="1417" 
d="M1317 1432h98l-514 -893v-539h-418v539l-516 893h455l270 -521l269 521h98l-490 -947v-399h244v475l455 785h-2zM117 1346l422 -732l104 203l-274 529h-252z" />
    <glyph glyph-name="Y" unicode="&#xdd;" horiz-adv-x="1417" 
d="M1317 1432h98l-514 -893v-539h-418v539l-516 893h455l270 -521l269 521h98l-490 -947v-399h244v475l455 785h-2zM117 1346l422 -732l104 203l-274 529h-252z" />
    <glyph glyph-name="Z" unicode="Z" horiz-adv-x="1478" 
d="M1210 1034l-438 -635h651v-399h-1034l66 94l143 211l66 94l438 635l65 94l144 209h-1147v-209h764l-66 -94l-438 -635l-66 -94l-143 -211l-65 -94h-109l65 94l144 211l65 94l439 635h-676v398h1407l-66 -95l-145 -209zM1337 305h-630l-146 -211h776v211z" />
    <glyph glyph-name="bracketleft" unicode="[" horiz-adv-x="739" 
d="M766 1057h-176v-776h176v-88h-264v952h176v188h-385v-1331h473v-88h-561v1507h561v-364z" />
    <glyph glyph-name="backslash" unicode="\" horiz-adv-x="831" 
d="M365 1481l487 -1508h-92l-29 88l-31 95l-399 1237h-164l408 -1256l22 -76h2l29 -88h-94l-488 1508h349z" />
    <glyph glyph-name="bracketright" unicode="]" horiz-adv-x="739" 
d="M147 1421h562v-1507h-562v88h474v1331h-385v-188h176v-952h-265v88h177v776h-177v364z" />
    <glyph glyph-name="asciicircum" unicode="^" horiz-adv-x="944" 
d="M643 1309l299 -592h-98l-45 88l-58 115l-120 241l-70 -149l53 -115l2 -6l78 -174h-96l-86 188v2l-86 -190h-355l301 592h281zM358 805l189 416h-131l-211 -416h153z" />
    <glyph glyph-name="underscore" unicode="_" horiz-adv-x="831" 
d="M834 248h-648v-166h449h199v-88h-736v342h736v-88z" />
    <glyph glyph-name="grave" unicode="`" horiz-adv-x="608" 
d="M449 1352l151 -326h-98l-41 88h2l-70 150h-172l103 -150l61 -88h-106l-226 326h396z" />
    <glyph glyph-name="a" unicode="a" horiz-adv-x="1318" 
d="M1210 227l82 -227h-395l-72 227h-403l-72 -227h-397l467 1296h405l277 -766l26 -77h-718l213 675l188 -598h207l-248 689h-295l-412 -1141h230l72 227h817l12 -33zM516 530h213l-106 338zM954 78h228l-54 149h-221z" />
    <glyph glyph-name="a" unicode="&#xe5;" horiz-adv-x="1318" 
d="M1210 227l82 -227h-395l-72 227h-403l-72 -227h-397l467 1296h405l277 -766l26 -77h-718l213 675l188 -598h207l-248 689h-295l-412 -1141h230l72 227h817l12 -33zM516 530h213l-106 338zM954 78h228l-54 149h-221z" />
    <glyph glyph-name="a" unicode="&#xe4;" horiz-adv-x="1318" 
d="M1210 227l82 -227h-395l-72 227h-403l-72 -227h-397l467 1296h405l277 -766l26 -77h-718l213 675l188 -598h207l-248 689h-295l-412 -1141h230l72 227h817l12 -33zM516 530h213l-106 338zM954 78h228l-54 149h-221z" />
    <glyph glyph-name="a" unicode="&#xe3;" horiz-adv-x="1318" 
d="M1210 227l82 -227h-395l-72 227h-403l-72 -227h-397l467 1296h405l277 -766l26 -77h-718l213 675l188 -598h207l-248 689h-295l-412 -1141h230l72 227h817l12 -33zM516 530h213l-106 338zM954 78h228l-54 149h-221z" />
    <glyph glyph-name="a" unicode="&#xe2;" horiz-adv-x="1318" 
d="M1210 227l82 -227h-395l-72 227h-403l-72 -227h-397l467 1296h405l277 -766l26 -77h-718l213 675l188 -598h207l-248 689h-295l-412 -1141h230l72 227h817l12 -33zM516 530h213l-106 338zM954 78h228l-54 149h-221z" />
    <glyph glyph-name="a" unicode="&#xe1;" horiz-adv-x="1318" 
d="M1210 227l82 -227h-395l-72 227h-403l-72 -227h-397l467 1296h405l277 -766l26 -77h-718l213 675l188 -598h207l-248 689h-295l-412 -1141h230l72 227h817l12 -33zM516 530h213l-106 338zM954 78h228l-54 149h-221z" />
    <glyph glyph-name="a" unicode="&#xe0;" horiz-adv-x="1318" 
d="M1210 227l82 -227h-395l-72 227h-403l-72 -227h-397l467 1296h405l277 -766l26 -77h-718l213 675l188 -598h207l-248 689h-295l-412 -1141h230l72 227h817l12 -33zM516 530h213l-106 338zM954 78h228l-54 149h-221z" />
    <glyph glyph-name="b" unicode="b" horiz-adv-x="1165" 
d="M1059 686q149 -93 149 -276q0 -189 -118 -295q-124 -115 -369 -115h-528v594h512q95 0 147.5 -46t52.5 -126q0 -86 -53 -136t-147 -50h-213v280h-222v-438h451q201 0 305 84.5t104 247.5t-157 231l-25 10v54l21 12q110 64 110 205q0 143 -104 220t-299 77h-406v-422h222
v264h167q95 0 147 -44t52 -126q0 -72 -48.5 -122t-150.5 -50h-466v577h483q229 0 355 -98t126 -276q0 -151 -98 -236zM569 983v-186h90q121 0 121 94q0 41 -25 66.5t-96 25.5h-90zM569 516v-203h136q122 0 122 109q0 15 -2.5 25.5t-12 29t-37 29t-70.5 10.5h-136z" />
    <glyph glyph-name="c" unicode="c" horiz-adv-x="1277" 
d="M1184 248q5 7 15.5 18.5t19 22t14.5 20.5l63 -43l-24 -33q-4 -4 -4 -6q-91 -117 -226.5 -181t-293.5 -64q-137 0 -259.5 49.5t-212.5 142.5q-90 92 -138 215t-48 262q0 140 47.5 262.5t138.5 214.5q90 93 212.5 143t259.5 50q159 0 296 -65.5t228 -184.5l24 -35
l-313 -205l-22 29q-78 96 -213 96q-92 0 -157.5 -46.5t-94.5 -114t-29 -144.5q0 -76 29 -143.5t94.5 -114.5t157.5 -47q51 0 92 14q65 17 112 74q8 8 9 10l20 25l2 4l68 -43q-14 -23 -52 -61q-6 -6 -8 -7q-54 -54 -127 -75q-59 -19 -116 -19q-113 0 -196.5 57t-123 142.5
t-39.5 183.5t39.5 183.5t123 142.5t196.5 57q156 0 251 -100l185 121q-79 92 -191 140t-245 48q-166 0 -298.5 -76t-207 -211.5t-74.5 -304.5t74.5 -304.5t207 -211.5t298.5 -76q99 0 184 27q153 48 252 162z" />
    <glyph glyph-name="c" unicode="&#xe7;" horiz-adv-x="1277" 
d="M1184 248q5 7 15.5 18.5t19 22t14.5 20.5l63 -43l-24 -33q-4 -4 -4 -6q-91 -117 -226.5 -181t-293.5 -64q-137 0 -259.5 49.5t-212.5 142.5q-90 92 -138 215t-48 262q0 140 47.5 262.5t138.5 214.5q90 93 212.5 143t259.5 50q159 0 296 -65.5t228 -184.5l24 -35
l-313 -205l-22 29q-78 96 -213 96q-92 0 -157.5 -46.5t-94.5 -114t-29 -144.5q0 -76 29 -143.5t94.5 -114.5t157.5 -47q51 0 92 14q65 17 112 74q8 8 9 10l20 25l2 4l68 -43q-14 -23 -52 -61q-6 -6 -8 -7q-54 -54 -127 -75q-59 -19 -116 -19q-113 0 -196.5 57t-123 142.5
t-39.5 183.5t39.5 183.5t123 142.5t196.5 57q156 0 251 -100l185 121q-79 92 -191 140t-245 48q-166 0 -298.5 -76t-207 -211.5t-74.5 -304.5t74.5 -304.5t207 -211.5t298.5 -76q99 0 184 27q153 48 252 162z" />
    <glyph glyph-name="d" unicode="d" horiz-adv-x="1292" 
d="M649 1296q318 0 502 -174t184 -473q0 -301 -184 -475t-502 -174h-465v78h465q286 0 447 151.5t161 419.5q0 267 -161 418.5t-447 151.5h-387v-861h221v656h166q177 0 283 -99.5t106 -265.5q0 -168 -106 -268t-283 -100h-465v1015h465zM561 936v-578h88q146 0 229 77.5
t83 213.5q0 135 -83 211t-229 76h-88z" />
    <glyph glyph-name="e" unicode="e" horiz-adv-x="1011" 
d="M563 358h469v-358h-844v561h695v187h-695v548h828v-360h-453v-109h398v-346h-398v-123zM485 827v187h453v205h-672v-392h219zM954 78v203h-469v200h-219v-403h688z" />
    <glyph glyph-name="e" unicode="&#xeb;" horiz-adv-x="1011" 
d="M563 358h469v-358h-844v561h695v187h-695v548h828v-360h-453v-109h398v-346h-398v-123zM485 827v187h453v205h-672v-392h219zM954 78v203h-469v200h-219v-403h688z" />
    <glyph glyph-name="e" unicode="&#xea;" horiz-adv-x="1011" 
d="M563 358h469v-358h-844v561h695v187h-695v548h828v-360h-453v-109h398v-346h-398v-123zM485 827v187h453v205h-672v-392h219zM954 78v203h-469v200h-219v-403h688z" />
    <glyph glyph-name="e" unicode="&#xe9;" horiz-adv-x="1011" 
d="M563 358h469v-358h-844v561h695v187h-695v548h828v-360h-453v-109h398v-346h-398v-123zM485 827v187h453v205h-672v-392h219zM954 78v203h-469v200h-219v-403h688z" />
    <glyph glyph-name="e" unicode="&#xe8;" horiz-adv-x="1011" 
d="M563 358h469v-358h-844v561h695v187h-695v548h828v-360h-453v-109h398v-346h-398v-123zM485 827v187h453v205h-672v-392h219zM954 78v203h-469v200h-219v-403h688z" />
    <glyph glyph-name="f" unicode="f" horiz-adv-x="980" 
d="M1020 936h-461v-154h412v-358h-412v-424h-375v504h709v201h-334h-375v591h836v-360zM481 78v346h-219v-346h219zM481 1014h461v205h-680v-437h219v232z" />
    <glyph glyph-name="g" unicode="g" horiz-adv-x="1392" 
d="M713 786h653v-782h-78v705h-495v-158h274v-547h-78v21h-6q-101 -43 -229 -43q-189 0 -340 86t-235.5 239t-84.5 344q0 139 48 262.5t137 214.5q91 94 213 143.5t262 49.5q158 0 294.5 -65.5t225.5 -184.5l24 -35l-311 -205l-20 27q-76 98 -213 98q-93 0 -159.5 -46.5
t-96 -114t-29.5 -144.5q0 -76 29.5 -143.5t96 -114.5t159.5 -47q165 0 235 125h2h-278v315zM989 115v235q-91 -82 -235 -82q-114 0 -198.5 57t-124.5 142.5t-40 183.5t40 184t124.5 143.5t198.5 57.5q151 0 250 -102l182 121q-80 91 -191 139.5t-241 48.5
q-253 0 -417.5 -167.5t-164.5 -424.5t164.5 -424.5t417.5 -167.5q135 0 235 56z" />
    <glyph glyph-name="h" unicode="h" horiz-adv-x="1308" 
d="M924 1296h374v-1296h-374v473h-365v-473h-375v551h297h520v-473h220v1141h-220v-463h-817v540h375v-462h365v462zM481 834v385h-219v-385h219zM481 78v395h-219v-395h219z" />
    <glyph glyph-name="i" unicode="i" horiz-adv-x="577" 
d="M498 1296h77v-1296h-374v1296h78v-1218h219v1218z" />
    <glyph glyph-name="i" unicode="&#xef;" horiz-adv-x="577" 
d="M498 1296h77v-1296h-374v1296h78v-1218h219v1218z" />
    <glyph glyph-name="i" unicode="&#xee;" horiz-adv-x="577" 
d="M498 1296h77v-1296h-374v1296h78v-1218h219v1218z" />
    <glyph glyph-name="i" unicode="&#xed;" horiz-adv-x="577" 
d="M498 1296h77v-1296h-374v1296h78v-1218h219v1218z" />
    <glyph glyph-name="i" unicode="&#xec;" horiz-adv-x="577" 
d="M498 1296h77v-1296h-374v1296h78v-1218h219v1218z" />
    <glyph glyph-name="j" unicode="j" horiz-adv-x="1081" 
d="M930 1309h78v-824q0 -239 -126.5 -367t-361.5 -128q-207 0 -345 115t-148 298l-2 35l370 68l4 -43q1 -16 6 -31.5t16.5 -34t36.5 -30t60 -11.5q115 0 115 129v824h78v-78v-746q0 -85 -47.5 -145.5t-145.5 -60.5q-79 0 -126 38t-64 97l-219 -41q20 -137 132.5 -221
t278.5 -84q203 0 306.5 105t103.5 312v824z" />
    <glyph glyph-name="k" unicode="k" horiz-adv-x="1236" 
d="M852 668l479 -668h-444l-328 471v-471h-375v549h416l55 -78l273 -393h252l-424 590l393 551h-236l-258 -377l-53 -78h-418v532h375v-454h2l311 454h428zM481 842v377h-219v-377h219zM481 78v393h-219v-393h219z" />
    <glyph glyph-name="l" unicode="l" horiz-adv-x="948" 
d="M578 358h454v-358h-532v281v938h-221v-1219h-78v1296h377v-938zM954 78v203h-376v-203h376z" />
    <glyph glyph-name="m" unicode="m" horiz-adv-x="1622" 
d="M1542 1296h78v-1296h-377v623l-256 -422h-153l-259 422v2v-625h-374v1296h78v-1218h219v825v393h77v-2l334 -551l334 551l2 2h76v-1218h221v1218zM1243 774v369l-334 -551l-331 551v-369l301 -495h65z" />
    <glyph glyph-name="n" unicode="n" horiz-adv-x="1314" 
d="M936 1296h379v-1296h-322l-415 621v-621h-377v1296h78v-1218h221v471v747h22l56 -84l358 -536v620zM1237 78v1141h-223v-801l-436 653v-309l456 -684h203z" />
    <glyph glyph-name="n" unicode="&#xf1;" horiz-adv-x="1314" 
d="M936 1296h379v-1296h-322l-415 621v-621h-377v1296h78v-1218h221v471v747h22l56 -84l358 -536v620zM1237 78v1141h-223v-801l-436 653v-309l456 -684h203z" />
    <glyph glyph-name="o" unicode="o" horiz-adv-x="1406" 
d="M1221 1130q91 -92 138.5 -214.5t47.5 -262.5q0 -139 -48 -262t-138 -215q-90 -93 -212 -142.5t-261 -49.5q-137 0 -259.5 49.5t-212.5 142.5q-90 92 -138 215t-48 262q0 140 47.5 262.5t138.5 214.5q127 133 314 175q27 6 78 14v-80q-28 -2 -78 -14
q-191 -50 -306.5 -204.5t-115.5 -367.5q0 -169 74.5 -304.5t207 -211.5t298.5 -76q253 0 417 167.5t164 424.5q0 212 -115.5 367t-304.5 205v-226q95 -46 147 -141t52 -205q0 -73 -23.5 -140.5t-67 -122t-113.5 -87.5t-156 -33q-113 0 -196.5 57t-123 142.5t-39.5 183.5
q0 111 52.5 206.5t148.5 141.5q56 22 78 27v-80q-41 -11 -78 -37q-60 -41 -91.5 -110.5t-31.5 -147.5q0 -77 29 -144.5t94.5 -114t157.5 -46.5q70 0 125.5 26.5t89 71t50.5 97.5t17 110q0 76 -31 145.5t-90 110.5q-37 26 -78 37v373q51 -8 78 -14q184 -44 312 -175z" />
    <glyph glyph-name="o" unicode="&#xf8;" horiz-adv-x="1406" 
d="M1221 1130q91 -92 138.5 -214.5t47.5 -262.5q0 -139 -48 -262t-138 -215q-90 -93 -212 -142.5t-261 -49.5q-137 0 -259.5 49.5t-212.5 142.5q-90 92 -138 215t-48 262q0 140 47.5 262.5t138.5 214.5q127 133 314 175q27 6 78 14v-80q-28 -2 -78 -14
q-191 -50 -306.5 -204.5t-115.5 -367.5q0 -169 74.5 -304.5t207 -211.5t298.5 -76q253 0 417 167.5t164 424.5q0 212 -115.5 367t-304.5 205v-226q95 -46 147 -141t52 -205q0 -73 -23.5 -140.5t-67 -122t-113.5 -87.5t-156 -33q-113 0 -196.5 57t-123 142.5t-39.5 183.5
q0 111 52.5 206.5t148.5 141.5q56 22 78 27v-80q-41 -11 -78 -37q-60 -41 -91.5 -110.5t-31.5 -147.5q0 -77 29 -144.5t94.5 -114t157.5 -46.5q70 0 125.5 26.5t89 71t50.5 97.5t17 110q0 76 -31 145.5t-90 110.5q-37 26 -78 37v373q51 -8 78 -14q184 -44 312 -175z" />
    <glyph glyph-name="o" unicode="&#xf6;" horiz-adv-x="1406" 
d="M1221 1130q91 -92 138.5 -214.5t47.5 -262.5q0 -139 -48 -262t-138 -215q-90 -93 -212 -142.5t-261 -49.5q-137 0 -259.5 49.5t-212.5 142.5q-90 92 -138 215t-48 262q0 140 47.5 262.5t138.5 214.5q127 133 314 175q27 6 78 14v-80q-28 -2 -78 -14
q-191 -50 -306.5 -204.5t-115.5 -367.5q0 -169 74.5 -304.5t207 -211.5t298.5 -76q253 0 417 167.5t164 424.5q0 212 -115.5 367t-304.5 205v-226q95 -46 147 -141t52 -205q0 -73 -23.5 -140.5t-67 -122t-113.5 -87.5t-156 -33q-113 0 -196.5 57t-123 142.5t-39.5 183.5
q0 111 52.5 206.5t148.5 141.5q56 22 78 27v-80q-41 -11 -78 -37q-60 -41 -91.5 -110.5t-31.5 -147.5q0 -77 29 -144.5t94.5 -114t157.5 -46.5q70 0 125.5 26.5t89 71t50.5 97.5t17 110q0 76 -31 145.5t-90 110.5q-37 26 -78 37v373q51 -8 78 -14q184 -44 312 -175z" />
    <glyph glyph-name="o" unicode="&#xf5;" horiz-adv-x="1406" 
d="M1221 1130q91 -92 138.5 -214.5t47.5 -262.5q0 -139 -48 -262t-138 -215q-90 -93 -212 -142.5t-261 -49.5q-137 0 -259.5 49.5t-212.5 142.5q-90 92 -138 215t-48 262q0 140 47.5 262.5t138.5 214.5q127 133 314 175q27 6 78 14v-80q-28 -2 -78 -14
q-191 -50 -306.5 -204.5t-115.5 -367.5q0 -169 74.5 -304.5t207 -211.5t298.5 -76q253 0 417 167.5t164 424.5q0 212 -115.5 367t-304.5 205v-226q95 -46 147 -141t52 -205q0 -73 -23.5 -140.5t-67 -122t-113.5 -87.5t-156 -33q-113 0 -196.5 57t-123 142.5t-39.5 183.5
q0 111 52.5 206.5t148.5 141.5q56 22 78 27v-80q-41 -11 -78 -37q-60 -41 -91.5 -110.5t-31.5 -147.5q0 -77 29 -144.5t94.5 -114t157.5 -46.5q70 0 125.5 26.5t89 71t50.5 97.5t17 110q0 76 -31 145.5t-90 110.5q-37 26 -78 37v373q51 -8 78 -14q184 -44 312 -175z" />
    <glyph glyph-name="o" unicode="&#xf4;" horiz-adv-x="1406" 
d="M1221 1130q91 -92 138.5 -214.5t47.5 -262.5q0 -139 -48 -262t-138 -215q-90 -93 -212 -142.5t-261 -49.5q-137 0 -259.5 49.5t-212.5 142.5q-90 92 -138 215t-48 262q0 140 47.5 262.5t138.5 214.5q127 133 314 175q27 6 78 14v-80q-28 -2 -78 -14
q-191 -50 -306.5 -204.5t-115.5 -367.5q0 -169 74.5 -304.5t207 -211.5t298.5 -76q253 0 417 167.5t164 424.5q0 212 -115.5 367t-304.5 205v-226q95 -46 147 -141t52 -205q0 -73 -23.5 -140.5t-67 -122t-113.5 -87.5t-156 -33q-113 0 -196.5 57t-123 142.5t-39.5 183.5
q0 111 52.5 206.5t148.5 141.5q56 22 78 27v-80q-41 -11 -78 -37q-60 -41 -91.5 -110.5t-31.5 -147.5q0 -77 29 -144.5t94.5 -114t157.5 -46.5q70 0 125.5 26.5t89 71t50.5 97.5t17 110q0 76 -31 145.5t-90 110.5q-37 26 -78 37v373q51 -8 78 -14q184 -44 312 -175z" />
    <glyph glyph-name="o" unicode="&#xf3;" horiz-adv-x="1406" 
d="M1221 1130q91 -92 138.5 -214.5t47.5 -262.5q0 -139 -48 -262t-138 -215q-90 -93 -212 -142.5t-261 -49.5q-137 0 -259.5 49.5t-212.5 142.5q-90 92 -138 215t-48 262q0 140 47.5 262.5t138.5 214.5q127 133 314 175q27 6 78 14v-80q-28 -2 -78 -14
q-191 -50 -306.5 -204.5t-115.5 -367.5q0 -169 74.5 -304.5t207 -211.5t298.5 -76q253 0 417 167.5t164 424.5q0 212 -115.5 367t-304.5 205v-226q95 -46 147 -141t52 -205q0 -73 -23.5 -140.5t-67 -122t-113.5 -87.5t-156 -33q-113 0 -196.5 57t-123 142.5t-39.5 183.5
q0 111 52.5 206.5t148.5 141.5q56 22 78 27v-80q-41 -11 -78 -37q-60 -41 -91.5 -110.5t-31.5 -147.5q0 -77 29 -144.5t94.5 -114t157.5 -46.5q70 0 125.5 26.5t89 71t50.5 97.5t17 110q0 76 -31 145.5t-90 110.5q-37 26 -78 37v373q51 -8 78 -14q184 -44 312 -175z" />
    <glyph glyph-name="o" unicode="&#xf2;" horiz-adv-x="1406" 
d="M1221 1130q91 -92 138.5 -214.5t47.5 -262.5q0 -139 -48 -262t-138 -215q-90 -93 -212 -142.5t-261 -49.5q-137 0 -259.5 49.5t-212.5 142.5q-90 92 -138 215t-48 262q0 140 47.5 262.5t138.5 214.5q127 133 314 175q27 6 78 14v-80q-28 -2 -78 -14
q-191 -50 -306.5 -204.5t-115.5 -367.5q0 -169 74.5 -304.5t207 -211.5t298.5 -76q253 0 417 167.5t164 424.5q0 212 -115.5 367t-304.5 205v-226q95 -46 147 -141t52 -205q0 -73 -23.5 -140.5t-67 -122t-113.5 -87.5t-156 -33q-113 0 -196.5 57t-123 142.5t-39.5 183.5
q0 111 52.5 206.5t148.5 141.5q56 22 78 27v-80q-41 -11 -78 -37q-60 -41 -91.5 -110.5t-31.5 -147.5q0 -77 29 -144.5t94.5 -114t157.5 -46.5q70 0 125.5 26.5t89 71t50.5 97.5t17 110q0 76 -31 145.5t-90 110.5q-37 26 -78 37v373q51 -8 78 -14q184 -44 312 -175z" />
    <glyph glyph-name="p" unicode="p" horiz-adv-x="1144" 
d="M682 1296q238 0 380 -129t142 -346q0 -224 -157 -350q-142 -111 -365 -111h-119v-360h-375v438h297h197q28 0 58 2.5t75.5 12t85.5 25t82.5 44.5t73 68t50 98.5t19.5 132.5q0 183 -119.5 290.5t-324.5 107.5h-416v-514h219v309h197q100 0 159.5 -52.5t59.5 -140.5
q0 -92 -58 -143t-161 -51h-494v669h494zM563 936v-231h119q141 0 141 116q0 55 -36.5 85t-104.5 30h-119zM485 78v282h-219v-282h219z" />
    <glyph glyph-name="q" unicode="q" horiz-adv-x="1425" 
d="M1305 289l110 -109l-215 -213l-65 66l-52 53q-148 -86 -335 -86q-137 0 -259.5 49t-212.5 141t-138 216t-48 264t47.5 262.5t138.5 214.5t213.5 142t258.5 50q138 0 260 -50t213 -142t138.5 -214.5t47.5 -262.5q0 -210 -104 -377zM748 78q154 0 278 65l-160 162
q-55 -18 -118 -18q-113 0 -196.5 57t-123 142.5t-39.5 183.5t39.5 183.5t123 142.5t196.5 57q86 0 156 -33t113.5 -87.5t67 -122t23.5 -140.5q0 -75 -29 -154l166 -166q84 144 84 320q0 257 -164 424.5t-417 167.5q-166 0 -298.5 -76t-207 -211.5t-74.5 -304.5t74.5 -304.5
t207 -211.5t298.5 -76zM1305 180l-50 49l-55 54l-153 155l-9 8l-53 54q22 38 33 80v-2q12 46 12 92q0 57 -17 109.5t-50.5 96.5t-89 70.5t-125.5 26.5q-92 0 -157.5 -46t-94.5 -113t-29 -144t29 -144.5t94.5 -114t157.5 -46.5h4h10h10q1 0 3.5 1t4.5 1q4 0 11.5 1t11.5 1
q42 9 80 30l63 -63l148 -150l98 -98l10 -10z" />
    <glyph glyph-name="r" unicode="r" horiz-adv-x="1224" 
d="M1028 500l272 -500h-405l-207 408h-125v-408h-375v485h402h147l205 -407h227l-245 450l32 21q168 92 168 287q0 180 -113.5 281.5t-314.5 101.5h-430v-484h219v279h211q94 0 149.5 -48t55.5 -130q0 -84 -54.5 -131.5t-150.5 -47.5h-508v639h508q234 0 370 -123.5
t136 -336.5q0 -104 -44.5 -191t-129.5 -145zM563 936v-201h133q127 0 127 101q0 100 -127 100h-133zM266 78h219v330h-219v-330z" />
    <glyph glyph-name="s" unicode="s" horiz-adv-x="1144" 
d="M713 805q229 -64 321 -155t92 -251q0 -79 -33.5 -152.5t-96 -133t-163 -95.5t-223.5 -36q-212 0 -350 89.5t-178 252.5l-8 36l76 23q1 -15 8.5 -43.5t9.5 -32.5q22 -63 66 -111t91 -73t104.5 -40.5t98.5 -19.5t82 -4q104 0 189.5 29.5t139 78t82 108.5t28.5 124
q0 63 -13.5 106.5t-51.5 85t-109 74.5t-183 64q-6 2 -18.5 5t-18.5 5q-35 9 -52 14t-50 16t-50.5 22.5t-38 29t-29.5 40t-9 50.5q0 69 51 112.5t131 43.5q69 0 120.5 -29t76.5 -82l203 50q-40 109 -143.5 173t-241.5 64q-183 0 -295.5 -92.5t-112.5 -241.5q0 -138 76 -217.5
t248 -120.5q9 -2 27.5 -6t27.5 -6q49 -12 71.5 -18t59.5 -20.5t54.5 -29.5t31.5 -39.5t14 -56.5q0 -73 -58.5 -116t-158.5 -43q-92 0 -151.5 38.5t-85.5 96.5q-19 50 -19 75l72 23l8 -41q12 -48 55.5 -81.5t120.5 -33.5q18 0 36.5 2.5t44.5 9.5t42.5 25.5t16.5 44.5
q0 30 -37 47t-136 39q-25 8 -55 15q-200 50 -291.5 148.5t-91.5 264.5q0 185 134 298.5t352 113.5q178 0 306 -91t165 -243l10 -39l-350 -86l-11 37q-8 35 -39.5 62.5t-95.5 27.5q-43 0 -73.5 -19t-30.5 -59q0 -12 5.5 -22t18.5 -19t26 -15.5t36 -14.5t39 -12.5t45 -12.5
t39 -10z" />
    <glyph glyph-name="t" unicode="t" horiz-adv-x="978" 
d="M33 1296h946v-360h-285v-938h-80v1016h287v205h-790v-205h284v-1016h-78v938h-284v360z" />
    <glyph glyph-name="u" unicode="u" horiz-adv-x="1261" 
d="M885 1309h375v-783q0 -259 -141.5 -397.5t-405.5 -138.5q-266 0 -407.5 138.5t-141.5 397.5v783h78v-783q0 -224 120 -340t351 -116q230 0 349.5 116t119.5 340v705h-219v-676q0 -132 -65.5 -204t-184.5 -72q-121 0 -185.5 71t-64.5 205v754h78v-754q0 -101 42 -150
t130 -49q172 0 172 199v754z" />
    <glyph glyph-name="u" unicode="&#xfc;" horiz-adv-x="1261" 
d="M885 1309h375v-783q0 -259 -141.5 -397.5t-405.5 -138.5q-266 0 -407.5 138.5t-141.5 397.5v783h78v-783q0 -224 120 -340t351 -116q230 0 349.5 116t119.5 340v705h-219v-676q0 -132 -65.5 -204t-184.5 -72q-121 0 -185.5 71t-64.5 205v754h78v-754q0 -101 42 -150
t130 -49q172 0 172 199v754z" />
    <glyph glyph-name="u" unicode="&#xfb;" horiz-adv-x="1261" 
d="M885 1309h375v-783q0 -259 -141.5 -397.5t-405.5 -138.5q-266 0 -407.5 138.5t-141.5 397.5v783h78v-783q0 -224 120 -340t351 -116q230 0 349.5 116t119.5 340v705h-219v-676q0 -132 -65.5 -204t-184.5 -72q-121 0 -185.5 71t-64.5 205v754h78v-754q0 -101 42 -150
t130 -49q172 0 172 199v754z" />
    <glyph glyph-name="u" unicode="&#xfa;" horiz-adv-x="1261" 
d="M885 1309h375v-783q0 -259 -141.5 -397.5t-405.5 -138.5q-266 0 -407.5 138.5t-141.5 397.5v783h78v-783q0 -224 120 -340t351 -116q230 0 349.5 116t119.5 340v705h-219v-676q0 -132 -65.5 -204t-184.5 -72q-121 0 -185.5 71t-64.5 205v754h78v-754q0 -101 42 -150
t130 -49q172 0 172 199v754z" />
    <glyph glyph-name="u" unicode="&#xf9;" horiz-adv-x="1261" 
d="M885 1309h375v-783q0 -259 -141.5 -397.5t-405.5 -138.5q-266 0 -407.5 138.5t-141.5 397.5v783h78v-783q0 -224 120 -340t351 -116q230 0 349.5 116t119.5 340v705h-219v-676q0 -132 -65.5 -204t-184.5 -72q-121 0 -185.5 71t-64.5 205v754h78v-754q0 -101 42 -150
t130 -49q172 0 172 199v754z" />
    <glyph glyph-name="v" unicode="v" horiz-adv-x="1343" 
d="M946 1296h395l-464 -1296h-82l6 20l20 58l15 41l395 1100h-227l-205 -652l-6 -18l-78 -252l-41 -129v-2l-29 -88l-24 -78h-152l-465 1296h395l228 -721l47 -147l51 162zM633 297l-74 233l-6 23l-211 666h-227l409 -1141h39z" />
    <glyph glyph-name="w" unicode="w" horiz-adv-x="1826" 
d="M1745 1296h82l-33 -108l-369 -1188h-329l-4 12l-172 613l-175 -617l-2 -8h-75l-21 78l-61 231l-82 314l-158 596h-227l340 -1104l10 -37l25 -78h-82l-27 92l-373 1204h396l170 -653l10 -37l196 690h271l194 -690l8 31l150 571l23 88h81l-20 -77l-8 -29l-150 -572l-4 -10
l-78 -299l-61 -231h178l350 1132l2 9zM920 911l210 -751l80 297l-215 762h-151l-215 -762l78 -299z" />
    <glyph glyph-name="x" unicode="x" horiz-adv-x="1271" 
d="M1145 195l125 -195h-92l-50 78l-51 78l-268 417l-45 72l-119 182l-45 74l-205 318h-231l317 -502l47 -72l117 -186l47 -72l119 -188l10 -15l68 -106l49 -78h-92l-121 190l-80 123l-199 -313h-426l416 645l-416 651h416l209 -323l209 323h416l-414 -651l219 -340zM600 387
l-119 184l-317 -493h239zM809 717l319 502h-231l-205 -318z" />
    <glyph glyph-name="y" unicode="y" horiz-adv-x="1296" 
d="M1204 1296h90l-467 -809v-487h-376v487l-467 809h411l244 -473l244 473h88l-443 -856v-362h222v430l409 711zM119 1219l383 -664l94 184l-248 480h-229z" />
    <glyph glyph-name="y" unicode="&#xff;" horiz-adv-x="1296" 
d="M1204 1296h90l-467 -809v-487h-376v487l-467 809h411l244 -473l244 473h88l-443 -856v-362h222v430l409 711zM119 1219l383 -664l94 184l-248 480h-229z" />
    <glyph glyph-name="y" unicode="&#xfd;" horiz-adv-x="1296" 
d="M1204 1296h90l-467 -809v-487h-376v487l-467 809h411l244 -473l244 473h88l-443 -856v-362h222v430l409 711zM119 1219l383 -664l94 184l-248 480h-229z" />
    <glyph glyph-name="z" unicode="z" horiz-adv-x="1351" 
d="M1102 936l-395 -576h589v-360h-936l60 86l129 190l59 84l398 576l57 86l131 188h-1038v-190h692l-60 -84l-397 -576l-57 -84l-131 -190l-60 -86h-98l59 86l132 190l59 84l395 576h-612v360h1274l-60 -86l-131 -188zM1219 276h-572l-131 -190h703v190z" />
    <glyph glyph-name="braceleft" unicode="{" horiz-adv-x="761" 
d="M606 387q0 -42 13 -55t49 -13h77v-366h-182q-82 0 -144 19.5t-99 50t-60 73.5t-31 84.5t-8 89.5v222q0 32 -5.5 46t-13.5 16.5t-30 2.5h-45v84h354h-2h109q16 -40 16 -84q2 -8 2 -22v-148zM657 41v190q-59 2 -99 37t-40 119v148v22h-217q8 -24 8 -65v-222q0 -119 61 -174
t193 -55h94zM563 1460h182v-366h-77q-37 0 -49.5 -12.5t-12.5 -53.5v-149q0 -15 -2 -21q0 -44 -16 -84h-461v84h45q31 0 40 10t9 54v221q0 48 8 89.5t31 84.5t60 73.5t99 50t144 19.5zM657 1182v190h-94q-132 0 -193 -54.5t-61 -174.5v-221q0 -37 -6 -64h215v21v149
q0 151 139 154z" />
    <glyph glyph-name="bar" unicode="|" horiz-adv-x="573" 
d="M201 1458h370v-1528h-88v1440h-194v-1440h-88v1528z" />
    <glyph glyph-name="braceright" unicode="}" horiz-adv-x="761" 
d="M422 641h352v-84h-43q-22 0 -30.5 -2.5t-14.5 -16.5t-6 -46v-222q0 -48 -8 -89.5t-31 -84.5t-60 -73.5t-99 -50t-144 -19.5h-182v366h80q35 0 47 13t12 55v148q0 14 2 22q3 46 18 84h107zM600 557h-215q0 -3 -1 -10.5t-1 -11.5v-148q0 -84 -40 -119t-99 -37v-190h94
q132 0 193 55t61 174v222q0 29 8 65zM731 858h43v-84h-461q-13 32 -16 84q-2 6 -2 21v149q0 41 -12 53.5t-47 12.5h-80v366h182q82 0 144 -19.5t99 -50t60 -73.5t31 -84.5t8 -89.5v-221q0 -44 9.5 -54t41.5 -10zM385 858h215q-8 24 -8 64v221q0 120 -61 174.5t-193 54.5h-94
v-190q139 -3 139 -154v-149q0 -3 1 -10.5t1 -10.5z" />
    <glyph glyph-name="nbspace" unicode="&#xa0;" horiz-adv-x="729" 
 />
    <glyph glyph-name="softhyphen" unicode="&#xad;" 
 />
    <glyph glyph-name="nonmarkingreturn.1" 
 />
    </font>
</defs>
</svg>
