<?xml version="1.0" standalone="no"?>
<!DOCTYPE svg PUBLIC "-//W3C//DTD SVG 1.1//EN" "http://www.w3.org/Graphics/SVG/1.1/DTD/svg11.dtd" >
<svg xmlns="http://www.w3.org/2000/svg" xmlns:xlink="http://www.w3.org/1999/xlink" version="1.1">
<metadata>
Created by FontForge 20170731 at Fri Apr 22 11:22:07 2022
 By Aleksey,,,
(c)2015 Now Typeface is a trademark of Alfredo Marco Pradil. All rights reserved.
</metadata>
<defs>
<font id="Now-Thin" horiz-adv-x="0" >
  <font-face 
    font-family="Now Thin"
    font-weight="250"
    font-stretch="normal"
    units-per-em="2048"
    panose-1="0 0 3 0 0 0 0 0 0 0"
    ascent="1638"
    descent="-410"
    x-height="1024"
    cap-height="1536"
    bbox="-1526 -614 2232 2396"
    underline-thickness="128"
    underline-position="-384"
    unicode-range="U+0020-FB02"
  />
<missing-glyph horiz-adv-x="1228" 
d="M241 0v1536h747v-1536h-747zM282 41h665v1454h-665v-1454z" />
    <glyph glyph-name="fi" unicode="fi" horiz-adv-x="1264" 
d="M284 1661q0 92 65.5 157.5t157.5 65.5q27 0 60 -9.5t53 -23.5v-26l-113 18q-77 0 -129.5 -52.5t-52.5 -129.5v-637h295v-41h-295v-983h-41v983h-171v41h171v637zM991 1352q25 0 43 -18.5t18 -43.5q0 -26 -18 -43.5t-43 -17.5t-43.5 17.5t-18.5 43.5q0 25 18.5 43.5
t43.5 18.5zM970 0v1024h41v-1024h-41z" />
    <glyph glyph-name="fl" unicode="fl" horiz-adv-x="1208" 
d="M284 1661q0 92 65.5 157.5t157.5 65.5q27 0 60 -9.5t53 -23.5v-26l-113 18q-77 0 -129.5 -52.5t-52.5 -129.5v-637h295v-41h-295v-983h-41v983h-171v41h171v637zM942 1884h41v-1884h-41v1884z" />
    <glyph glyph-name="f_t.liga" unicode="ft" horiz-adv-x="1320" 
d="M1208 983h-299v-781q0 -76 52.5 -129t129.5 -53h112v-7q-20 -14 -52.5 -23.5t-59.5 -9.5q-92 0 -157.5 65t-65.5 157v781h-543v-983h-41v983h-171v41h171v637q0 92 65.5 157.5t157.5 65.5q27 0 60 -9.5t53 -23.5v-26l-113 18q-77 0 -129.5 -52.5t-52.5 -129.5v-637h543
v445h41v-445h299v-41z" />
    <glyph glyph-name=".notdef" horiz-adv-x="1228" 
d="M241 0v1536h747v-1536h-747zM282 41h665v1454h-665v-1454z" />
    <glyph glyph-name=".null" 
 />
    <glyph glyph-name="nonmarkingreturn" horiz-adv-x="682" 
 />
    <glyph glyph-name="space" unicode=" " horiz-adv-x="655" 
 />
    <glyph glyph-name="exclam" unicode="!" horiz-adv-x="601" 
d="M282 369v1351h41v-1351h-41zM302 -20q-25 0 -43 18t-18 43q0 26 18 43.5t43 17.5q24 0 43 -17.5t19 -43.5q0 -24 -19 -42.5t-43 -18.5z" />
    <glyph glyph-name="quotedbl" unicode="&#x22;" horiz-adv-x="780" 
d="M241 881v675h41v-675h-41zM499 881v675h41v-675h-41z" />
    <glyph glyph-name="numbersign" unicode="#" horiz-adv-x="1561" 
d="M425 0l54 379h-290l8 43h289l82 561h-289l5 41h284l57 381h41l-54 -381h430l54 381h41l-54 -381h289l-5 -41h-289l-80 -561h287l-5 -43h-287l-56 -379h-41l54 379h-430l-54 -379h-41zM527 422h430l80 561h-430z" />
    <glyph glyph-name="dollar" unicode="$" horiz-adv-x="1169" 
d="M1047 364q0 -92 -37 -166t-99 -119t-137 -70t-157 -29v-169h-41v169q-161 4 -283.5 85t-169.5 204l38 13q43 -112 158 -187t272 -75q111 0 204 38.5t152 118.5t59 187q0 72 -27.5 130.5t-74 99.5t-107 75.5t-127.5 64t-134 59.5t-127.5 67t-107 81.5t-74 108.5t-27.5 143
q0 87 32.5 157t87.5 112.5t120 66t136 27.5v180h41v-180q111 -4 202.5 -52.5t145.5 -121.5l-33 -25q-48 67 -135.5 113t-194.5 46q-67 0 -130 -20t-115.5 -58.5t-84 -102t-31.5 -142.5q0 -72 27.5 -131t74 -100t107 -76t127.5 -64.5t134 -59.5t127.5 -67t107 -81t74 -108
t27.5 -142z" />
    <glyph glyph-name="percent" unicode="%" horiz-adv-x="1448" 
d="M420 1004q-96 0 -164.5 81.5t-68.5 194.5t68.5 194.5t164.5 81.5t164.5 -81.5t68.5 -194.5t-68.5 -194.5t-164.5 -81.5zM166 0l1070 1536h49l-1073 -1536h-46zM420 1044q79 0 135.5 69t56.5 167t-56.5 167t-135.5 69q-81 0 -136.5 -68.5t-55.5 -167.5t55.5 -167.5
t136.5 -68.5zM1032 -20q-96 0 -164.5 81.5t-68.5 194.5t68.5 194.5t164.5 81.5q98 0 165.5 -81t67.5 -195t-67.5 -195t-165.5 -81zM1032 20q79 0 135.5 69t56.5 167t-56.5 167t-135.5 69t-135.5 -69t-56.5 -167t56.5 -167t135.5 -69z" />
    <glyph glyph-name="ampersand" unicode="&#x26;" horiz-adv-x="1374" 
d="M1231 809v-41h-158v-366q0 -176 -112 -289t-293 -113q-187 0 -315 114.5t-128 289.5q0 135 77.5 241.5t199.5 145.5q-117 41 -189 141.5t-72 229.5q0 163 112.5 268.5t268.5 105.5h325v-41h-322q-140 0 -241.5 -94.5t-101.5 -238.5q0 -148 102.5 -250.5t252.5 -102.5h395
v302h41v-302h158zM1032 402v366h-412q-147 0 -250.5 -106.5t-103.5 -257.5q0 -157 116.5 -260t283.5 -103q164 0 265 101t101 260z" />
    <glyph glyph-name="quotesingle" unicode="'" horiz-adv-x="519" 
d="M241 963v593h41v-593h-41z" />
    <glyph glyph-name="parenleft" unicode="(" horiz-adv-x="855" 
d="M671 -451q-102 15 -186.5 92.5t-148.5 217.5t-100 358t-36 495q0 278 36 497t100 360t148.5 220t186.5 95v-33q-193 -39 -311.5 -325t-118.5 -814q0 -521 118.5 -805.5t311.5 -323.5v-34z" />
    <glyph glyph-name="parenright" unicode=")" horiz-adv-x="855" 
d="M184 -451v34q192 39 311 324t119 805q0 527 -119 813.5t-311 325.5v33q101 -16 185.5 -95t149 -220t100.5 -360.5t36 -496.5t-36 -495t-100.5 -358t-149 -217.5t-185.5 -92.5z" />
    <glyph glyph-name="asterisk" unicode="*" horiz-adv-x="724" 
d="M282 1114l-41 25l97 146l-179 -5v46l179 -8l-97 151l41 21l82 -154l81 154l41 -21l-99 -151l181 8v-46l-181 5l99 -146l-41 -25l-81 153z" />
    <glyph glyph-name="plus" unicode="+" horiz-adv-x="1748" 
d="M855 0v614h-614v41h614v615h41v-615h614v-41h-614v-614h-41z" />
    <glyph glyph-name="comma" unicode="," horiz-adv-x="440" 
d="M67 -374h-44l279 638h46z" />
    <glyph glyph-name="hyphen" unicode="-" horiz-adv-x="1195" 
d="M241 512v41h716v-41h-716z" />
    <glyph glyph-name="period" unicode="." horiz-adv-x="601" 
d="M302 -20q-25 0 -43 17.5t-18 43.5q0 25 18 43t43 18q24 0 43 -18.5t19 -42.5q0 -26 -19 -43.5t-43 -17.5z" />
    <glyph glyph-name="slash" unicode="/" horiz-adv-x="1313" 
d="M-20 -614l1305 2498h49l-1308 -2498h-46z" />
    <glyph glyph-name="zero" unicode="0" horiz-adv-x="1466" 
d="M732 -20q-164 0 -286.5 107t-184 284t-61.5 397t61.5 397t184 284t286.5 107q124 0 225.5 -62t168 -169t103 -250t36.5 -307t-36.5 -307t-103 -250t-168 -169t-225.5 -62zM732 20q152 0 265 101t170 269t57 378t-57 378t-170 269t-265 101q-114 0 -208 -58.5t-155 -160
t-94.5 -237.5t-33.5 -292t33.5 -292t94.5 -237.5t155 -160t208 -58.5z" />
    <glyph glyph-name="one" unicode="1" horiz-adv-x="755" 
d="M412 0v1495h-253v41h294v-1536h-41z" />
    <glyph glyph-name="two" unicode="2" horiz-adv-x="1364" 
d="M243 41h968v-41h-1068l676 660q167 171 224.5 265.5t57.5 198.5q0 176 -110 282t-284 110q-173 4 -288.5 -101.5t-126.5 -282.5l-41 2q11 193 138 309.5t318 112.5q179 -4 299 -110.5t133 -296.5q7 -123 -52 -227.5t-235 -284.5z" />
    <glyph glyph-name="three" unicode="3" horiz-adv-x="1272" 
d="M625 873q184 0 314.5 -131.5t130.5 -316.5q0 -121 -59.5 -223.5t-162 -162t-223.5 -59.5q-185 0 -315.5 130.5t-130.5 314.5h41q0 -167 119 -286t286 -119t285.5 119t118.5 286q0 169 -118.5 288t-285.5 119h-261l547 660l5 3h-737v41h822l-553 -663h177z" />
    <glyph glyph-name="four" unicode="4" horiz-adv-x="1264" 
d="M1085 364v-41h-189v-323h-41v323h-753l753 1213h41v-1172h189zM179 364h676v1100z" />
    <glyph glyph-name="five" unicode="5" horiz-adv-x="1308" 
d="M620 998q139 0 256 -68.5t185 -186t68 -257.5q0 -102 -40 -195t-109 -161.5t-167 -109t-209 -40.5q-132 0 -249.5 53.5t-190.5 155.5v49h8q85 -114 197 -166t235 -52q138 0 249.5 63t173 169.5t61.5 233.5q0 197 -136.5 334t-331.5 137q-92 0 -179 -35t-152 -98l-48 26
l99 681h707v-41h-671l-92 -614q152 122 336 122z" />
    <glyph glyph-name="six" unicode="6" horiz-adv-x="1377" 
d="M1198 538q17 -211 -119.5 -372t-346.5 -181q-141 -10 -263.5 50.5t-199 171.5t-87.5 246q-10 109 27 212t114 182l581 689h61l-491 -571q71 29 174 36q209 19 369.5 -117t180.5 -346zM730 26q127 11 229 82.5t155 183.5t43 240q-17 195 -166 320t-341 108
q-126 -10 -228.5 -81.5t-156 -184t-42.5 -238.5q10 -127 81.5 -229.5t184.5 -156.5t241 -44z" />
    <glyph glyph-name="seven" unicode="7" horiz-adv-x="1239" 
d="M143 1536h994v-5l-889 -1531h-59l881 1495h-927v41z" />
    <glyph glyph-name="eight" unicode="8" horiz-adv-x="1192" 
d="M722 855q140 -43 230 -161.5t90 -268.5q0 -184 -130.5 -314.5t-315.5 -130.5t-316.5 130.5t-131.5 314.5q0 150 90 268.5t230 161.5q-105 39 -170 131t-65 207q0 151 105.5 257t257.5 106q150 0 255.5 -106t105.5 -257q0 -115 -65 -207t-170 -131zM274 1193
q0 -133 94 -226.5t228 -93.5q133 0 226.5 93.5t93.5 226.5q0 134 -93.5 228.5t-226.5 94.5q-134 0 -228 -94.5t-94 -228.5zM596 20q167 0 286 119t119 286q0 169 -119 288t-286 119q-168 0 -287.5 -119.5t-119.5 -287.5q0 -167 120 -286t287 -119z" />
    <glyph glyph-name="nine" unicode="9" horiz-adv-x="1377" 
d="M1198 1083q10 -108 -27.5 -211t-113.5 -183l-581 -689h-61l491 571q-70 -28 -174 -36q-137 -13 -260 45t-201 169.5t-89 248.5q-17 211 118.5 372t347.5 181q140 10 262.5 -50.5t198.5 -171t89 -246.5zM730 576q193 15 317.5 163t109.5 341q-11 127 -82.5 229.5
t-184.5 156.5t-240 44q-126 -11 -228.5 -82.5t-156 -184t-42.5 -239.5q15 -195 163.5 -320t343.5 -108z" />
    <glyph glyph-name="colon" unicode=":" horiz-adv-x="614" 
d="M307 922q-25 0 -43 17.5t-18 43.5q0 25 18 43t43 18t43.5 -18t18.5 -43q0 -26 -18.5 -43.5t-43.5 -17.5zM307 -20q-25 0 -43 17.5t-18 43.5q0 25 18 43t43 18t43.5 -18t18.5 -43q0 -26 -18.5 -43.5t-43.5 -17.5z" />
    <glyph glyph-name="semicolon" unicode=";" horiz-adv-x="642" 
d="M312 922q-25 0 -43 17.5t-18 43.5q0 25 18 43t43 18q24 0 43 -18.5t19 -42.5q0 -26 -19 -43.5t-43 -17.5zM113 -374h-44l279 638h46z" />
    <glyph glyph-name="less" unicode="&#x3c;" horiz-adv-x="1610" 
d="M1370 1236v-43l-1083 -545l1083 -551v-43l-1129 571v46z" />
    <glyph glyph-name="equal" unicode="=" horiz-adv-x="1584" 
d="M179 707v41h1229v-41h-1229zM179 338v41h1229v-41h-1229z" />
    <glyph glyph-name="greater" unicode="&#x3e;" horiz-adv-x="1610" 
d="M241 1236l1129 -565v-46l-1129 -571v43l1083 551l-1083 545v43z" />
    <glyph glyph-name="question" unicode="?" horiz-adv-x="1203" 
d="M612 404v369q0 68 20.5 119.5t53 83.5t71.5 59l78 54t71.5 60.5t53 88t20.5 126.5q0 150 -96.5 244t-251.5 94q-132 0 -227 -78.5t-118 -205.5h-41q19 144 126.5 233.5t259.5 89.5q174 0 281.5 -104.5t107.5 -272.5q0 -75 -20.5 -133.5t-53 -95t-71.5 -66t-78 -55.5
t-71.5 -54t-53 -71t-20.5 -98v-387h-41zM640 -20q-24 0 -42.5 17.5t-18.5 43.5q0 24 18.5 42.5t42.5 18.5q25 0 43 -18t18 -43q0 -26 -18 -43.5t-43 -17.5z" />
    <glyph glyph-name="at" unicode="@" horiz-adv-x="1300" 
d="M1060 305h-41v110q-33 -55 -97.5 -94t-122.5 -39q-114 0 -193 74.5t-79 183.5q0 107 79.5 181.5t192.5 74.5q66 0 131.5 -42.5t88.5 -103.5v100q0 138 -95.5 234t-232.5 96q-130 0 -238.5 -68.5t-170.5 -187.5t-62 -261q0 -144 72.5 -263t197 -187.5t273.5 -68.5h297v-44
h-297q-161 0 -295.5 74.5t-211.5 204t-77 284.5q0 115 40 219t108 179t163 119t201 44q155 0 262 -108.5t107 -265.5v-445zM796 328q94 0 158.5 61t64.5 151t-64.5 151.5t-158.5 61.5t-157 -61.5t-63 -151.5t63 -151t157 -61z" />
    <glyph glyph-name="A" unicode="A" horiz-adv-x="1233" 
d="M1147 0l-143 397h-774l-143 -397h-49l556 1536h46l553 -1536h-46zM243 438h748l-374 1042z" />
    <glyph glyph-name="B" unicode="B" horiz-adv-x="1320" 
d="M865 776q128 -33 212.5 -140t84.5 -242q0 -162 -115.5 -278t-278.5 -116h-543v1536h494q164 0 279.5 -115.5t115.5 -278.5q0 -122 -69 -221.5t-180 -144.5zM1073 1142q0 146 -104 249.5t-250 103.5h-453v-707h453q147 0 250.5 103.5t103.5 250.5zM768 41
q146 0 249.5 103.5t103.5 249.5t-103.5 250t-249.5 104h-502v-707h502z" />
    <glyph glyph-name="C" unicode="C" horiz-adv-x="1761" 
d="M957 -20q-160 0 -306 62.5t-251.5 168t-168 251.5t-62.5 306t62.5 306t168 251.5t251.5 168t306 62.5q215 0 396 -105.5t285 -283.5l-35 -20q-98 168 -270 268.5t-376 100.5q-152 0 -290 -59t-238.5 -159t-159.5 -238.5t-59 -291.5t59 -291.5t159.5 -238.5t238.5 -159
t290 -59q204 0 376 100.5t270 268.5l35 -20q-104 -178 -285 -283.5t-396 -105.5z" />
    <glyph glyph-name="D" unicode="D" horiz-adv-x="1520" 
d="M225 0v1536h359q157 0 299 -60.5t245 -163.5t163.5 -245t60.5 -299t-60.5 -299t-163.5 -245t-245 -163.5t-299 -60.5h-359zM266 41h318q199 0 366 97t264 264t97 366t-97 366t-264 264t-366 97h-318v-1454z" />
    <glyph glyph-name="E" unicode="E" horiz-adv-x="1190" 
d="M1016 1495h-737v-707h650v-40h-650v-707h737v-41h-778v1536h778v-41z" />
    <glyph glyph-name="F" unicode="F" horiz-adv-x="1118" 
d="M1016 1495h-737v-707h650v-40h-650v-748h-41v1536h778v-41z" />
    <glyph glyph-name="G" unicode="G" horiz-adv-x="1917" 
d="M957 781h789v-13q0 -160 -62 -306t-167.5 -251.5t-252 -168t-307.5 -62.5q-160 0 -306 62.5t-251.5 168t-168 251.5t-62.5 306t62.5 306t168 251.5t251.5 168t306 62.5q215 0 396 -105.5t285 -283.5l-35 -20q-98 168 -270 268.5t-376 100.5q-152 0 -290 -59t-238.5 -159
t-159.5 -238.5t-59 -291.5t59 -291.5t159.5 -238.5t238.5 -159t290 -59q149 0 285 56.5t235.5 152.5t160.5 229.5t67 281.5h-748v41z" />
    <glyph glyph-name="H" unicode="H" horiz-adv-x="1536" 
d="M1270 1536h41v-1536h-41v748h-1004v-748h-41v1536h41v-748h1004v748z" />
    <glyph glyph-name="I" unicode="I" horiz-adv-x="514" 
d="M238 0v1536h41v-1536h-41z" />
    <glyph glyph-name="J" unicode="J" horiz-adv-x="1029" 
d="M837 1536v-1160q0 -164 -105.5 -280t-255.5 -116q-134 0 -233.5 96t-119.5 241l41 8q15 -130 104 -217.5t208 -87.5q133 0 226.5 104t93.5 252v1119h-624v41h665z" />
    <glyph glyph-name="K" unicode="K" horiz-adv-x="1141" 
d="M1083 0l-730 809h-87v-809h-41v1536h41v-686h90l706 686h59l-727 -707l748 -829h-59z" />
    <glyph glyph-name="L" unicode="L" horiz-adv-x="921" 
d="M266 41h615v-41h-656v1536h41v-1495z" />
    <glyph glyph-name="M" unicode="M" horiz-adv-x="1853" 
d="M1592 1536h36v-1536h-41v1441l-645 -1441h-33l-643 1441v-1441h-41v1536h36l666 -1485z" />
    <glyph glyph-name="N" unicode="N" horiz-adv-x="1592" 
d="M1326 1536h41v-1536h-15l-1086 1431v-1431h-41v1536h16l1085 -1434v1434z" />
    <glyph glyph-name="O" unicode="O" horiz-adv-x="1917" 
d="M957 -20q-160 0 -306 62.5t-251.5 168t-168 251.5t-62.5 306t62.5 306t168 251.5t251.5 168t306 62.5q161 0 307.5 -62.5t252 -168t167.5 -251.5t62 -306t-62 -306t-167.5 -251.5t-252 -168t-307.5 -62.5zM957 20q153 0 291.5 59t238.5 159t159 238.5t59 291.5t-59 291.5
t-159 238.5t-238.5 159t-291.5 59q-152 0 -290 -59t-238.5 -159t-159.5 -238.5t-59 -291.5t59 -291.5t159.5 -238.5t238.5 -159t290 -59z" />
    <glyph glyph-name="P" unicode="P" horiz-adv-x="1187" 
d="M701 1536q168 0 286.5 -118t118.5 -286q0 -167 -119 -286t-286 -119h-435v-727h-41v1536h476zM701 768q151 0 257.5 106t106.5 258q0 151 -107 257t-257 106h-435v-727h435z" />
    <glyph glyph-name="Q" unicode="Q" horiz-adv-x="1917" 
d="M1211 20l146 21h366v-41h-586q-86 -20 -180 -20q-160 0 -306 62.5t-251.5 168t-168 251.5t-62.5 306t62.5 306t168 251.5t251.5 168t306 62.5q161 0 307.5 -62.5t252 -168t167.5 -251.5t62 -306q0 -258 -149 -463t-386 -285zM210 768q0 -153 59 -291.5t159.5 -238.5
t238.5 -159t290 -59q153 0 291.5 59t238.5 159t159 238.5t59 291.5t-59 291.5t-159 238.5t-238.5 159t-291.5 59q-152 0 -290 -59t-238.5 -159t-159.5 -238.5t-59 -291.5z" />
    <glyph glyph-name="R" unicode="R" horiz-adv-x="1251" 
d="M722 727l468 -727h-48l-461 727h-415v-727h-41v1536h476q168 0 286.5 -118t118.5 -286q0 -161 -111.5 -278t-272.5 -127zM266 768h435q151 0 257.5 106t106.5 258q0 151 -107 257t-257 106h-435v-727z" />
    <glyph glyph-name="S" unicode="S" horiz-adv-x="1169" 
d="M589 -20q-164 0 -291.5 82t-174.5 207l38 13q43 -112 158 -187t272 -75q111 0 204 38.5t152 118.5t59 187q0 72 -27.5 130.5t-74 99.5t-107 75.5t-127.5 64t-134 59.5t-127.5 67t-107 81.5t-74 108.5t-27.5 143q0 73 23.5 134.5t63 103t91.5 70.5t107.5 42t113.5 13
q116 0 213 -49.5t153 -124.5l-33 -25q-48 67 -135.5 113t-194.5 46q-67 0 -130 -20t-115.5 -58.5t-84 -102t-31.5 -142.5q0 -72 27.5 -131t74 -100t107 -76t127.5 -64.5t134 -59.5t127.5 -67t107 -81t74 -108t27.5 -142q0 -96 -40 -171.5t-107 -120.5t-146.5 -68.5
t-164.5 -23.5z" />
    <glyph glyph-name="T" unicode="T" horiz-adv-x="1064" 
d="M1004 1539v-41h-451v-1495h-41v1495h-451v41h943z" />
    <glyph glyph-name="U" unicode="U" horiz-adv-x="1500" 
d="M750 -20q-220 0 -376 156t-156 376v1024h41v-1024q0 -134 65 -247t178 -179t248 -66q203 0 347.5 144.5t144.5 347.5v1024h41v-1024q0 -145 -71.5 -267.5t-194 -193.5t-267.5 -71z" />
    <glyph glyph-name="V" unicode="V" horiz-adv-x="1233" 
d="M1147 1536h46l-553 -1536h-46l-556 1536h49l530 -1480z" />
    <glyph glyph-name="W" unicode="W" horiz-adv-x="2176" 
d="M2089 1536h46l-512 -1536h-46l-489 1467l-489 -1467h-46l-512 1536h46l489 -1477l489 1477h46l489 -1477z" />
    <glyph glyph-name="X" unicode="X" horiz-adv-x="1164" 
d="M1124 0h-51l-492 732l-489 -732h-51l517 768l-517 768h49l491 -732l492 732h48l-514 -768z" />
    <glyph glyph-name="Y" unicode="Y" horiz-adv-x="1192" 
d="M1101 1536h51l-532 -801h-3v-735h-41v735h-5l-530 801h49l506 -765z" />
    <glyph glyph-name="Z" unicode="Z" horiz-adv-x="1408" 
d="M212 41h1073v-41h-1152l1022 1495h-996v41h1075z" />
    <glyph glyph-name="bracketleft" unicode="[" horiz-adv-x="752" 
d="M225 -512v2396h302v-43h-263v-2309h263v-44h-302z" />
    <glyph glyph-name="backslash" unicode="\" horiz-adv-x="1305" 
d="M1280 -602l-1300 2486h46l1300 -2486h-46z" />
    <glyph glyph-name="bracketright" unicode="]" horiz-adv-x="752" 
d="M225 -512v44h264v2309h-264v43h302v-2396h-302z" />
    <glyph glyph-name="asciicircum" unicode="^" horiz-adv-x="1418" 
d="M1300 404h-46l-545 1086l-548 -1086h-43l568 1132h46z" />
    <glyph glyph-name="underscore" unicode="_" horiz-adv-x="1502" 
d="M138 -41v41h1229v-41h-1229z" />
    <glyph glyph-name="grave" unicode="`" horiz-adv-x="81" 
d="M379 1165h-51l-220 371h66z" />
    <glyph glyph-name="a" unicode="a" horiz-adv-x="1428" 
d="M1334 20h74v-20q-31 -20 -74 -20q-81 0 -124 52t-43 150v123q-60 -148 -192.5 -236.5t-298.5 -88.5q-144 0 -266.5 71.5t-194.5 194t-72 266.5t72 266.5t194.5 194t266.5 71.5q165 0 298 -92.5t193 -242.5v315h41v-842q0 -76 33.5 -119t92.5 -43zM676 20q203 0 347 144.5
t144 347.5t-144 347.5t-347 144.5t-347.5 -144.5t-144.5 -347.5t144.5 -347.5t347.5 -144.5z" />
    <glyph glyph-name="b" unicode="b" horiz-adv-x="1433" 
d="M758 1044q108 0 206 -42.5t169.5 -114t114 -169.5t42.5 -206t-42.5 -206t-114 -169.5t-169.5 -114t-206 -42.5q-163 0 -296.5 91t-195.5 239v-310h-41v1884h41v-1170q62 148 195.5 239t296.5 91zM758 20q203 0 347 144.5t144 347.5t-144 347.5t-347 144.5t-347.5 -144.5
t-144.5 -347.5t144.5 -347.5t347.5 -144.5z" />
    <glyph glyph-name="c" unicode="c" horiz-adv-x="1290" 
d="M676 -20q-144 0 -266.5 71.5t-194.5 194t-72 266.5t72 266.5t194.5 194t266.5 71.5q165 0 300.5 -93.5t195.5 -243.5h-40q-58 134 -182.5 215.5t-273.5 81.5q-133 0 -247 -64t-180.5 -178t-64.5 -250q-2 -136 64.5 -250t180.5 -178t247 -64q149 0 273.5 81.5t182.5 215.5
h40q-60 -150 -195.5 -243.5t-300.5 -93.5z" />
    <glyph glyph-name="d" unicode="d" horiz-adv-x="1433" 
d="M1167 1884h41v-1884h-41v310q-62 -148 -195 -239t-296 -91q-144 0 -266.5 71.5t-194.5 194t-72 266.5t72 266.5t194.5 194t266.5 71.5q163 0 296 -91t195 -239v1170zM676 20q203 0 347 144.5t144 347.5t-144 347.5t-347 144.5t-347.5 -144.5t-144.5 -347.5t144.5 -347.5
t347.5 -144.5z" />
    <glyph glyph-name="e" unicode="e" horiz-adv-x="1338" 
d="M1206 522h-1022v-20q2 -132 68.5 -243t179 -175t244.5 -64q159 0 287 92.5t179 238.5h41q-52 -163 -192 -267t-315 -104q-144 0 -266.5 71.5t-194.5 194t-72 266.5t72 266.5t194.5 194t266.5 71.5q140 0 258.5 -66t190.5 -182t81 -258v-16zM676 1004q-190 0 -328 -125.5
t-161 -315.5h978q-21 187 -160.5 314t-328.5 127z" />
    <glyph glyph-name="f" unicode="f" horiz-adv-x="716" 
d="M507 1843q-77 0 -129.5 -52.5t-52.5 -129.5v-637h295v-41h-295v-983h-41v983h-171v41h171v637q0 92 65.5 157.5t157.5 65.5q27 0 60 -9.5t53 -23.5v-26z" />
    <glyph glyph-name="g" unicode="g" horiz-adv-x="1433" 
d="M1167 1024h41v-1106q0 -108 -42.5 -206t-114 -169.5t-169.5 -114t-206 -42.5q-146 0 -272 75.5t-197 205.5l36 18q67 -121 183 -189.5t250 -68.5q203 0 347 144t144 347v392q-62 -148 -195 -239t-296 -91q-144 0 -266.5 71.5t-194.5 194t-72 266.5t72 267t194.5 194
t266.5 71q163 0 296 -90.5t195 -236.5v307zM676 20q203 0 347 144.5t144 347.5t-144 347.5t-347 144.5t-347.5 -144.5t-144.5 -347.5t144.5 -347.5t347.5 -144.5z" />
    <glyph glyph-name="h" unicode="h" horiz-adv-x="1149" 
d="M586 1044q148 0 253.5 -110.5t105.5 -265.5v-668h-41v668q0 140 -93.5 239t-226.5 99q-131 0 -224.5 -99t-93.5 -239v-668h-41v1884h41v-1047q45 94 130.5 150.5t189.5 56.5z" />
    <glyph glyph-name="i" unicode="i" horiz-adv-x="547" 
d="M274 1229q-25 0 -43.5 17.5t-18.5 43.5q0 25 18.5 43.5t43.5 18.5t43 -18.5t18 -43.5q0 -26 -18 -43.5t-43 -17.5zM253 0v1024h41v-1024h-41z" />
    <glyph glyph-name="j" unicode="j" horiz-adv-x="568" 
d="M294 1229q-25 0 -43 17.5t-18 43.5q0 25 18 43.5t43 18.5t43.5 -18.5t18.5 -43.5q0 -26 -18.5 -43.5t-43.5 -17.5zM92 -614q-27 0 -59.5 9.5t-52.5 23.5v25l112 -17q77 0 129.5 52.5t52.5 128.5v1416h41v-1416q0 -92 -65.5 -157t-157.5 -65z" />
    <glyph glyph-name="k" unicode="k" horiz-adv-x="980" 
d="M241 3v1881h41v-1881h-41zM881 0l-569 573l523 451h64l-525 -451l566 -573h-59z" />
    <glyph glyph-name="l" unicode="l" horiz-adv-x="491" 
d="M225 0v1884h41v-1884h-41z" />
    <glyph glyph-name="m" unicode="m" horiz-adv-x="1751" 
d="M1208 1044q142 0 240 -101t98 -254v-689h-38v689q0 138 -87.5 226.5t-214.5 88.5t-213.5 -88.5t-86.5 -226.5v-689h-41v689q0 138 -86 226.5t-213 88.5t-213.5 -88.5t-86.5 -226.5v-689h-41v1024h41v-166q42 86 123 136t179 50q110 0 197 -63t121 -169q37 106 124 169
t198 63z" />
    <glyph glyph-name="n" unicode="n" horiz-adv-x="1185" 
d="M604 1044q157 0 266.5 -110t109.5 -266v-668h-40v668q0 140 -98 239t-238 99t-239 -99t-99 -239v-668h-41v1024h41v-189q46 95 137 152t201 57z" />
    <glyph glyph-name="o" unicode="o" horiz-adv-x="1351" 
d="M676 -20q-144 0 -266.5 71.5t-194.5 194t-72 266.5t72 266.5t194.5 194t266.5 71.5q108 0 206 -42.5t169.5 -114t114 -169.5t42.5 -206t-42.5 -206t-114 -169.5t-169.5 -114t-206 -42.5zM676 20q203 0 347 144.5t144 347.5t-144 347.5t-347 144.5t-347.5 -144.5
t-144.5 -347.5t144.5 -347.5t347.5 -144.5z" />
    <glyph glyph-name="p" unicode="p" horiz-adv-x="1433" 
d="M758 1044q108 0 206 -42.5t169.5 -114t114 -169.5t42.5 -206t-42.5 -206t-114 -169.5t-169.5 -114t-206 -42.5q-163 0 -296.5 91t-195.5 239v-924h-41v1638h41v-310q62 148 195.5 239t296.5 91zM758 20q203 0 347 144.5t144 347.5t-144 347.5t-347 144.5t-347.5 -144.5
t-144.5 -347.5t144.5 -347.5t347.5 -144.5z" />
    <glyph glyph-name="q" unicode="q" horiz-adv-x="1433" 
d="M1390 -573h92v-21q-43 -20 -92 -20q-92 0 -157.5 65t-65.5 157v702q-62 -148 -195 -239t-296 -91q-144 0 -266.5 71.5t-194.5 194t-72 266.5t72 266.5t194.5 194t266.5 71.5q163 0 296 -91t195 -239v310h41v-1416q0 -76 52.5 -128.5t129.5 -52.5zM676 20q203 0 347 144.5
t144 347.5t-144 347.5t-347 144.5t-347.5 -144.5t-144.5 -347.5t144.5 -347.5t347.5 -144.5z" />
    <glyph glyph-name="r" unicode="r" horiz-adv-x="752" 
d="M625 1044q35 0 97 -10v-46q-50 16 -97 16q-148 0 -253.5 -104.5t-105.5 -251.5v-648h-41v1024h41v-202q49 100 146 161t213 61z" />
    <glyph glyph-name="s" unicode="s" horiz-adv-x="875" 
d="M453 -20q-109 0 -204 57t-126 140l38 12q25 -70 110 -119.5t182 -49.5q107 0 183 61.5t76 164.5q0 41 -15 76t-36 58t-59.5 46t-67.5 36t-78 32q-45 18 -70 28.5t-63.5 30.5t-60.5 40t-44.5 48t-33 63.5t-10.5 78.5q0 67 26.5 119.5t69 82t89.5 44.5t94 15
q73 0 139.5 -34t103.5 -83l-33 -26q-71 100 -207 100q-44 0 -85.5 -12.5t-77 -37t-57 -67t-21.5 -96.5q0 -31 8 -58t18.5 -47t33.5 -40t39 -32t49 -28.5t50 -24t55 -23.5q42 -18 61 -26t56 -27t55 -32.5t44 -37.5t38 -48t21.5 -57t9.5 -71q0 -107 -87.5 -181.5t-212.5 -74.5
z" />
    <glyph glyph-name="t" unicode="t" horiz-adv-x="716" 
d="M604 983h-299v-781q0 -77 52.5 -129.5t128.5 -52.5h113v-7q-20 -14 -53 -23.5t-60 -9.5q-92 0 -157 65t-65 157v781h-172v41h172v445h41v-445h299v-41z" />
    <glyph glyph-name="u" unicode="u" horiz-adv-x="1100" 
d="M548 -20q-148 0 -253.5 116.5t-105.5 279.5v648h41v-648q0 -147 93.5 -251.5t224.5 -104.5q133 0 226.5 104t93.5 252v648h41v-648q0 -164 -105.5 -280t-255.5 -116z" />
    <glyph glyph-name="v" unicode="v" horiz-adv-x="988" 
d="M883 1024h44l-410 -1024h-46l-410 1024h47l389 -970z" />
    <glyph glyph-name="w" unicode="w" horiz-adv-x="1594" 
d="M1495 1024h38l-350 -1024h-51l-333 965l-333 -965h-51l-354 1024h44l335 -975l336 975h46l335 -978z" />
    <glyph glyph-name="x" unicode="x" horiz-adv-x="1018" 
d="M957 1024l-419 -512l419 -512h-51l-397 481l-394 -481h-54l423 512l-423 512h54l394 -481l397 481h51z" />
    <glyph glyph-name="y" unicode="y" horiz-adv-x="988" 
d="M883 1024h44l-656 -1638h-43l246 614l-413 1024h47l386 -968h3z" />
    <glyph glyph-name="z" unicode="z" horiz-adv-x="1121" 
d="M205 41h793v-41h-875l758 983h-733v41h820z" />
    <glyph glyph-name="braceleft" unicode="{" horiz-adv-x="686" 
d="M476 -579q-71 0 -117.5 64.5t-46.5 161.5v609q0 60 -2 98t-10.5 83t-24.5 75.5t-45 60t-71 52.5v56q36 20 62.5 44t43 54.5t26.5 58t14.5 67.5t5.5 69t1 76v606q0 98 46.5 163t117.5 65h46v-43q-89 0 -129 -51.5t-40 -153.5v-617q0 -49 -2 -82t-11.5 -77t-26.5 -77
t-49 -67.5t-77 -62.5q45 -28 77 -62.5t49 -67t26.5 -76.5t11.5 -77.5t2 -82.5v-620q0 -205 169 -205v-41h-46z" />
    <glyph glyph-name="bar" unicode="|" horiz-adv-x="619" 
d="M289 -307v1843h41v-1843h-41z" />
    <glyph glyph-name="braceright" unicode="}" horiz-adv-x="686" 
d="M159 -579v41q166 0 166 205v620q0 63 4.5 104.5t20 92.5t51.5 93t93 76q-46 28 -78.5 62.5t-50 67.5t-27 77t-11.5 77t-2 82v617q0 102 -38.5 153.5t-127.5 51.5v43h46q71 0 117.5 -65t46.5 -163v-606q0 -47 1 -76t5.5 -69t14.5 -67.5t26.5 -58t43 -54.5t62.5 -44v-56
q-42 -23 -71 -52.5t-45 -60t-24.5 -75.5t-10.5 -83t-2 -98v-609q0 -97 -46.5 -161.5t-117.5 -64.5h-46z" />
    <glyph glyph-name="asciitilde" unicode="~" horiz-adv-x="1256" 
d="M855 394q-54 0 -102.5 24.5t-77 52t-66.5 74.5q-37 44 -60.5 67t-63.5 43.5t-83 20.5q-92 0 -154 -71.5t-66 -179.5h-41q4 129 79 210.5t182 81.5q40 0 75 -12t66.5 -37.5t51 -46.5t50.5 -58q52 -64 98 -96t109 -32q94 0 156.5 71t64.5 180h41q-2 -126 -76.5 -209
t-182.5 -83z" />
    <glyph glyph-name="exclamdown" unicode="&#xa1;" horiz-adv-x="601" 
d="M302 901q-25 0 -43 17.5t-18 44.5q0 25 18 43t43 18q24 0 43 -18.5t19 -42.5q0 -26 -19 -44t-43 -18zM282 -614v1269h41v-1269h-41z" />
    <glyph glyph-name="cent" unicode="&#xa2;" horiz-adv-x="1233" 
d="M701 1208q-203 0 -347 -144t-144 -347t144 -347.5t347 -144.5q197 0 333 128v-51q-134 -110 -312 -118v-184h-41v184q-104 4 -198.5 48t-163.5 115.5t-109.5 168t-40.5 201.5q0 140 68.5 260.5t186.5 193.5t257 78v190h41v-190q174 -7 312 -117v-52q-141 128 -333 128z
" />
    <glyph glyph-name="sterling" unicode="&#xa3;" horiz-adv-x="1256" 
d="M333 41h778v-41h-819v742h-164v41h164v351q0 186 113.5 303t295.5 117q117 0 220 -68t149 -175l-36 -16q-42 98 -134.5 158t-198.5 60q-165 0 -266.5 -105t-101.5 -274v-351h381v-41h-381v-701z" />
    <glyph glyph-name="currency" unicode="&#xa4;" horiz-adv-x="1216" 
d="M238 343l-28 31l97 100q-104 113 -103.5 268.5t106.5 268.5l-100 100l31 31l97 -103q116 106 270 107t270 -104l100 100l28 -31l-100 -97q106 -116 106 -270t-106 -270l100 -100l-28 -31l-100 102q-116 -106 -272 -106t-271 106zM351 486q107 -107 257 -107t257 107
q106 107 106 256.5t-106 255.5q-108 107 -257 106.5t-255 -106.5q-107 -107 -107.5 -256.5t105.5 -255.5z" />
    <glyph glyph-name="yen" unicode="&#xa5;" horiz-adv-x="1387" 
d="M712 735v-69h476v-41h-476v-246h476v-41h-476v-338h-41v338h-466v41h466v246h-466v41h466v69h-3l-530 801h49l507 -765l504 765h49l-530 -801h-5z" />
    <glyph glyph-name="brokenbar" unicode="&#xa6;" horiz-adv-x="619" 
d="M289 799v737h41v-737h-41zM289 -307v737h41v-737h-41z" />
    <glyph glyph-name="section" unicode="&#xa7;" horiz-adv-x="1295" 
d="M1027 474q87 -74 87 -177q0 -71 -38 -128t-102 -92.5t-144.5 -54.5t-169.5 -19q-169 0 -296 63t-175 157l41 15q40 -86 155 -143t275 -57q108 0 200 28t152.5 87.5t60.5 140.5q0 69 -44.5 122t-115 86.5t-156.5 62t-172 59t-156.5 67t-115 96t-44.5 137.5q0 109 87 177
q-87 71 -87 176q0 88 58.5 153t147 95.5t191.5 30.5q116 0 212 -36.5t154 -96.5l-34 -23q-53 54 -140 87.5t-190 33.5q-93 0 -172.5 -26t-132.5 -83t-53 -135q0 -69 44.5 -121.5t115 -86t156.5 -62t172 -59t156.5 -67.5t115 -95.5t44.5 -135.5q0 -104 -87 -176zM310 924
q0 -63 36 -113t92 -81.5t133 -62t149 -52.5t150 -54t128 -67q75 72 75 159q0 73 -48.5 127.5t-130 90.5t-168 64.5t-184 65.5t-155.5 77q-77 -64 -77 -154z" />
    <glyph glyph-name="dieresis" unicode="&#xa8;" horiz-adv-x="81" 
d="M243 1229q-25 0 -43 17.5t-18 43.5q0 25 18 43.5t43 18.5t43.5 -18.5t18.5 -43.5q0 -26 -18.5 -43.5t-43.5 -17.5zM550 1229q-25 0 -43 17.5t-18 43.5q0 25 18 43.5t43 18.5t43.5 -18.5t18.5 -43.5q0 -26 -18.5 -43.5t-43.5 -17.5z" />
    <glyph glyph-name="copyright" unicode="&#xa9;" horiz-adv-x="1917" 
d="M957 -20q-160 0 -305.5 62.5t-251.5 168t-168.5 251.5t-62.5 306t62.5 306t168.5 251.5t251.5 168t305.5 62.5t306 -62.5t252 -168t168.5 -251.5t62.5 -306t-62.5 -306t-168.5 -251.5t-252 -168t-306 -62.5zM957 20q153 0 291.5 59t238.5 159t159 238.5t59 291.5
t-59 291.5t-159 238.5t-238.5 159t-291.5 59q-152 0 -290 -59t-238.5 -159t-159.5 -238.5t-59 -291.5t59 -291.5t159.5 -238.5t238.5 -159t290 -59zM980 256q-136 0 -252.5 68.5t-185 185.5t-68.5 253q0 137 68.5 254t185 185t252.5 68q157 0 287.5 -89t186.5 -231h-38
q-56 126 -174.5 203.5t-261.5 77.5q-127 0 -234.5 -61t-170 -169t-60.5 -238q-2 -129 60.5 -236.5t170 -168.5t234.5 -61q143 0 261.5 77t174.5 205h38q-56 -142 -186.5 -232.5t-287.5 -90.5z" />
    <glyph glyph-name="ordfeminine" unicode="&#xaa;" horiz-adv-x="944" 
d="M732 1536h39v-617h-39v174q-37 -84 -114.5 -135.5t-172.5 -51.5q-131 0 -224 93.5t-93 226.5t93 226.5t224 93.5q95 0 172.5 -51.5t114.5 -135.5v177zM448 947q117 0 200.5 81t83.5 198t-83.5 199.5t-200.5 82.5t-198 -82.5t-81 -199.5t81 -198t198 -81z" />
    <glyph glyph-name="guillemotleft" unicode="&#xab;" horiz-adv-x="1213" 
d="M594 195l-312 376l312 376h54l-313 -376l313 -376h-54zM881 195l-313 376l313 376h53l-312 -376l312 -376h-53z" />
    <glyph glyph-name="logicalnot" unicode="&#xac;" horiz-adv-x="1633" 
d="M1352 279v525h-1111v41h1152v-566h-41z" />
    <glyph glyph-name="uni00AD" unicode="&#xad;" horiz-adv-x="1351" 
d="M241 512v41h716v-41h-716z" />
    <glyph glyph-name="registered" unicode="&#xae;" horiz-adv-x="1917" 
d="M957 1556q160 0 306 -62.5t252 -168t168.5 -251.5t62.5 -306t-62.5 -306t-168.5 -251.5t-252 -168t-306 -62.5t-305.5 62.5t-251.5 168t-168.5 251.5t-62.5 306t62.5 306t168.5 251.5t251.5 168t305.5 62.5zM957 20q153 0 291.5 59t238.5 159t159 238.5t59 291.5
t-59 291.5t-159 238.5t-238.5 159t-291.5 59q-152 0 -290 -59t-238.5 -159t-159.5 -238.5t-59 -291.5t59 -291.5t159.5 -238.5t238.5 -159t290 -59zM1231 955q0 -82 -55.5 -143.5t-136.5 -71.5l208 -376h-44l-207 373h-197v-373h-41v808h253q90 0 155 -63.5t65 -153.5z
M799 1132v-354h212q75 0 127 52t52 125t-52 125t-127 52h-212z" />
    <glyph glyph-name="macron" unicode="&#xaf;" horiz-adv-x="232" 
d="M179 1270v41h512v-41h-512z" />
    <glyph glyph-name="degree" unicode="&#xb0;" horiz-adv-x="1111" 
d="M556 1009q-113 0 -193.5 80.5t-80.5 193.5q0 111 80.5 192t193.5 81q111 0 192 -81t81 -192q0 -113 -81 -193.5t-192 -80.5zM556 1050q96 0 164 67.5t68 165.5q0 96 -68 164.5t-164 68.5q-98 0 -165.5 -68t-67.5 -165q0 -98 67.5 -165.5t165.5 -67.5z" />
    <glyph glyph-name="plusminus" unicode="&#xb1;" horiz-adv-x="1707" 
d="M876 819h675v-41h-675v-368h-41v368h-676v41h676v369h41v-369zM159 0v41h1392v-41h-1392z" />
    <glyph glyph-name="uni00B2" unicode="&#xb2;" horiz-adv-x="801" 
d="M172 827h465v-21h-514l325 318q80 82 108 128t28 97q0 83 -53 134t-137 53q-83 2 -138 -48t-61 -136l-21 2q6 92 67 148t153 54q86 -2 144 -53.5t64 -143.5q4 -58 -24 -107.5t-112 -137.5z" />
    <glyph glyph-name="uni00B3" unicode="&#xb3;" horiz-adv-x="757" 
d="M379 1213q88 0 150 -63t62 -152t-62 -152t-150 -63q-90 0 -152.5 63t-62.5 152h18q0 -81 58 -137.5t139 -56.5t137.5 56.5t56.5 137.5t-56.5 139.5t-137.5 58.5h-128l266 317h-353v20h394l-266 -320h87z" />
    <glyph glyph-name="acute" unicode="&#xb4;" horiz-adv-x="81" 
d="M0 1165l205 371h66l-220 -371h-51z" />
    <glyph glyph-name="uni00B5" unicode="&#xb5;" horiz-adv-x="1203" 
d="M973 1024h41v-1024h-41v202q-49 -100 -145 -161t-211 -61q-116 0 -211.5 60t-144.5 160v-712h-41v1536h41v-648q0 -148 104 -252t252 -104t252 104t104 252v648z" />
    <glyph glyph-name="paragraph" unicode="&#xb6;" horiz-adv-x="1290" 
d="M717 -307v1157h-92q-171 0 -267.5 89t-96.5 254q0 166 96.5 254.5t267.5 88.5h133v-1843h-41zM947 -307v1843h41v-1843h-41z" />
    <glyph glyph-name="periodcentered" unicode="&#xb7;" horiz-adv-x="601" 
d="M302 676q-25 0 -43 17.5t-18 43.5q0 25 18 43.5t43 18.5q24 0 43 -19t19 -43q0 -26 -19 -43.5t-43 -17.5z" />
    <glyph glyph-name="cedilla" unicode="&#xb8;" horiz-adv-x="189" 
d="M348 -532q-59 0 -126 30t-104 72l30 26q31 -37 89.5 -62.5t110.5 -25.5q65 0 108 44t43 110q0 89 -71 128t-177 8l-36 33l77 169h41l-67 -156q116 25 195 -27.5t79 -154.5q0 -81 -55.5 -137.5t-136.5 -56.5z" />
    <glyph glyph-name="uni00B9" unicode="&#xb9;" horiz-adv-x="624" 
d="M282 768v732h-123v36h164v-768h-41z" />
    <glyph glyph-name="ordmasculine" unicode="&#xba;" horiz-adv-x="896" 
d="M448 906q-133 0 -226.5 93.5t-93.5 226.5t93.5 226.5t226.5 93.5q134 0 228.5 -93.5t94.5 -226.5t-94.5 -226.5t-228.5 -93.5zM448 947q117 0 200.5 81t83.5 198t-83.5 199.5t-200.5 82.5t-198 -82.5t-81 -199.5t81 -198t198 -81z" />
    <glyph glyph-name="guillemotright" unicode="&#xbb;" horiz-adv-x="1213" 
d="M282 195l309 376l-309 376h51l312 -376l-312 -376h-51zM568 195l310 376l-310 376h52l312 -376l-312 -376h-52z" />
    <glyph glyph-name="onequarter" unicode="&#xbc;" horiz-adv-x="2173" 
d="M159 1510v26h197v-1024h-28v998h-169zM1516 1531h33l-1070 -1536h-34zM1994 243v-28h-128v-215h-25v215h-502l502 809h25v-781h128zM1388 243h453v737z" />
    <glyph glyph-name="onehalf" unicode="&#xbd;" horiz-adv-x="2283" 
d="M159 1510v26h197v-1024h-28v998h-169zM1475 1536h33l-1070 -1536h-34zM1487 28h643v-28h-712l451 440q111 113 150 177t39 133q0 117 -73.5 188t-189.5 73q-115 2 -192.5 -68t-84.5 -188h-28q7 130 92 208t213 76q120 -4 200 -75t89 -199q4 -82 -35.5 -151t-156.5 -189z
" />
    <glyph glyph-name="threequarters" unicode="&#xbe;" horiz-adv-x="2209" 
d="M773 801q0 -123 -87 -210t-210 -87t-210 87t-87 210h26q0 -111 80 -191t191 -80t190 80t79 191t-79 191.5t-190 80.5h-174l364 440l5 3h-492v25h548l-371 -443h120q123 0 210 -87t87 -210zM1597 1531h34l-1070 -1536h-34zM2030 243v-28h-128v-215h-26v215h-501l501 809
h26v-781h128zM1423 243h453v737z" />
    <glyph glyph-name="questiondown" unicode="&#xbf;" horiz-adv-x="1213" 
d="M558 922q-24 0 -42.5 18.5t-18.5 42.5q0 26 18.5 43.5t42.5 17.5q25 0 43.5 -17.5t18.5 -43.5q0 -25 -18.5 -43t-43.5 -18zM568 -614q-174 0 -281.5 104t-107.5 272q0 75 20.5 133.5t53 95t71.5 66t78.5 55.5t72 54t53 71t20.5 98v285h41v-267q0 -68 -20.5 -119.5
t-53 -83.5t-72 -59t-78.5 -54t-71.5 -60.5t-53 -88t-20.5 -126.5q0 -150 96.5 -244t251.5 -94q131 0 227 78.5t119 205.5h41q-21 -144 -128 -233t-259 -89z" />
    <glyph glyph-name="Agrave" unicode="&#xc0;" horiz-adv-x="1233" 
d="M643 1677h-52l-220 371h67zM1147 0l-143 397h-774l-143 -397h-49l556 1536h46l553 -1536h-46zM243 438h748l-374 1042z" />
    <glyph glyph-name="Aacute" unicode="&#xc1;" horiz-adv-x="1233" 
d="M863 2048l-220 -371h-52l205 371h67zM1147 0l-143 397h-774l-143 -397h-49l556 1536h46l553 -1536h-46zM243 438h748l-374 1042z" />
    <glyph glyph-name="Acircumflex" unicode="&#xc2;" horiz-adv-x="1233" 
d="M617 2002l-164 -325h-61l197 371h51l200 -371h-64zM1147 0l-143 397h-774l-143 -397h-49l556 1536h46l553 -1536h-46zM243 438h748l-374 1042z" />
    <glyph glyph-name="Atilde" unicode="&#xc3;" horiz-adv-x="1233" 
d="M463 1946q-61 0 -98 -46t-37 -123h-41q0 92 49.5 151t126.5 59q106 0 172 -103q51 -84 136 -84q61 0 99.5 46.5t38.5 119.5h41q0 -90 -50 -148.5t-129 -58.5q-107 0 -172 102q-48 85 -136 85zM1147 0l-143 397h-774l-143 -397h-49l556 1536h46l553 -1536h-46zM243 438
h748l-374 1042z" />
    <glyph glyph-name="Adieresis" unicode="&#xc4;" horiz-adv-x="1233" 
d="M463 1741q-25 0 -43 17.5t-18 43.5q0 25 18 43.5t43 18.5t43.5 -18.5t18.5 -43.5q0 -26 -18.5 -43.5t-43.5 -17.5zM771 1741q-25 0 -43.5 17.5t-18.5 43.5q0 25 18.5 43.5t43.5 18.5t43 -18.5t18 -43.5q0 -26 -18 -43.5t-43 -17.5zM1147 0l-143 397h-774l-143 -397h-49
l556 1536h46l553 -1536h-46zM243 438h748l-374 1042z" />
    <glyph glyph-name="Aring" unicode="&#xc5;" horiz-adv-x="1233" 
d="M1147 0l-143 397h-774l-143 -397h-49l546 1505q-60 14 -99.5 61t-39.5 108q0 73 51 123.5t124 50.5q71 0 121 -50.5t50 -123.5q0 -62 -40.5 -110t-100.5 -59l543 -1505h-46zM484 1674q0 -56 39 -94.5t97 -38.5q56 0 94.5 38.5t38.5 94.5q0 58 -38.5 97t-94.5 39
q-58 0 -97 -39t-39 -97zM243 438h748l-374 1042z" />
    <glyph glyph-name="AE" unicode="&#xc6;" horiz-adv-x="1717" 
d="M1544 1495h-738v-707h653v-40h-653v-707h738v-41h-779v397h-519l-159 -397h-49l617 1536h889v-41zM264 438h501v1057h-76z" />
    <glyph glyph-name="Ccedilla" unicode="&#xc7;" horiz-adv-x="1761" 
d="M957 20q204 0 376 100.5t270 268.5l35 -20q-101 -175 -278.5 -280t-389.5 -109l-59 -136q116 25 195 -27.5t79 -154.5q0 -81 -55.5 -137.5t-136.5 -56.5q-59 0 -126 30t-104 72l31 26q31 -37 89 -62.5t110 -25.5q65 0 108 44t43 110q0 89 -71 128t-177 8l-36 33l67 149
q-155 6 -295 70.5t-241.5 169.5t-161.5 248t-60 300q0 160 62.5 306t168 251.5t251.5 168t306 62.5q215 0 396 -105.5t285 -283.5l-35 -20q-98 168 -270 268.5t-376 100.5q-152 0 -290 -59t-238.5 -159t-159.5 -238.5t-59 -291.5t59 -291.5t159.5 -238.5t238.5 -159t290 -59
z" />
    <glyph glyph-name="Egrave" unicode="&#xc8;" horiz-adv-x="1190" 
d="M653 1677h-51l-221 371h67zM1016 1495h-737v-707h650v-40h-650v-707h737v-41h-778v1536h778v-41z" />
    <glyph glyph-name="Eacute" unicode="&#xc9;" horiz-adv-x="1190" 
d="M873 2048l-220 -371h-51l204 371h67zM1016 1495h-737v-707h650v-40h-650v-707h737v-41h-778v1536h778v-41z" />
    <glyph glyph-name="Ecircumflex" unicode="&#xca;" horiz-adv-x="1190" 
d="M627 2002l-164 -325h-61l197 371h51l200 -371h-64zM1016 1495h-737v-707h650v-40h-650v-707h737v-41h-778v1536h778v-41z" />
    <glyph glyph-name="Edieresis" unicode="&#xcb;" horiz-adv-x="1190" 
d="M474 1741q-25 0 -43.5 17.5t-18.5 43.5q0 25 18.5 43.5t43.5 18.5t43 -18.5t18 -43.5q0 -26 -18 -43.5t-43 -17.5zM781 1741q-25 0 -43.5 17.5t-18.5 43.5q0 25 18.5 43.5t43.5 18.5t43 -18.5t18 -43.5q0 -26 -18 -43.5t-43 -17.5zM1016 1495h-737v-707h650v-40h-650
v-707h737v-41h-778v1536h778v-41z" />
    <glyph glyph-name="Igrave" unicode="&#xcc;" horiz-adv-x="514" 
d="M284 1677h-51l-220 371h66zM238 0v1536h41v-1536h-41z" />
    <glyph glyph-name="Iacute" unicode="&#xcd;" horiz-adv-x="514" 
d="M233 1677l205 371h66l-220 -371h-51zM238 0v1536h41v-1536h-41z" />
    <glyph glyph-name="Icircumflex" unicode="&#xce;" horiz-adv-x="514" 
d="M95 1677h-62l197 371h52l199 -371h-64l-158 325zM238 0v1536h41v-1536h-41z" />
    <glyph glyph-name="Idieresis" unicode="&#xcf;" horiz-adv-x="514" 
d="M105 1741q-25 0 -43 17.5t-18 43.5q0 25 18 43.5t43 18.5t43 -18.5t18 -43.5q0 -26 -18 -43.5t-43 -17.5zM412 1741q-25 0 -43 17.5t-18 43.5q0 25 18 43.5t43 18.5t43.5 -18.5t18.5 -43.5q0 -26 -18.5 -43.5t-43.5 -17.5zM238 0v1536h41v-1536h-41z" />
    <glyph glyph-name="Eth" unicode="&#xd0;" horiz-adv-x="1520" 
d="M584 1536q157 0 299 -60.5t245 -163.5t163.5 -245t60.5 -299t-60.5 -299t-163.5 -245t-245 -163.5t-299 -60.5h-359v748h-166v40h166v748h359zM584 41q199 0 366 97t264 264t97 366t-97 366t-264 264t-366 97h-318v-707h305v-40h-305v-707h318z" />
    <glyph glyph-name="Ntilde" unicode="&#xd1;" horiz-adv-x="1592" 
d="M630 1946q-62 0 -99 -46.5t-37 -122.5h-41q0 92 50 151t127 59q105 0 171 -103q51 -84 136 -84q61 0 99.5 46.5t38.5 119.5h41q0 -90 -50 -148.5t-129 -58.5q-107 0 -172 102q-48 85 -135 85zM1326 1536h41v-1536h-15l-1086 1431v-1431h-41v1536h16l1085 -1434v1434z" />
    <glyph glyph-name="Ograve" unicode="&#xd2;" horiz-adv-x="1917" 
d="M983 1677h-51l-220 371h66zM957 -20q-160 0 -306 62.5t-251.5 168t-168 251.5t-62.5 306t62.5 306t168 251.5t251.5 168t306 62.5q161 0 307.5 -62.5t252 -168t167.5 -251.5t62 -306t-62 -306t-167.5 -251.5t-252 -168t-307.5 -62.5zM957 20q153 0 291.5 59t238.5 159
t159 238.5t59 291.5t-59 291.5t-159 238.5t-238.5 159t-291.5 59q-152 0 -290 -59t-238.5 -159t-159.5 -238.5t-59 -291.5t59 -291.5t159.5 -238.5t238.5 -159t290 -59z" />
    <glyph glyph-name="Oacute" unicode="&#xd3;" horiz-adv-x="1917" 
d="M932 1677l205 371h66l-220 -371h-51zM957 -20q-160 0 -306 62.5t-251.5 168t-168 251.5t-62.5 306t62.5 306t168 251.5t251.5 168t306 62.5q161 0 307.5 -62.5t252 -168t167.5 -251.5t62 -306t-62 -306t-167.5 -251.5t-252 -168t-307.5 -62.5zM957 20q153 0 291.5 59
t238.5 159t159 238.5t59 291.5t-59 291.5t-159 238.5t-238.5 159t-291.5 59q-152 0 -290 -59t-238.5 -159t-159.5 -238.5t-59 -291.5t59 -291.5t159.5 -238.5t238.5 -159t290 -59z" />
    <glyph glyph-name="Ocircumflex" unicode="&#xd4;" horiz-adv-x="1917" 
d="M794 1677h-62l197 371h51l200 -371h-64l-159 325zM957 -20q-160 0 -306 62.5t-251.5 168t-168 251.5t-62.5 306t62.5 306t168 251.5t251.5 168t306 62.5q161 0 307.5 -62.5t252 -168t167.5 -251.5t62 -306t-62 -306t-167.5 -251.5t-252 -168t-307.5 -62.5zM957 20
q153 0 291.5 59t238.5 159t159 238.5t59 291.5t-59 291.5t-159 238.5t-238.5 159t-291.5 59q-152 0 -290 -59t-238.5 -159t-159.5 -238.5t-59 -291.5t59 -291.5t159.5 -238.5t238.5 -159t290 -59z" />
    <glyph glyph-name="Otilde" unicode="&#xd5;" horiz-adv-x="1917" 
d="M1111 1759q-106 0 -171 102q-48 85 -136 85q-62 0 -99 -46.5t-37 -122.5h-41q0 92 50 151t127 59q105 0 171 -103q51 -84 136 -84q61 0 99.5 46.5t38.5 119.5h41q0 -90 -50 -148.5t-129 -58.5zM957 -20q-160 0 -306 62.5t-251.5 168t-168 251.5t-62.5 306t62.5 306
t168 251.5t251.5 168t306 62.5q161 0 307.5 -62.5t252 -168t167.5 -251.5t62 -306t-62 -306t-167.5 -251.5t-252 -168t-307.5 -62.5zM957 20q153 0 291.5 59t238.5 159t159 238.5t59 291.5t-59 291.5t-159 238.5t-238.5 159t-291.5 59q-152 0 -290 -59t-238.5 -159
t-159.5 -238.5t-59 -291.5t59 -291.5t159.5 -238.5t238.5 -159t290 -59z" />
    <glyph glyph-name="Odieresis" unicode="&#xd6;" horiz-adv-x="1917" 
d="M804 1741q-25 0 -43.5 17.5t-18.5 43.5q0 25 18.5 43.5t43.5 18.5t43 -18.5t18 -43.5q0 -26 -18 -43.5t-43 -17.5zM1111 1741q-25 0 -43 17.5t-18 43.5q0 25 18 43.5t43 18.5t43 -18.5t18 -43.5q0 -26 -18 -43.5t-43 -17.5zM957 -20q-160 0 -306 62.5t-251.5 168
t-168 251.5t-62.5 306t62.5 306t168 251.5t251.5 168t306 62.5q161 0 307.5 -62.5t252 -168t167.5 -251.5t62 -306t-62 -306t-167.5 -251.5t-252 -168t-307.5 -62.5zM957 20q153 0 291.5 59t238.5 159t159 238.5t59 291.5t-59 291.5t-159 238.5t-238.5 159t-291.5 59
q-152 0 -290 -59t-238.5 -159t-159.5 -238.5t-59 -291.5t59 -291.5t159.5 -238.5t238.5 -159t290 -59z" />
    <glyph glyph-name="multiply" unicode="&#xd7;" horiz-adv-x="1543" 
d="M1265 1070l-436 -435l436 -435l-31 -28l-433 435l-435 -435l-28 28l435 435l-435 435l28 28l435 -435l433 435z" />
    <glyph glyph-name="Oslash" unicode="&#xd8;" horiz-adv-x="1917" 
d="M1426 1403q149 -109 234.5 -275.5t85.5 -359.5q0 -160 -62 -306t-167.5 -251.5t-252 -168t-307.5 -62.5q-237 0 -432 130l-82 -118l-33 21l82 118q-149 109 -236 277t-87 360q0 160 62.5 306t168 251.5t251.5 168t306 62.5q240 0 438 -133l80 116l33 -21zM210 768
q0 -182 82 -341t223 -263l857 1226q-188 126 -415 126q-152 0 -290 -59t-238.5 -159t-159.5 -238.5t-59 -291.5zM957 20q153 0 291.5 59t238.5 159t159 238.5t59 291.5q0 183 -80.5 340.5t-221.5 261.5l-855 -1227q184 -123 409 -123z" />
    <glyph glyph-name="Ugrave" unicode="&#xd9;" horiz-adv-x="1500" 
d="M776 1677h-52l-220 371h67zM750 -20q-220 0 -376 156t-156 376v1024h41v-1024q0 -134 65 -247t178 -179t248 -66q203 0 347.5 144.5t144.5 347.5v1024h41v-1024q0 -145 -71.5 -267.5t-194 -193.5t-267.5 -71z" />
    <glyph glyph-name="Uacute" unicode="&#xda;" horiz-adv-x="1500" 
d="M724 1677l205 371h67l-220 -371h-52zM750 -20q-220 0 -376 156t-156 376v1024h41v-1024q0 -134 65 -247t178 -179t248 -66q203 0 347.5 144.5t144.5 347.5v1024h41v-1024q0 -145 -71.5 -267.5t-194 -193.5t-267.5 -71z" />
    <glyph glyph-name="Ucircumflex" unicode="&#xdb;" horiz-adv-x="1500" 
d="M586 1677h-61l197 371h51l200 -371h-64l-159 325zM750 -20q-220 0 -376 156t-156 376v1024h41v-1024q0 -134 65 -247t178 -179t248 -66q203 0 347.5 144.5t144.5 347.5v1024h41v-1024q0 -145 -71.5 -267.5t-194 -193.5t-267.5 -71z" />
    <glyph glyph-name="Udieresis" unicode="&#xdc;" horiz-adv-x="1500" 
d="M596 1741q-25 0 -43 17.5t-18 43.5q0 25 18 43.5t43 18.5t43.5 -18.5t18.5 -43.5q0 -26 -18.5 -43.5t-43.5 -17.5zM904 1741q-25 0 -43.5 17.5t-18.5 43.5q0 25 18.5 43.5t43.5 18.5t43 -18.5t18 -43.5q0 -26 -18 -43.5t-43 -17.5zM750 -20q-220 0 -376 156t-156 376
v1024h41v-1024q0 -134 65 -247t178 -179t248 -66q203 0 347.5 144.5t144.5 347.5v1024h41v-1024q0 -145 -71.5 -267.5t-194 -193.5t-267.5 -71z" />
    <glyph glyph-name="Yacute" unicode="&#xdd;" horiz-adv-x="1192" 
d="M842 2048l-220 -371h-51l205 371h66zM1101 1536h51l-532 -801h-3v-735h-41v735h-5l-530 801h49l506 -765z" />
    <glyph glyph-name="Thorn" unicode="&#xde;" horiz-adv-x="1241" 
d="M714 1331q168 0 287.5 -118t119.5 -286q0 -167 -120 -286t-287 -119h-432v-522h-41v1331v205h41v-205h432zM714 563q152 0 259 106.5t107 257.5t-107 257t-259 106h-432v-727h432z" />
    <glyph glyph-name="germandbls" unicode="&#xdf;" horiz-adv-x="1374" 
d="M852 760q141 -25 232 -133t91 -253q0 -163 -112.5 -268.5t-268.5 -105.5h-326v41h323q140 0 241.5 94.5t101.5 238.5q0 148 -103 250.5t-253 102.5h-153v41h66q149 0 252.5 106t103.5 260q0 156 -107 258.5t-272 102.5q-168 0 -277 -102t-109 -259v-1134h-41v1134
q0 174 121 288t304 114q184 0 303 -113t119 -286q0 -126 -65 -227t-171 -150z" />
    <glyph glyph-name="agrave" unicode="&#xe0;" horiz-adv-x="1428" 
d="M701 1165h-51l-220 371h67zM1334 20h74v-20q-31 -20 -74 -20q-81 0 -124 52t-43 150v123q-60 -148 -192.5 -236.5t-298.5 -88.5q-144 0 -266.5 71.5t-194.5 194t-72 266.5t72 266.5t194.5 194t266.5 71.5q165 0 298 -92.5t193 -242.5v315h41v-842q0 -76 33.5 -119
t92.5 -43zM676 20q203 0 347 144.5t144 347.5t-144 347.5t-347 144.5t-347.5 -144.5t-144.5 -347.5t144.5 -347.5t347.5 -144.5z" />
    <glyph glyph-name="aacute" unicode="&#xe1;" horiz-adv-x="1428" 
d="M922 1536l-221 -371h-51l205 371h67zM1334 20h74v-20q-31 -20 -74 -20q-81 0 -124 52t-43 150v123q-60 -148 -192.5 -236.5t-298.5 -88.5q-144 0 -266.5 71.5t-194.5 194t-72 266.5t72 266.5t194.5 194t266.5 71.5q165 0 298 -92.5t193 -242.5v315h41v-842
q0 -76 33.5 -119t92.5 -43zM676 20q203 0 347 144.5t144 347.5t-144 347.5t-347 144.5t-347.5 -144.5t-144.5 -347.5t144.5 -347.5t347.5 -144.5z" />
    <glyph glyph-name="acircumflex" unicode="&#xe2;" horiz-adv-x="1428" 
d="M676 1490l-164 -325h-61l197 371h51l200 -371h-64zM1334 20h74v-20q-31 -20 -74 -20q-81 0 -124 52t-43 150v123q-60 -148 -192.5 -236.5t-298.5 -88.5q-144 0 -266.5 71.5t-194.5 194t-72 266.5t72 266.5t194.5 194t266.5 71.5q165 0 298 -92.5t193 -242.5v315h41v-842
q0 -76 33.5 -119t92.5 -43zM676 20q203 0 347 144.5t144 347.5t-144 347.5t-347 144.5t-347.5 -144.5t-144.5 -347.5t144.5 -347.5t347.5 -144.5z" />
    <glyph glyph-name="atilde" unicode="&#xe3;" horiz-adv-x="1428" 
d="M522 1434q-61 0 -98 -46t-37 -123h-41q0 92 49.5 151t126.5 59q106 0 172 -103q51 -84 135 -84q61 0 100 46.5t39 119.5h41q0 -90 -50.5 -148.5t-129.5 -58.5q-106 0 -171 102q-48 85 -136 85zM1334 20h74v-20q-31 -20 -74 -20q-81 0 -124 52t-43 150v123
q-60 -148 -192.5 -236.5t-298.5 -88.5q-144 0 -266.5 71.5t-194.5 194t-72 266.5t72 266.5t194.5 194t266.5 71.5q165 0 298 -92.5t193 -242.5v315h41v-842q0 -76 33.5 -119t92.5 -43zM676 20q203 0 347 144.5t144 347.5t-144 347.5t-347 144.5t-347.5 -144.5t-144.5 -347.5
t144.5 -347.5t347.5 -144.5z" />
    <glyph glyph-name="adieresis" unicode="&#xe4;" horiz-adv-x="1428" 
d="M522 1229q-25 0 -43 17.5t-18 43.5q0 25 18 43.5t43 18.5t43.5 -18.5t18.5 -43.5q0 -26 -18.5 -43.5t-43.5 -17.5zM829 1229q-25 0 -43 17.5t-18 43.5q0 25 18 43.5t43 18.5t43.5 -18.5t18.5 -43.5q0 -26 -18.5 -43.5t-43.5 -17.5zM1334 20h74v-20q-31 -20 -74 -20
q-81 0 -124 52t-43 150v123q-60 -148 -192.5 -236.5t-298.5 -88.5q-144 0 -266.5 71.5t-194.5 194t-72 266.5t72 266.5t194.5 194t266.5 71.5q165 0 298 -92.5t193 -242.5v315h41v-842q0 -76 33.5 -119t92.5 -43zM676 20q203 0 347 144.5t144 347.5t-144 347.5t-347 144.5
t-347.5 -144.5t-144.5 -347.5t144.5 -347.5t347.5 -144.5z" />
    <glyph glyph-name="aring" unicode="&#xe5;" horiz-adv-x="1428" 
d="M676 1139q-73 0 -123.5 50.5t-50.5 121.5q0 73 50.5 123.5t123.5 50.5q71 0 121 -50.5t50 -123.5q0 -71 -50 -121.5t-121 -50.5zM676 1446q-58 0 -97 -38.5t-39 -96.5q0 -56 39 -94.5t97 -38.5q56 0 94.5 39t38.5 94q0 57 -38.5 96t-94.5 39zM1334 20h74v-20
q-31 -20 -74 -20q-81 0 -124 52t-43 150v123q-60 -148 -192.5 -236.5t-298.5 -88.5q-144 0 -266.5 71.5t-194.5 194t-72 266.5t72 266.5t194.5 194t266.5 71.5q165 0 298 -92.5t193 -242.5v315h41v-842q0 -76 33.5 -119t92.5 -43zM676 20q203 0 347 144.5t144 347.5
t-144 347.5t-347 144.5t-347.5 -144.5t-144.5 -347.5t144.5 -347.5t347.5 -144.5z" />
    <glyph glyph-name="ae" unicode="&#xe6;" horiz-adv-x="2114" 
d="M1981 522h-1021v-20q2 -132 68.5 -243t179 -175t244.5 -64q159 0 286.5 92.5t178.5 238.5h41q-52 -163 -191.5 -267t-314.5 -104q-154 0 -282.5 81t-194.5 215q-100 -131 -227.5 -213.5t-230.5 -82.5q-164 0 -269 88t-105 224q0 137 93.5 224.5t239.5 87.5h446v69
q0 144 -97.5 237.5t-245.5 93.5q-119 0 -224.5 -60.5t-147.5 -152.5l-38 13q35 104 150.5 172t259.5 68q155 0 260.5 -91t120.5 -236q62 146 195.5 236.5t296.5 90.5q140 0 258 -66t190 -182t81 -258v-16zM1452 1004q-190 0 -328 -125.5t-161 -315.5h977q-21 187 -160 314
t-328 127zM517 20q100 0 224 83t216 212q-38 89 -38 197q0 33 3 51h-446q-127 0 -209.5 -77t-82.5 -194q0 -119 93.5 -195.5t239.5 -76.5z" />
    <glyph glyph-name="ccedilla" unicode="&#xe7;" horiz-adv-x="1290" 
d="M676 20q149 0 273.5 81.5t182.5 215.5h40q-60 -148 -192.5 -241.5t-295.5 -95.5l-59 -136q116 25 195 -27.5t79 -154.5q0 -81 -55.5 -137.5t-136.5 -56.5q-59 0 -126.5 30t-104.5 72l31 26q31 -37 89.5 -62.5t110.5 -25.5q65 0 108 44t43 110q0 89 -71.5 128t-177.5 8
l-36 33l70 149q-136 9 -251 82.5t-182 193t-67 256.5q0 144 72 266.5t194.5 194t266.5 71.5q165 0 300.5 -93.5t195.5 -243.5h-40q-58 134 -182.5 215.5t-273.5 81.5q-133 0 -247 -64t-180.5 -178t-64.5 -250q-2 -136 64.5 -250t180.5 -178t247 -64z" />
    <glyph glyph-name="egrave" unicode="&#xe8;" horiz-adv-x="1338" 
d="M701 1185h-51l-220 371h67zM1206 522h-1022v-20q2 -132 68.5 -243t179 -175t244.5 -64q159 0 287 92.5t179 238.5h41q-52 -163 -192 -267t-315 -104q-144 0 -266.5 71.5t-194.5 194t-72 266.5t72 266.5t194.5 194t266.5 71.5q140 0 258.5 -66t190.5 -182t81 -258v-16z
M676 1004q-190 0 -328 -125.5t-161 -315.5h978q-21 187 -160.5 314t-328.5 127z" />
    <glyph glyph-name="eacute" unicode="&#xe9;" horiz-adv-x="1338" 
d="M922 1556l-221 -371h-51l205 371h67zM1206 522h-1022v-20q2 -132 68.5 -243t179 -175t244.5 -64q159 0 287 92.5t179 238.5h41q-52 -163 -192 -267t-315 -104q-144 0 -266.5 71.5t-194.5 194t-72 266.5t72 266.5t194.5 194t266.5 71.5q140 0 258.5 -66t190.5 -182
t81 -258v-16zM676 1004q-190 0 -328 -125.5t-161 -315.5h978q-21 187 -160.5 314t-328.5 127z" />
    <glyph glyph-name="ecircumflex" unicode="&#xea;" horiz-adv-x="1338" 
d="M676 1510l-164 -325h-61l197 371h51l200 -371h-64zM1206 522h-1022v-20q2 -132 68.5 -243t179 -175t244.5 -64q159 0 287 92.5t179 238.5h41q-52 -163 -192 -267t-315 -104q-144 0 -266.5 71.5t-194.5 194t-72 266.5t72 266.5t194.5 194t266.5 71.5q140 0 258.5 -66
t190.5 -182t81 -258v-16zM676 1004q-190 0 -328 -125.5t-161 -315.5h978q-21 187 -160.5 314t-328.5 127z" />
    <glyph glyph-name="edieresis" unicode="&#xeb;" horiz-adv-x="1338" 
d="M522 1249q-25 0 -43 17.5t-18 44.5q0 25 18 43t43 18t43.5 -18t18.5 -43q0 -26 -18.5 -44t-43.5 -18zM829 1249q-25 0 -43 17.5t-18 44.5q0 25 18 43t43 18t43.5 -18t18.5 -43q0 -26 -18.5 -44t-43.5 -18zM1206 522h-1022v-20q2 -132 68.5 -243t179 -175t244.5 -64
q159 0 287 92.5t179 238.5h41q-52 -163 -192 -267t-315 -104q-144 0 -266.5 71.5t-194.5 194t-72 266.5t72 266.5t194.5 194t266.5 71.5q140 0 258.5 -66t190.5 -182t81 -258v-16zM676 1004q-190 0 -328 -125.5t-161 -315.5h978q-21 187 -160.5 314t-328.5 127z" />
    <glyph glyph-name="igrave" unicode="&#xec;" horiz-adv-x="517" 
d="M284 1165h-51l-220 371h66zM238 0v1024h41v-1024h-41z" />
    <glyph glyph-name="iacute" unicode="&#xed;" horiz-adv-x="517" 
d="M233 1165l205 371h66l-220 -371h-51zM238 0v1024h41v-1024h-41z" />
    <glyph glyph-name="icircumflex" unicode="&#xee;" horiz-adv-x="517" 
d="M95 1165h-62l197 371h52l199 -371h-64l-158 325zM238 0v1024h41v-1024h-41z" />
    <glyph glyph-name="idieresis" unicode="&#xef;" horiz-adv-x="517" 
d="M105 1229q-25 0 -43 17.5t-18 43.5q0 25 18 43.5t43 18.5t43 -18.5t18 -43.5q0 -26 -18 -43.5t-43 -17.5zM412 1229q-25 0 -43 17.5t-18 43.5q0 25 18 43.5t43 18.5t43.5 -18.5t18.5 -43.5q0 -26 -18.5 -43.5t-43.5 -17.5zM238 0v1024h41v-1024h-41z" />
    <glyph glyph-name="eth" unicode="&#xf0;" horiz-adv-x="1346" 
d="M860 1382q161 -143 254.5 -372t93.5 -498q0 -108 -42.5 -206t-114 -169.5t-169.5 -114t-206 -42.5q-144 0 -266.5 71.5t-194.5 194t-72 266.5t72 266.5t194.5 194t266.5 71.5q149 0 274 -77t194 -204q-34 184 -113.5 335.5t-195.5 253.5l-128 -164l-31 25l128 164
q-180 144 -394 144v41q224 0 419 -154l103 133l31 -28zM676 20q203 0 347 144.5t144 347.5t-144 347.5t-347 144.5t-347.5 -144.5t-144.5 -347.5t144.5 -347.5t347.5 -144.5z" />
    <glyph glyph-name="ntilde" unicode="&#xf1;" horiz-adv-x="1185" 
d="M451 1434q-62 0 -99 -46.5t-37 -122.5h-41q0 92 50 151t127 59q105 0 171 -103q51 -84 136 -84q61 0 99.5 46.5t38.5 119.5h41q0 -90 -50 -148.5t-129 -58.5q-107 0 -172 102q-48 85 -135 85zM604 1044q157 0 266.5 -110t109.5 -266v-668h-40v668q0 140 -98 239t-238 99
t-239 -99t-99 -239v-668h-41v1024h41v-189q46 95 137 152t201 57z" />
    <glyph glyph-name="ograve" unicode="&#xf2;" horiz-adv-x="1351" 
d="M701 1165h-51l-220 371h67zM676 -20q-144 0 -266.5 71.5t-194.5 194t-72 266.5t72 266.5t194.5 194t266.5 71.5q108 0 206 -42.5t169.5 -114t114 -169.5t42.5 -206t-42.5 -206t-114 -169.5t-169.5 -114t-206 -42.5zM676 20q203 0 347 144.5t144 347.5t-144 347.5
t-347 144.5t-347.5 -144.5t-144.5 -347.5t144.5 -347.5t347.5 -144.5z" />
    <glyph glyph-name="oacute" unicode="&#xf3;" horiz-adv-x="1351" 
d="M650 1165l205 371h67l-221 -371h-51zM676 -20q-144 0 -266.5 71.5t-194.5 194t-72 266.5t72 266.5t194.5 194t266.5 71.5q108 0 206 -42.5t169.5 -114t114 -169.5t42.5 -206t-42.5 -206t-114 -169.5t-169.5 -114t-206 -42.5zM676 20q203 0 347 144.5t144 347.5
t-144 347.5t-347 144.5t-347.5 -144.5t-144.5 -347.5t144.5 -347.5t347.5 -144.5z" />
    <glyph glyph-name="ocircumflex" unicode="&#xf4;" horiz-adv-x="1351" 
d="M512 1165h-61l197 371h51l200 -371h-64l-159 325zM676 -20q-144 0 -266.5 71.5t-194.5 194t-72 266.5t72 266.5t194.5 194t266.5 71.5q108 0 206 -42.5t169.5 -114t114 -169.5t42.5 -206t-42.5 -206t-114 -169.5t-169.5 -114t-206 -42.5zM676 20q203 0 347 144.5
t144 347.5t-144 347.5t-347 144.5t-347.5 -144.5t-144.5 -347.5t144.5 -347.5t347.5 -144.5z" />
    <glyph glyph-name="otilde" unicode="&#xf5;" horiz-adv-x="1351" 
d="M829 1247q-106 0 -171 102q-48 85 -136 85q-61 0 -98 -46t-37 -123h-41q0 92 49.5 151t126.5 59q106 0 172 -103q51 -84 135 -84q61 0 100 46.5t39 119.5h41q0 -90 -50.5 -148.5t-129.5 -58.5zM676 -20q-144 0 -266.5 71.5t-194.5 194t-72 266.5t72 266.5t194.5 194
t266.5 71.5q108 0 206 -42.5t169.5 -114t114 -169.5t42.5 -206t-42.5 -206t-114 -169.5t-169.5 -114t-206 -42.5zM676 20q203 0 347 144.5t144 347.5t-144 347.5t-347 144.5t-347.5 -144.5t-144.5 -347.5t144.5 -347.5t347.5 -144.5z" />
    <glyph glyph-name="odieresis" unicode="&#xf6;" horiz-adv-x="1351" 
d="M522 1229q-25 0 -43 17.5t-18 43.5q0 25 18 43.5t43 18.5t43.5 -18.5t18.5 -43.5q0 -26 -18.5 -43.5t-43.5 -17.5zM829 1229q-25 0 -43 17.5t-18 43.5q0 25 18 43.5t43 18.5t43.5 -18.5t18.5 -43.5q0 -26 -18.5 -43.5t-43.5 -17.5zM676 -20q-144 0 -266.5 71.5
t-194.5 194t-72 266.5t72 266.5t194.5 194t266.5 71.5q108 0 206 -42.5t169.5 -114t114 -169.5t42.5 -206t-42.5 -206t-114 -169.5t-169.5 -114t-206 -42.5zM676 20q203 0 347 144.5t144 347.5t-144 347.5t-347 144.5t-347.5 -144.5t-144.5 -347.5t144.5 -347.5
t347.5 -144.5z" />
    <glyph glyph-name="divide" unicode="&#xf7;" horiz-adv-x="1584" 
d="M794 850q-25 0 -43.5 17.5t-18.5 43.5q0 25 18.5 43.5t43.5 18.5q24 0 42.5 -18.5t18.5 -43.5q0 -26 -18.5 -43.5t-42.5 -17.5zM179 543v41h1229v-41h-1229zM794 154q-25 0 -43.5 17.5t-18.5 43.5q0 25 18.5 43t43.5 18q24 0 42.5 -18.5t18.5 -42.5q0 -26 -18.5 -43.5
t-42.5 -17.5z" />
    <glyph glyph-name="oslash" unicode="&#xf8;" horiz-adv-x="1351" 
d="M993 937q100 -74 157.5 -185.5t57.5 -239.5q0 -108 -42.5 -206t-114 -169.5t-169.5 -114t-206 -42.5q-158 0 -289 87l-134 -192l-28 17l133 192q-100 74 -157.5 186.5t-57.5 241.5q0 144 72 266.5t194.5 194t266.5 71.5q157 0 292 -87l130 187l28 -18zM184 512
q0 -119 52.5 -222t144.5 -172l564 806q-121 80 -269 80q-203 0 -347.5 -144.5t-144.5 -347.5zM676 20q203 0 347 144.5t144 347.5q0 118 -52 220.5t-142 171.5l-563 -804q121 -80 266 -80z" />
    <glyph glyph-name="ugrave" unicode="&#xf9;" horiz-adv-x="1100" 
d="M573 1165h-51l-220 371h67zM548 -20q-148 0 -253.5 116.5t-105.5 279.5v648h41v-648q0 -147 93.5 -251.5t224.5 -104.5q133 0 226.5 104t93.5 252v648h41v-648q0 -164 -105.5 -280t-255.5 -116z" />
    <glyph glyph-name="uacute" unicode="&#xfa;" horiz-adv-x="1100" 
d="M522 1165l205 371h67l-221 -371h-51zM548 -20q-148 0 -253.5 116.5t-105.5 279.5v648h41v-648q0 -147 93.5 -251.5t224.5 -104.5q133 0 226.5 104t93.5 252v648h41v-648q0 -164 -105.5 -280t-255.5 -116z" />
    <glyph glyph-name="ucircumflex" unicode="&#xfb;" horiz-adv-x="1100" 
d="M384 1165h-61l197 371h51l200 -371h-64l-159 325zM548 -20q-148 0 -253.5 116.5t-105.5 279.5v648h41v-648q0 -147 93.5 -251.5t224.5 -104.5q133 0 226.5 104t93.5 252v648h41v-648q0 -164 -105.5 -280t-255.5 -116z" />
    <glyph glyph-name="udieresis" unicode="&#xfc;" horiz-adv-x="1100" 
d="M394 1229q-25 0 -43 17.5t-18 43.5q0 25 18 43.5t43 18.5t43.5 -18.5t18.5 -43.5q0 -26 -18.5 -43.5t-43.5 -17.5zM701 1229q-25 0 -43 17.5t-18 43.5q0 25 18 43.5t43 18.5t43.5 -18.5t18.5 -43.5q0 -26 -18.5 -43.5t-43.5 -17.5zM548 -20q-148 0 -253.5 116.5
t-105.5 279.5v648h41v-648q0 -147 93.5 -251.5t224.5 -104.5q133 0 226.5 104t93.5 252v648h41v-648q0 -164 -105.5 -280t-255.5 -116z" />
    <glyph glyph-name="yacute" unicode="&#xfd;" horiz-adv-x="988" 
d="M742 1536l-220 -371h-51l205 371h66zM883 1024h44l-656 -1638h-43l246 614l-413 1024h47l386 -968h3z" />
    <glyph glyph-name="thorn" unicode="&#xfe;" horiz-adv-x="1448" 
d="M773 1044q144 0 266.5 -71.5t194.5 -194t72 -266.5t-72 -266.5t-194.5 -194t-266.5 -71.5q-165 0 -298 90.5t-193 236.5v-921h-41v2314h41v-983q60 146 193 236.5t298 90.5zM773 20q203 0 347.5 144.5t144.5 347.5t-144.5 347.5t-347.5 144.5q-135 0 -248 -66t-178 -179
t-65 -247t65 -247t178 -179t248 -66z" />
    <glyph glyph-name="ydieresis" unicode="&#xff;" horiz-adv-x="988" 
d="M343 1229q-25 0 -43 17.5t-18 43.5q0 25 18 43.5t43 18.5t43 -18.5t18 -43.5q0 -26 -18 -43.5t-43 -17.5zM650 1229q-25 0 -43 17.5t-18 43.5q0 25 18 43.5t43 18.5t43.5 -18.5t18.5 -43.5q0 -26 -18.5 -43.5t-43.5 -17.5zM883 1024h44l-656 -1638h-43l246 614l-413 1024
h47l386 -968h3z" />
    <glyph glyph-name="Amacron" unicode="&#x100;" horiz-adv-x="1233" 
d="M873 1823v-41h-512v41h512zM1147 0l-143 397h-774l-143 -397h-49l556 1536h46l553 -1536h-46zM243 438h748l-374 1042z" />
    <glyph glyph-name="amacron" unicode="&#x101;" horiz-adv-x="1428" 
d="M932 1311v-41h-512v41h512zM1334 20h74v-20q-31 -20 -74 -20q-81 0 -124 52t-43 150v123q-60 -148 -192.5 -236.5t-298.5 -88.5q-144 0 -266.5 71.5t-194.5 194t-72 266.5t72 266.5t194.5 194t266.5 71.5q165 0 298 -92.5t193 -242.5v315h41v-842q0 -76 33.5 -119
t92.5 -43zM676 20q203 0 347 144.5t144 347.5t-144 347.5t-347 144.5t-347.5 -144.5t-144.5 -347.5t144.5 -347.5t347.5 -144.5z" />
    <glyph glyph-name="Abreve" unicode="&#x102;" horiz-adv-x="1233" 
d="M617 1690q-130 0 -220 81t-90 198h41q0 -100 78 -169t191 -69q115 0 193 69t78 169h41q0 -117 -90.5 -198t-221.5 -81zM1147 0l-143 397h-774l-143 -397h-49l556 1536h46l553 -1536h-46zM243 438h748l-374 1042z" />
    <glyph glyph-name="abreve" unicode="&#x103;" horiz-adv-x="1428" 
d="M676 1178q-130 0 -220 81t-90 198h41q0 -100 78 -169t191 -69q115 0 193 69t78 169h41q0 -117 -90.5 -198t-221.5 -81zM1334 20h74v-20q-31 -20 -74 -20q-81 0 -124 52t-43 150v123q-60 -148 -192.5 -236.5t-298.5 -88.5q-144 0 -266.5 71.5t-194.5 194t-72 266.5
t72 266.5t194.5 194t266.5 71.5q165 0 298 -92.5t193 -242.5v315h41v-842q0 -76 33.5 -119t92.5 -43zM676 20q203 0 347 144.5t144 347.5t-144 347.5t-347 144.5t-347.5 -144.5t-144.5 -347.5t144.5 -347.5t347.5 -144.5z" />
    <glyph glyph-name="Aogonek" unicode="&#x104;" horiz-adv-x="1233" 
d="M1344 -415l18 -30q-48 -46 -94 -66.5t-111 -20.5q-92 0 -140.5 54t-48.5 148q0 49 13 93t45 90.5t52.5 71.5t68.5 78l-143 394h-774l-143 -397h-49l556 1536h46l553 -1536q-46 -47 -66.5 -70t-56 -70.5t-51 -93.5t-15.5 -96q0 -74 39.5 -118t113.5 -44q59 0 101 18.5
t86 58.5zM243 438h748l-374 1042z" />
    <glyph glyph-name="aogonek" unicode="&#x105;" horiz-adv-x="1428" 
d="M1559 -415l18 -30q-48 -46 -94 -66.5t-111 -20.5q-92 0 -140.5 54t-48.5 148q0 60 25 119t53 96t80 95h-7q-81 0 -124 52t-43 150v123q-60 -148 -192.5 -236.5t-298.5 -88.5q-144 0 -266.5 71.5t-194.5 194t-72 266.5t72 266.5t194.5 194t266.5 71.5q165 0 298 -92.5
t193 -242.5v315h41v-842q0 -76 33.5 -119t92.5 -43h74v-20q-46 -47 -66.5 -70t-56 -70.5t-51 -93.5t-15.5 -96q0 -74 39.5 -118t113.5 -44q59 0 101 18.5t86 58.5zM676 20q203 0 347 144.5t144 347.5t-144 347.5t-347 144.5t-347.5 -144.5t-144.5 -347.5t144.5 -347.5
t347.5 -144.5z" />
    <glyph glyph-name="Cacute" unicode="&#x106;" horiz-adv-x="1761" 
d="M932 1677l205 371h66l-220 -371h-51zM957 -20q-160 0 -306 62.5t-251.5 168t-168 251.5t-62.5 306t62.5 306t168 251.5t251.5 168t306 62.5q215 0 396 -105.5t285 -283.5l-35 -20q-98 168 -270 268.5t-376 100.5q-152 0 -290 -59t-238.5 -159t-159.5 -238.5t-59 -291.5
t59 -291.5t159.5 -238.5t238.5 -159t290 -59q204 0 376 100.5t270 268.5l35 -20q-104 -178 -285 -283.5t-396 -105.5z" />
    <glyph glyph-name="cacute" unicode="&#x107;" horiz-adv-x="1290" 
d="M650 1165l205 371h67l-221 -371h-51zM676 -20q-144 0 -266.5 71.5t-194.5 194t-72 266.5t72 266.5t194.5 194t266.5 71.5q165 0 300.5 -93.5t195.5 -243.5h-40q-58 134 -182.5 215.5t-273.5 81.5q-133 0 -247 -64t-180.5 -178t-64.5 -250q-2 -136 64.5 -250t180.5 -178
t247 -64q149 0 273.5 81.5t182.5 215.5h40q-60 -150 -195.5 -243.5t-300.5 -93.5z" />
    <glyph glyph-name="Cdotaccent" unicode="&#x10a;" horiz-adv-x="1761" 
d="M957 1741q-25 0 -43 17.5t-18 43.5q0 25 18 43.5t43 18.5q24 0 43 -19t19 -43q0 -26 -19 -43.5t-43 -17.5zM957 -20q-160 0 -306 62.5t-251.5 168t-168 251.5t-62.5 306t62.5 306t168 251.5t251.5 168t306 62.5q215 0 396 -105.5t285 -283.5l-35 -20q-98 168 -270 268.5
t-376 100.5q-152 0 -290 -59t-238.5 -159t-159.5 -238.5t-59 -291.5t59 -291.5t159.5 -238.5t238.5 -159t290 -59q204 0 376 100.5t270 268.5l35 -20q-104 -178 -285 -283.5t-396 -105.5z" />
    <glyph glyph-name="cdotaccent" unicode="&#x10b;" horiz-adv-x="1290" 
d="M676 1229q-25 0 -43.5 17.5t-18.5 43.5q0 25 18.5 43.5t43.5 18.5q24 0 42.5 -19t18.5 -43q0 -26 -18.5 -43.5t-42.5 -17.5zM676 -20q-144 0 -266.5 71.5t-194.5 194t-72 266.5t72 266.5t194.5 194t266.5 71.5q165 0 300.5 -93.5t195.5 -243.5h-40q-58 134 -182.5 215.5
t-273.5 81.5q-133 0 -247 -64t-180.5 -178t-64.5 -250q-2 -136 64.5 -250t180.5 -178t247 -64q149 0 273.5 81.5t182.5 215.5h40q-60 -150 -195.5 -243.5t-300.5 -93.5z" />
    <glyph glyph-name="Ccaron" unicode="&#x10c;" horiz-adv-x="1761" 
d="M929 1677l-197 371h62l163 -323l159 323h64l-200 -371h-51zM957 -20q-160 0 -306 62.5t-251.5 168t-168 251.5t-62.5 306t62.5 306t168 251.5t251.5 168t306 62.5q215 0 396 -105.5t285 -283.5l-35 -20q-98 168 -270 268.5t-376 100.5q-152 0 -290 -59t-238.5 -159
t-159.5 -238.5t-59 -291.5t59 -291.5t159.5 -238.5t238.5 -159t290 -59q204 0 376 100.5t270 268.5l35 -20q-104 -178 -285 -283.5t-396 -105.5z" />
    <glyph glyph-name="ccaron" unicode="&#x10d;" horiz-adv-x="1290" 
d="M648 1165l-197 371h61l164 -323l159 323h64l-200 -371h-51zM676 -20q-144 0 -266.5 71.5t-194.5 194t-72 266.5t72 266.5t194.5 194t266.5 71.5q165 0 300.5 -93.5t195.5 -243.5h-40q-58 134 -182.5 215.5t-273.5 81.5q-133 0 -247 -64t-180.5 -178t-64.5 -250
q-2 -136 64.5 -250t180.5 -178t247 -64q149 0 273.5 81.5t182.5 215.5h40q-60 -150 -195.5 -243.5t-300.5 -93.5z" />
    <glyph glyph-name="Dcaron" unicode="&#x10e;" horiz-adv-x="1520" 
d="M556 1677l-198 371h62l164 -323l158 323h64l-199 -371h-51zM225 0v1536h359q157 0 299 -60.5t245 -163.5t163.5 -245t60.5 -299t-60.5 -299t-163.5 -245t-245 -163.5t-299 -60.5h-359zM266 41h318q199 0 366 97t264 264t97 366t-97 366t-264 264t-366 97h-318v-1454z" />
    <glyph glyph-name="dcaron" unicode="&#x10f;" horiz-adv-x="1605" 
d="M1167 714v1170h41v-1884h-41v310q-62 -148 -195 -239t-296 -91q-144 0 -266.5 71.5t-194.5 194t-72 266.5t72 266.5t194.5 194t266.5 71.5q163 0 296 -91t195 -239zM1541 1884h46l-192 -619h-43zM676 20q203 0 347 144.5t144 347.5t-144 347.5t-347 144.5t-347.5 -144.5
t-144.5 -347.5t144.5 -347.5t347.5 -144.5z" />
    <glyph glyph-name="Dcroat" unicode="&#x110;" horiz-adv-x="1520" 
d="M584 1536q157 0 299 -60.5t245 -163.5t163.5 -245t60.5 -299t-60.5 -299t-163.5 -245t-245 -163.5t-299 -60.5h-359v748h-166v40h166v748h359zM584 41q199 0 366 97t264 264t97 366t-97 366t-264 264t-366 97h-318v-707h305v-40h-305v-707h318z" />
    <glyph glyph-name="dcroat" unicode="&#x111;" horiz-adv-x="1433" 
d="M1372 1449v-41h-164v-1408h-41v310q-62 -148 -195 -239t-296 -91q-144 0 -266.5 71.5t-194.5 194t-72 266.5t72 266.5t194.5 194t266.5 71.5q163 0 296 -91t195 -239v694h-307v41h307v435h41v-435h164zM676 20q203 0 347 144.5t144 347.5t-144 347.5t-347 144.5
t-347.5 -144.5t-144.5 -347.5t144.5 -347.5t347.5 -144.5z" />
    <glyph glyph-name="Emacron" unicode="&#x112;" horiz-adv-x="1190" 
d="M883 1823v-41h-512v41h512zM1016 1495h-737v-707h650v-40h-650v-707h737v-41h-778v1536h778v-41z" />
    <glyph glyph-name="emacron" unicode="&#x113;" horiz-adv-x="1338" 
d="M932 1331v-41h-512v41h512zM1206 522h-1022v-20q2 -132 68.5 -243t179 -175t244.5 -64q159 0 287 92.5t179 238.5h41q-52 -163 -192 -267t-315 -104q-144 0 -266.5 71.5t-194.5 194t-72 266.5t72 266.5t194.5 194t266.5 71.5q140 0 258.5 -66t190.5 -182t81 -258v-16z
M676 1004q-190 0 -328 -125.5t-161 -315.5h978q-21 187 -160.5 314t-328.5 127z" />
    <glyph glyph-name="Edotaccent" unicode="&#x116;" horiz-adv-x="1190" 
d="M627 1741q-25 0 -43 17.5t-18 43.5q0 25 18 43.5t43 18.5q24 0 43 -19t19 -43q0 -26 -19 -43.5t-43 -17.5zM1016 1495h-737v-707h650v-40h-650v-707h737v-41h-778v1536h778v-41z" />
    <glyph glyph-name="edotaccent" unicode="&#x117;" horiz-adv-x="1338" 
d="M676 1249q-25 0 -43.5 18t-18.5 44q0 25 18.5 43t43.5 18q24 0 42.5 -18.5t18.5 -42.5q0 -26 -18.5 -44t-42.5 -18zM1206 522h-1022v-20q2 -132 68.5 -243t179 -175t244.5 -64q159 0 287 92.5t179 238.5h41q-52 -163 -192 -267t-315 -104q-144 0 -266.5 71.5t-194.5 194
t-72 266.5t72 266.5t194.5 194t266.5 71.5q140 0 258.5 -66t190.5 -182t81 -258v-16zM676 1004q-190 0 -328 -125.5t-161 -315.5h978q-21 187 -160.5 314t-328.5 127z" />
    <glyph glyph-name="Eogonek" unicode="&#x118;" horiz-adv-x="1190" 
d="M1167 -415l18 -30q-48 -46 -94 -66.5t-111 -20.5q-92 0 -140.5 54t-48.5 148q0 40 11.5 79.5t23.5 66t42.5 66.5t45 57t54.5 61h-730v1536h778v-41h-737v-707h650v-40h-650v-707h737v-41q-46 -47 -66.5 -70t-56 -70.5t-51 -93.5t-15.5 -96q0 -74 39.5 -118t113.5 -44
q59 0 101 18.5t86 58.5z" />
    <glyph glyph-name="eogonek" unicode="&#x119;" horiz-adv-x="1338" 
d="M1221 -256l18 -31q-48 -46 -94 -66.5t-111 -20.5q-92 0 -140.5 54t-48.5 148q0 111 77 213q-119 -61 -246 -61q-144 0 -266.5 71.5t-194.5 194t-72 266.5t72 266.5t194.5 194t266.5 71.5q140 0 258.5 -66t190.5 -182t81 -258v-16h-1022v-20q2 -132 68.5 -243t179 -175
t244.5 -64q159 0 287 92.5t179 238.5h41q-48 -147 -162 -241q-65 -73 -102.5 -139t-37.5 -143q0 -74 39.5 -117.5t113.5 -43.5q59 0 101 18.5t86 58.5zM676 1004q-190 0 -328 -125.5t-161 -315.5h978q-21 187 -160.5 314t-328.5 127z" />
    <glyph glyph-name="Ecaron" unicode="&#x11a;" horiz-adv-x="1190" 
d="M650 1677h-51l-197 371h61l164 -323l159 323h64zM1016 1495h-737v-707h650v-40h-650v-707h737v-41h-778v1536h778v-41z" />
    <glyph glyph-name="ecaron" unicode="&#x11b;" horiz-adv-x="1338" 
d="M699 1185h-51l-197 371h61l164 -322l159 322h64zM1206 522h-1022v-20q2 -132 68.5 -243t179 -175t244.5 -64q159 0 287 92.5t179 238.5h41q-52 -163 -192 -267t-315 -104q-144 0 -266.5 71.5t-194.5 194t-72 266.5t72 266.5t194.5 194t266.5 71.5q140 0 258.5 -66
t190.5 -182t81 -258v-16zM676 1004q-190 0 -328 -125.5t-161 -315.5h978q-21 187 -160.5 314t-328.5 127z" />
    <glyph glyph-name="Gbreve" unicode="&#x11e;" horiz-adv-x="1917" 
d="M957 1690q-130 0 -219.5 81t-89.5 198h41q0 -100 77.5 -169t190.5 -69q115 0 193.5 69t78.5 169h41q0 -117 -91 -198t-222 -81zM957 781h789v-13q0 -160 -62 -306t-167.5 -251.5t-252 -168t-307.5 -62.5q-160 0 -306 62.5t-251.5 168t-168 251.5t-62.5 306t62.5 306
t168 251.5t251.5 168t306 62.5q215 0 396 -105.5t285 -283.5l-35 -20q-98 168 -270 268.5t-376 100.5q-152 0 -290 -59t-238.5 -159t-159.5 -238.5t-59 -291.5t59 -291.5t159.5 -238.5t238.5 -159t290 -59q149 0 285 56.5t235.5 152.5t160.5 229.5t67 281.5h-748v41z" />
    <glyph glyph-name="gbreve" unicode="&#x11f;" horiz-adv-x="1433" 
d="M676 1178q-130 0 -220 81t-90 198h41q0 -100 78 -169t191 -69q115 0 193 69t78 169h41q0 -117 -90.5 -198t-221.5 -81zM1167 1024h41v-1106q0 -108 -42.5 -206t-114 -169.5t-169.5 -114t-206 -42.5q-146 0 -272 75.5t-197 205.5l36 18q67 -121 183 -189.5t250 -68.5
q203 0 347 144t144 347v392q-62 -148 -195 -239t-296 -91q-144 0 -266.5 71.5t-194.5 194t-72 266.5t72 267t194.5 194t266.5 71q163 0 296 -90.5t195 -236.5v307zM676 20q203 0 347 144.5t144 347.5t-144 347.5t-347 144.5t-347.5 -144.5t-144.5 -347.5t144.5 -347.5
t347.5 -144.5z" />
    <glyph glyph-name="Gdotaccent" unicode="&#x120;" horiz-adv-x="1917" 
d="M957 1741q-25 0 -43 17.5t-18 43.5q0 25 18 43.5t43 18.5q24 0 43 -19t19 -43q0 -26 -19 -43.5t-43 -17.5zM957 781h789v-13q0 -160 -62 -306t-167.5 -251.5t-252 -168t-307.5 -62.5q-160 0 -306 62.5t-251.5 168t-168 251.5t-62.5 306t62.5 306t168 251.5t251.5 168
t306 62.5q215 0 396 -105.5t285 -283.5l-35 -20q-98 168 -270 268.5t-376 100.5q-152 0 -290 -59t-238.5 -159t-159.5 -238.5t-59 -291.5t59 -291.5t159.5 -238.5t238.5 -159t290 -59q149 0 285 56.5t235.5 152.5t160.5 229.5t67 281.5h-748v41z" />
    <glyph glyph-name="gdotaccent" unicode="&#x121;" horiz-adv-x="1433" 
d="M676 1229q-25 0 -43.5 17.5t-18.5 43.5q0 25 18.5 43.5t43.5 18.5q24 0 42.5 -19t18.5 -43q0 -26 -18.5 -43.5t-42.5 -17.5zM1167 1024h41v-1106q0 -108 -42.5 -206t-114 -169.5t-169.5 -114t-206 -42.5q-146 0 -272 75.5t-197 205.5l36 18q67 -121 183 -189.5t250 -68.5
q203 0 347 144t144 347v392q-62 -148 -195 -239t-296 -91q-144 0 -266.5 71.5t-194.5 194t-72 266.5t72 267t194.5 194t266.5 71q163 0 296 -90.5t195 -236.5v307zM676 20q203 0 347 144.5t144 347.5t-144 347.5t-347 144.5t-347.5 -144.5t-144.5 -347.5t144.5 -347.5
t347.5 -144.5z" />
    <glyph glyph-name="Gcommaaccent" unicode="&#x122;" horiz-adv-x="1917" 
d="M957 781h789v-13q0 -160 -62 -306t-167.5 -251.5t-252 -168t-307.5 -62.5q-160 0 -306 62.5t-251.5 168t-168 251.5t-62.5 306t62.5 306t168 251.5t251.5 168t306 62.5q215 0 396 -105.5t285 -283.5l-35 -20q-98 168 -270 268.5t-376 100.5q-152 0 -290 -59t-238.5 -159
t-159.5 -238.5t-59 -291.5t59 -291.5t159.5 -238.5t238.5 -159t290 -59q149 0 285 56.5t235.5 152.5t160.5 229.5t67 281.5h-748v41zM765 -512l169 389h46l-168 -389h-47z" />
    <glyph glyph-name="gcommaaccent" unicode="&#x123;" horiz-adv-x="1433" 
d="M870 1554l-169 -389h-46l169 389h46zM1167 1024h41v-1106q0 -108 -42.5 -206t-114 -169.5t-169.5 -114t-206 -42.5q-146 0 -272 75.5t-197 205.5l36 18q67 -121 183 -189.5t250 -68.5q203 0 347 144t144 347v392q-62 -148 -195 -239t-296 -91q-144 0 -266.5 71.5
t-194.5 194t-72 266.5t72 267t194.5 194t266.5 71q163 0 296 -90.5t195 -236.5v307zM676 20q203 0 347 144.5t144 347.5t-144 347.5t-347 144.5t-347.5 -144.5t-144.5 -347.5t144.5 -347.5t347.5 -144.5z" />
    <glyph glyph-name="Hbar" unicode="&#x126;" horiz-adv-x="1536" 
d="M1472 1211v-41h-161v-1170h-41v748h-1004v-748h-41v1170h-161v41h161v325h41v-325h1004v325h41v-325h161zM1270 788v382h-1004v-382h1004z" />
    <glyph glyph-name="hbar" unicode="&#x127;" horiz-adv-x="1149" 
d="M586 1044q148 0 253.5 -110.5t105.5 -265.5v-668h-41v668q0 140 -93.5 239t-226.5 99q-131 0 -224.5 -99t-93.5 -239v-668h-41v1408h-158v41h158v435h41v-435h313v-41h-313v-571q45 94 130.5 150.5t189.5 56.5z" />
    <glyph glyph-name="Imacron" unicode="&#x12a;" horiz-adv-x="514" 
d="M3 1782v41h512v-41h-512zM238 0v1536h41v-1536h-41z" />
    <glyph glyph-name="imacron" unicode="&#x12b;" horiz-adv-x="517" 
d="M3 1270v41h512v-41h-512zM238 0v1024h41v-1024h-41z" />
    <glyph glyph-name="Iogonek" unicode="&#x12e;" horiz-adv-x="514" 
d="M430 -415l18 -30q-48 -46 -94 -66.5t-111 -20.5q-92 0 -140.5 54t-48.5 148q0 61 26 121.5t56 99t83 98.5q13 14 19 21v1526h41v-1536q-46 -47 -66.5 -70t-56 -70.5t-51 -93.5t-15.5 -96q0 -74 39.5 -118t113.5 -44q59 0 101 18.5t86 58.5z" />
    <glyph glyph-name="iogonek" unicode="&#x12f;" horiz-adv-x="517" 
d="M259 1229q-25 0 -43.5 17.5t-18.5 43.5q0 25 18.5 43.5t43.5 18.5q23 0 42 -19t19 -43q0 -26 -18.5 -43.5t-42.5 -17.5zM430 -415l18 -30q-48 -46 -94 -66.5t-111 -20.5q-92 0 -140.5 54t-48.5 148q0 61 26 121.5t56 99t83 98.5q13 14 19 21v1014h41v-1024
q-46 -47 -66.5 -70t-56 -70.5t-51 -93.5t-15.5 -96q0 -74 39.5 -118t113.5 -44q59 0 101 18.5t86 58.5z" />
    <glyph glyph-name="Idotaccent" unicode="&#x130;" horiz-adv-x="514" 
d="M259 1741q-25 0 -43.5 17.5t-18.5 43.5q0 25 18.5 43.5t43.5 18.5q23 0 42 -19t19 -43q0 -26 -18.5 -43.5t-42.5 -17.5zM238 0v1536h41v-1536h-41z" />
    <glyph glyph-name="dotlessi" unicode="&#x131;" horiz-adv-x="517" 
d="M238 0v1024h41v-1024h-41z" />
    <glyph glyph-name="Kcommaaccent" unicode="&#x136;" horiz-adv-x="1141" 
d="M394 829l748 -829h-59l-730 809h-87v-809h-41v1536h41v-686h90l706 686h59zM402 -512l169 389h46l-169 -389h-46z" />
    <glyph glyph-name="kcommaaccent" unicode="&#x137;" horiz-adv-x="980" 
d="M241 3v1881h41v-1881h-41zM881 0l-569 573l523 451h64l-525 -451l566 -573h-59zM351 -512h-46l169 389h46z" />
    <glyph glyph-name="Lacute" unicode="&#x139;" horiz-adv-x="921" 
d="M492 2048l-221 -371h-51l205 371h67zM266 41h615v-41h-656v1536h41v-1495z" />
    <glyph glyph-name="lacute" unicode="&#x13a;" horiz-adv-x="491" 
d="M220 2025l205 371h67l-221 -371h-51zM225 0v1884h41v-1884h-41z" />
    <glyph glyph-name="Lcommaaccent" unicode="&#x13b;" horiz-adv-x="921" 
d="M266 41h615v-41h-656v1536h41v-1495zM361 -512l169 389h46l-169 -389h-46z" />
    <glyph glyph-name="lcommaaccent" unicode="&#x13c;" horiz-adv-x="491" 
d="M225 0v1884h41v-1884h-41zM100 -512h-46l169 389h46z" />
    <glyph glyph-name="Lcaron" unicode="&#x13d;" horiz-adv-x="921" 
d="M266 41h615v-41h-656v1536h41v-1495zM840 1536l-192 -620h-44l190 620h46z" />
    <glyph glyph-name="lcaron" unicode="&#x13e;" horiz-adv-x="691" 
d="M225 0v1884h41v-1884h-41zM481 1265h-43l189 619h46z" />
    <glyph glyph-name="ldot" unicode="&#x140;" horiz-adv-x="491" 
d="M225 0v1884h41v-1884h-41zM389 676q-25 0 -43 17.5t-18 43.5q0 25 18 43.5t43 18.5q24 0 43 -19t19 -43q0 -26 -19 -43.5t-43 -17.5z" />
    <glyph glyph-name="Lslash" unicode="&#x141;" horiz-adv-x="921" 
d="M266 41h615v-41h-656v717l-146 -159l-30 23l176 195v760h41v-714l144 158l30 -28l-174 -189v-722z" />
    <glyph glyph-name="lslash" unicode="&#x142;" horiz-adv-x="491" 
d="M440 1134l-174 -189v-945h-41v899l-146 -159l-30 23l176 194v927h41v-880l144 158z" />
    <glyph glyph-name="Nacute" unicode="&#x143;" horiz-adv-x="1592" 
d="M1029 2048l-220 -371h-51l205 371h66zM1326 1536h41v-1536h-15l-1086 1431v-1431h-41v1536h16l1085 -1434v1434z" />
    <glyph glyph-name="nacute" unicode="&#x144;" horiz-adv-x="1185" 
d="M850 1536l-220 -371h-51l204 371h67zM604 1044q157 0 266.5 -110t109.5 -266v-668h-40v668q0 140 -98 239t-238 99t-239 -99t-99 -239v-668h-41v1024h41v-189q46 95 137 152t201 57z" />
    <glyph glyph-name="Ncommaaccent" unicode="&#x145;" horiz-adv-x="1592" 
d="M1326 1536h41v-1536h-15l-1086 1431v-1431h-41v1536h16l1085 -1434v1434zM617 -512l169 389h46l-169 -389h-46z" />
    <glyph glyph-name="ncommaaccent" unicode="&#x146;" horiz-adv-x="1185" 
d="M604 1044q157 0 266.5 -110t109.5 -266v-668h-40v668q0 140 -98 239t-238 99t-239 -99t-99 -239v-668h-41v1024h41v-189q46 95 137 152t201 57zM412 -512l169 389h46l-169 -389h-46z" />
    <glyph glyph-name="Ncaron" unicode="&#x147;" horiz-adv-x="1592" 
d="M806 1677h-51l-197 371h62l163 -323l159 323h64zM1326 1536h41v-1536h-15l-1086 1431v-1431h-41v1536h16l1085 -1434v1434z" />
    <glyph glyph-name="ncaron" unicode="&#x148;" horiz-adv-x="1185" 
d="M627 1165h-51l-197 371h61l164 -323l159 323h64zM604 1044q157 0 266.5 -110t109.5 -266v-668h-40v668q0 140 -98 239t-238 99t-239 -99t-99 -239v-668h-41v1024h41v-189q46 95 137 152t201 57z" />
    <glyph glyph-name="Eng" unicode="&#x14a;" horiz-adv-x="1592" 
d="M1326 1536h41v-1787q0 -96 -53 -149t-142 -45v41q70 -10 112 31.5t42 121.5v284l-1060 1398v-1431h-41v1536h16l1085 -1434v1434z" />
    <glyph glyph-name="eng" unicode="&#x14b;" horiz-adv-x="1185" 
d="M604 1044q157 0 266.5 -110t109.5 -266v-960q0 -92 -54.5 -147t-139.5 -47v41q67 -11 110.5 32.5t43.5 120.5v328v632q0 140 -98 239t-238 99t-239 -99t-99 -239v-668h-41v1024h41v-189q46 95 137 152t201 57z" />
    <glyph glyph-name="Omacron" unicode="&#x14c;" horiz-adv-x="1917" 
d="M701 1782v41h512v-41h-512zM957 -20q-160 0 -306 62.5t-251.5 168t-168 251.5t-62.5 306t62.5 306t168 251.5t251.5 168t306 62.5q161 0 307.5 -62.5t252 -168t167.5 -251.5t62 -306t-62 -306t-167.5 -251.5t-252 -168t-307.5 -62.5zM957 20q153 0 291.5 59t238.5 159
t159 238.5t59 291.5t-59 291.5t-159 238.5t-238.5 159t-291.5 59q-152 0 -290 -59t-238.5 -159t-159.5 -238.5t-59 -291.5t59 -291.5t159.5 -238.5t238.5 -159t290 -59z" />
    <glyph glyph-name="omacron" unicode="&#x14d;" horiz-adv-x="1351" 
d="M420 1270v41h512v-41h-512zM676 -20q-144 0 -266.5 71.5t-194.5 194t-72 266.5t72 266.5t194.5 194t266.5 71.5q108 0 206 -42.5t169.5 -114t114 -169.5t42.5 -206t-42.5 -206t-114 -169.5t-169.5 -114t-206 -42.5zM676 20q203 0 347 144.5t144 347.5t-144 347.5
t-347 144.5t-347.5 -144.5t-144.5 -347.5t144.5 -347.5t347.5 -144.5z" />
    <glyph glyph-name="Ohungarumlaut" unicode="&#x150;" horiz-adv-x="1917" 
d="M748 1677l202 371h66l-217 -371h-51zM1080 1677l203 371h66l-217 -371h-52zM957 -20q-160 0 -306 62.5t-251.5 168t-168 251.5t-62.5 306t62.5 306t168 251.5t251.5 168t306 62.5q161 0 307.5 -62.5t252 -168t167.5 -251.5t62 -306t-62 -306t-167.5 -251.5t-252 -168
t-307.5 -62.5zM957 20q153 0 291.5 59t238.5 159t159 238.5t59 291.5t-59 291.5t-159 238.5t-238.5 159t-291.5 59q-152 0 -290 -59t-238.5 -159t-159.5 -238.5t-59 -291.5t59 -291.5t159.5 -238.5t238.5 -159t290 -59z" />
    <glyph glyph-name="ohungarumlaut" unicode="&#x151;" horiz-adv-x="1351" 
d="M466 1165l202 371h67l-218 -371h-51zM799 1165l202 371h67l-218 -371h-51zM676 -20q-144 0 -266.5 71.5t-194.5 194t-72 266.5t72 266.5t194.5 194t266.5 71.5q108 0 206 -42.5t169.5 -114t114 -169.5t42.5 -206t-42.5 -206t-114 -169.5t-169.5 -114t-206 -42.5zM676 20
q203 0 347 144.5t144 347.5t-144 347.5t-347 144.5t-347.5 -144.5t-144.5 -347.5t144.5 -347.5t347.5 -144.5z" />
    <glyph glyph-name="OE" unicode="&#x152;" horiz-adv-x="2137" 
d="M1964 1495h-738v-707h653v-40h-653v-707h738v-41h-779v13q-119 -33 -228 -33q-160 0 -306 62.5t-251.5 168t-168 251.5t-62.5 306t62.5 306t168 251.5t251.5 168t306 62.5q109 0 228 -33v13h779v-41zM957 20q106 0 228 34v1428q-122 34 -228 34q-152 0 -290 -59
t-238.5 -159t-159.5 -238.5t-59 -291.5t59 -291.5t159.5 -238.5t238.5 -159t290 -59z" />
    <glyph glyph-name="oe" unicode="&#x153;" horiz-adv-x="2365" 
d="M2232 522h-1021v-20q2 -132 68 -243t178.5 -175t244.5 -64q159 0 287 92.5t179 238.5h41q-52 -163 -192 -267t-315 -104q-181 0 -323.5 110.5t-188.5 280.5q-49 -171 -191.5 -281t-322.5 -110q-144 0 -266.5 71.5t-194.5 194t-72 266.5t72 266.5t194.5 194t266.5 71.5
q180 0 322.5 -110t191.5 -281q46 170 188.5 280.5t323.5 110.5q140 0 258.5 -66t190.5 -182t81 -258v-16zM676 20q203 0 347 144.5t144 347.5t-144 347.5t-347 144.5t-347.5 -144.5t-144.5 -347.5t144.5 -347.5t347.5 -144.5zM1702 1004q-190 0 -328 -125.5t-161 -315.5h978
q-21 187 -160.5 314t-328.5 127z" />
    <glyph glyph-name="Racute" unicode="&#x154;" horiz-adv-x="1251" 
d="M863 2048l-220 -371h-52l205 371h67zM722 727l468 -727h-48l-461 727h-415v-727h-41v1536h476q168 0 286.5 -118t118.5 -286q0 -161 -111.5 -278t-272.5 -127zM266 768h435q151 0 257.5 106t106.5 258q0 151 -107 257t-257 106h-435v-727z" />
    <glyph glyph-name="racute" unicode="&#x155;" horiz-adv-x="752" 
d="M699 1536l-220 -371h-51l204 371h67zM625 1044q35 0 97 -10v-46q-50 16 -97 16q-148 0 -253.5 -104.5t-105.5 -251.5v-648h-41v1024h41v-202q49 100 146 161t213 61z" />
    <glyph glyph-name="Rcommaaccent" unicode="&#x156;" horiz-adv-x="1251" 
d="M722 727l468 -727h-48l-461 727h-415v-727h-41v1536h476q168 0 286.5 -118t118.5 -286q0 -161 -111.5 -278t-272.5 -127zM266 768h435q151 0 257.5 106t106.5 258q0 151 -107 257t-257 106h-435v-727zM425 -512l169 389h46l-169 -389h-46z" />
    <glyph glyph-name="rcommaaccent" unicode="&#x157;" horiz-adv-x="752" 
d="M625 1044q35 0 97 -10v-46q-50 16 -97 16q-148 0 -253.5 -104.5t-105.5 -251.5v-648h-41v1024h41v-202q49 100 146 161t213 61zM54 -512l169 389h46l-169 -389h-46z" />
    <glyph glyph-name="Rcaron" unicode="&#x158;" horiz-adv-x="1251" 
d="M640 1677h-51l-197 371h61l164 -323l159 323h64zM722 727l468 -727h-48l-461 727h-415v-727h-41v1536h476q168 0 286.5 -118t118.5 -286q0 -161 -111.5 -278t-272.5 -127zM266 768h435q151 0 257.5 106t106.5 258q0 151 -107 257t-257 106h-435v-727z" />
    <glyph glyph-name="rcaron" unicode="&#x159;" horiz-adv-x="752" 
d="M476 1165h-51l-197 371h61l164 -323l159 323h64zM625 1044q35 0 97 -10v-46q-50 16 -97 16q-148 0 -253.5 -104.5t-105.5 -251.5v-648h-41v1024h41v-202q49 100 146 161t213 61z" />
    <glyph glyph-name="Sacute" unicode="&#x15a;" horiz-adv-x="1169" 
d="M594 1677l205 371h66l-220 -371h-51zM589 -20q-164 0 -291.5 82t-174.5 207l38 13q43 -112 158 -187t272 -75q111 0 204 38.5t152 118.5t59 187q0 72 -27.5 130.5t-74 99.5t-107 75.5t-127.5 64t-134 59.5t-127.5 67t-107 81.5t-74 108.5t-27.5 143q0 73 23.5 134.5
t63 103t91.5 70.5t107.5 42t113.5 13q116 0 213 -49.5t153 -124.5l-33 -25q-48 67 -135.5 113t-194.5 46q-67 0 -130 -20t-115.5 -58.5t-84 -102t-31.5 -142.5q0 -72 27.5 -131t74 -100t107 -76t127.5 -64.5t134 -59.5t127.5 -67t107 -81t74 -108t27.5 -142
q0 -96 -40 -171.5t-107 -120.5t-146.5 -68.5t-164.5 -23.5z" />
    <glyph glyph-name="sacute" unicode="&#x15b;" horiz-adv-x="875" 
d="M433 1165l204 371h67l-220 -371h-51zM453 -20q-109 0 -204 57t-126 140l38 12q25 -70 110 -119.5t182 -49.5q107 0 183 61.5t76 164.5q0 41 -15 76t-36 58t-59.5 46t-67.5 36t-78 32q-45 18 -70 28.5t-63.5 30.5t-60.5 40t-44.5 48t-33 63.5t-10.5 78.5q0 67 26.5 119.5
t69 82t89.5 44.5t94 15q73 0 139.5 -34t103.5 -83l-33 -26q-71 100 -207 100q-44 0 -85.5 -12.5t-77 -37t-57 -67t-21.5 -96.5q0 -31 8 -58t18.5 -47t33.5 -40t39 -32t49 -28.5t50 -24t55 -23.5q42 -18 61 -26t56 -27t55 -32.5t44 -37.5t38 -48t21.5 -57t9.5 -71
q0 -107 -87.5 -181.5t-212.5 -74.5z" />
    <glyph glyph-name="Scedilla" unicode="&#x15e;" horiz-adv-x="1169" 
d="M1047 364q0 -77 -26 -141t-70 -107.5t-102.5 -74.5t-122 -45.5t-130.5 -15.5l-58 -136q116 25 195 -27.5t79 -154.5q0 -81 -55.5 -137.5t-136.5 -56.5q-59 0 -126.5 30t-104.5 72l31 26q31 -37 89.5 -62.5t110.5 -25.5q65 0 108 44t43 110q0 89 -71.5 128t-177.5 8
l-36 33l70 149q-154 10 -271 90t-162 199l38 13q43 -112 158 -187t272 -75q111 0 204 38.5t152 118.5t59 187q0 72 -27.5 130.5t-74 99.5t-107 75.5t-127.5 64t-134 59.5t-127.5 67t-107 81.5t-74 108.5t-27.5 143q0 73 23.5 134.5t63 103t91.5 70.5t107.5 42t113.5 13
q116 0 213 -49.5t153 -124.5l-33 -25q-48 67 -135.5 113t-194.5 46q-67 0 -130 -20t-115.5 -58.5t-84 -102t-31.5 -142.5q0 -72 27.5 -131t74 -100t107 -76t127.5 -64.5t134 -59.5t127.5 -67t107 -81t74 -108t27.5 -142z" />
    <glyph glyph-name="scedilla" unicode="&#x15f;" horiz-adv-x="875" 
d="M753 236q0 -105 -84 -178.5t-206 -77.5l-59 -136q116 25 195 -27.5t79 -154.5q0 -81 -55.5 -137.5t-136.5 -56.5q-59 0 -126 30t-104 72l31 26q31 -37 89 -62.5t110 -25.5q65 0 108 44t43 110q0 89 -71 128t-177 8l-36 33l69 151q-102 7 -186 62.5t-113 132.5l38 12
q25 -70 110 -119.5t182 -49.5q107 0 183 61.5t76 164.5q0 41 -15 76t-36 58t-59.5 46t-67.5 36t-78 32q-45 18 -70 28.5t-63.5 30.5t-60.5 40t-44.5 48t-33 63.5t-10.5 78.5q0 67 26.5 119.5t69 82t89.5 44.5t94 15q73 0 139.5 -34t103.5 -83l-33 -26q-71 100 -207 100
q-44 0 -85.5 -12.5t-77 -37t-57 -67t-21.5 -96.5q0 -31 8 -58t18.5 -47t33.5 -40t39 -32t49 -28.5t50 -24t55 -23.5q42 -18 61 -26t56 -27t55 -32.5t44 -37.5t38 -48t21.5 -57t9.5 -71z" />
    <glyph glyph-name="Scaron" unicode="&#x160;" horiz-adv-x="1169" 
d="M591 1677l-197 371h62l164 -323l158 323h64l-199 -371h-52zM589 -20q-164 0 -291.5 82t-174.5 207l38 13q43 -112 158 -187t272 -75q111 0 204 38.5t152 118.5t59 187q0 72 -27.5 130.5t-74 99.5t-107 75.5t-127.5 64t-134 59.5t-127.5 67t-107 81.5t-74 108.5t-27.5 143
q0 73 23.5 134.5t63 103t91.5 70.5t107.5 42t113.5 13q116 0 213 -49.5t153 -124.5l-33 -25q-48 67 -135.5 113t-194.5 46q-67 0 -130 -20t-115.5 -58.5t-84 -102t-31.5 -142.5q0 -72 27.5 -131t74 -100t107 -76t127.5 -64.5t134 -59.5t127.5 -67t107 -81t74 -108t27.5 -142
q0 -96 -40 -171.5t-107 -120.5t-146.5 -68.5t-164.5 -23.5z" />
    <glyph glyph-name="scaron" unicode="&#x161;" horiz-adv-x="875" 
d="M430 1165l-197 371h61l164 -323l159 323h64l-200 -371h-51zM453 -20q-109 0 -204 57t-126 140l38 12q25 -70 110 -119.5t182 -49.5q107 0 183 61.5t76 164.5q0 41 -15 76t-36 58t-59.5 46t-67.5 36t-78 32q-45 18 -70 28.5t-63.5 30.5t-60.5 40t-44.5 48t-33 63.5
t-10.5 78.5q0 67 26.5 119.5t69 82t89.5 44.5t94 15q73 0 139.5 -34t103.5 -83l-33 -26q-71 100 -207 100q-44 0 -85.5 -12.5t-77 -37t-57 -67t-21.5 -96.5q0 -31 8 -58t18.5 -47t33.5 -40t39 -32t49 -28.5t50 -24t55 -23.5q42 -18 61 -26t56 -27t55 -32.5t44 -37.5t38 -48
t21.5 -57t9.5 -71q0 -107 -87.5 -181.5t-212.5 -74.5z" />
    <glyph glyph-name="uni0162" unicode="&#x162;" horiz-adv-x="1064" 
d="M61 1539h943v-41h-451v-1495h-41v1495h-451v41zM486 -156q116 25 195 -27.5t79 -154.5q0 -81 -55.5 -137.5t-136.5 -56.5q-59 0 -126 30t-104 72l31 26q31 -37 89 -62.5t110 -25.5q65 0 108 44t43 110q0 89 -71 128t-177 8l-36 33l77 169h41z" />
    <glyph glyph-name="uni0163" unicode="&#x163;" horiz-adv-x="716" 
d="M440 -156q116 25 195 -27.5t79 -154.5q0 -81 -55.5 -137.5t-136.5 -56.5q-59 0 -126 30t-104 72l31 26q31 -37 89 -62.5t110 -25.5q65 0 108 44t43 110q0 89 -71 128t-177 8l-36 33l69 151q-83 10 -138.5 72.5t-55.5 147.5v781h-172v41h172v445h41v-445h299v-41h-299
v-781q0 -77 52.5 -129.5t128.5 -52.5h113v-7q-43 -28 -100 -33z" />
    <glyph glyph-name="Tcaron" unicode="&#x164;" horiz-adv-x="1064" 
d="M556 1677h-52l-197 371h62l163 -323l159 323h64zM1004 1539v-41h-451v-1495h-41v1495h-451v41h943z" />
    <glyph glyph-name="tcaron" unicode="&#x165;" horiz-adv-x="834" 
d="M755 1720l-192 -619h-43l189 619h46zM305 1469v-445h299v-41h-299v-781q0 -77 52.5 -129.5t128.5 -52.5h113v-7q-20 -14 -53 -23.5t-60 -9.5q-92 0 -157 65t-65 157v781h-172v41h172v445h41z" />
    <glyph glyph-name="Tbar" unicode="&#x166;" horiz-adv-x="1064" 
d="M1004 1498h-451v-710h235v-40h-235v-745h-41v745h-236v40h236v710h-451v41h943v-41z" />
    <glyph glyph-name="tbar" unicode="&#x167;" horiz-adv-x="716" 
d="M604 983h-299v-451h297v-40h-297v-290q0 -77 52.5 -129.5t128.5 -52.5h113v-7q-20 -14 -53 -23.5t-60 -9.5q-92 0 -157 65t-65 157v290h-174v40h174v451h-172v41h172v445h41v-445h299v-41z" />
    <glyph glyph-name="Umacron" unicode="&#x16a;" horiz-adv-x="1500" 
d="M494 1782v41h512v-41h-512zM750 -20q-220 0 -376 156t-156 376v1024h41v-1024q0 -134 65 -247t178 -179t248 -66q203 0 347.5 144.5t144.5 347.5v1024h41v-1024q0 -145 -71.5 -267.5t-194 -193.5t-267.5 -71z" />
    <glyph glyph-name="umacron" unicode="&#x16b;" horiz-adv-x="1100" 
d="M292 1270v41h512v-41h-512zM548 -20q-148 0 -253.5 116.5t-105.5 279.5v648h41v-648q0 -147 93.5 -251.5t224.5 -104.5q133 0 226.5 104t93.5 252v648h41v-648q0 -164 -105.5 -280t-255.5 -116z" />
    <glyph glyph-name="Uring" unicode="&#x16e;" horiz-adv-x="1500" 
d="M750 1651q-73 0 -123.5 50.5t-50.5 121.5q0 73 50.5 123.5t123.5 50.5q71 0 121.5 -50.5t50.5 -123.5q0 -71 -50.5 -121.5t-121.5 -50.5zM750 1690q56 0 94.5 39t38.5 94q0 57 -38.5 96t-94.5 39q-58 0 -97 -38.5t-39 -96.5q0 -56 39 -94.5t97 -38.5zM750 -20
q-220 0 -376 156t-156 376v1024h41v-1024q0 -134 65 -247t178 -179t248 -66q203 0 347.5 144.5t144.5 347.5v1024h41v-1024q0 -145 -71.5 -267.5t-194 -193.5t-267.5 -71z" />
    <glyph glyph-name="uring" unicode="&#x16f;" horiz-adv-x="1100" 
d="M548 1139q-73 0 -123.5 50.5t-50.5 121.5q0 73 50.5 123.5t123.5 50.5q71 0 121 -50.5t50 -123.5q0 -71 -50 -121.5t-121 -50.5zM548 1178q56 0 94.5 39t38.5 94q0 57 -38.5 96t-94.5 39q-58 0 -97 -38.5t-39 -96.5q0 -56 39 -94.5t97 -38.5zM548 -20
q-148 0 -253.5 116.5t-105.5 279.5v648h41v-648q0 -147 93.5 -251.5t224.5 -104.5q133 0 226.5 104t93.5 252v648h41v-648q0 -164 -105.5 -280t-255.5 -116z" />
    <glyph glyph-name="Uhungarumlaut" unicode="&#x170;" horiz-adv-x="1500" 
d="M540 1677l202 371h67l-218 -371h-51zM873 1677l202 371h67l-218 -371h-51zM750 -20q-220 0 -376 156t-156 376v1024h41v-1024q0 -134 65 -247t178 -179t248 -66q203 0 347.5 144.5t144.5 347.5v1024h41v-1024q0 -145 -71.5 -267.5t-194 -193.5t-267.5 -71z" />
    <glyph glyph-name="uhungarumlaut" unicode="&#x171;" horiz-adv-x="1100" 
d="M338 1165l202 371h67l-218 -371h-51zM671 1165l202 371h67l-218 -371h-51zM548 -20q-148 0 -253.5 116.5t-105.5 279.5v648h41v-648q0 -147 93.5 -251.5t224.5 -104.5q133 0 226.5 104t93.5 252v648h41v-648q0 -164 -105.5 -280t-255.5 -116z" />
    <glyph glyph-name="Uogonek" unicode="&#x172;" horiz-adv-x="1500" 
d="M1242 1536h41v-1024q0 -172 -99.5 -309.5t-256.5 -192.5q-42 -43 -64.5 -69t-54 -69.5t-46 -88.5t-14.5 -93q0 -74 39.5 -117.5t113.5 -43.5q59 0 101 18.5t86 58.5l18 -31q-48 -46 -94 -66.5t-111 -20.5q-92 0 -140.5 54t-48.5 148q0 83 37.5 150t110.5 152
q-54 -12 -110 -12q-220 0 -376 156t-156 376v1024h41v-1024q0 -134 65 -247t178 -179t248 -66q203 0 347.5 144.5t144.5 347.5v1024z" />
    <glyph glyph-name="uogonek" unicode="&#x173;" horiz-adv-x="1100" 
d="M899 -366l17 -31q-48 -46 -93.5 -66.5t-110.5 -20.5q-92 0 -141 54t-49 148q0 78 34 142.5t97 136.5q-43 -17 -105 -17q-148 0 -253.5 116.5t-105.5 279.5v648h41v-648q0 -147 93.5 -251.5t224.5 -104.5q133 0 226.5 104t93.5 252v648h41v-648q0 -104 -45.5 -193.5
t-123.5 -141.5q-42 -43 -65 -69t-55 -70.5t-47 -90t-15 -93.5q0 -73 39.5 -117t114.5 -44q59 0 101 18.5t86 58.5z" />
    <glyph glyph-name="Wcircumflex" unicode="&#x174;" horiz-adv-x="2176" 
d="M1093 2002l-164 -325h-61l197 371h51l200 -371h-64zM2089 1536h46l-512 -1536h-46l-489 1467l-489 -1467h-46l-512 1536h46l489 -1477l489 1477h46l489 -1477z" />
    <glyph glyph-name="wcircumflex" unicode="&#x175;" horiz-adv-x="1594" 
d="M799 1490l-164 -325h-62l198 371h51l199 -371h-64zM1495 1024h38l-350 -1024h-51l-333 965l-333 -965h-51l-354 1024h44l335 -975l336 975h46l335 -978z" />
    <glyph glyph-name="Ycircumflex" unicode="&#x176;" horiz-adv-x="1192" 
d="M596 2002l-163 -325h-62l197 371h52l199 -371h-64zM1101 1536h51l-532 -801h-3v-735h-41v735h-5l-530 801h49l506 -765z" />
    <glyph glyph-name="ycircumflex" unicode="&#x177;" horiz-adv-x="988" 
d="M497 1490l-164 -325h-62l197 371h52l199 -371h-64zM883 1024h44l-656 -1638h-43l246 614l-413 1024h47l386 -968h3z" />
    <glyph glyph-name="Ydieresis" unicode="&#x178;" horiz-adv-x="1192" 
d="M443 1741q-25 0 -43.5 17.5t-18.5 43.5q0 25 18.5 43.5t43.5 18.5t43 -18.5t18 -43.5q0 -26 -18 -43.5t-43 -17.5zM750 1741q-25 0 -43 17.5t-18 43.5q0 25 18 43.5t43 18.5t43.5 -18.5t18.5 -43.5q0 -26 -18.5 -43.5t-43.5 -17.5zM1101 1536h51l-532 -801h-3v-735h-41
v735h-5l-530 801h49l506 -765z" />
    <glyph glyph-name="Zacute" unicode="&#x179;" horiz-adv-x="1408" 
d="M945 2048l-221 -371h-51l205 371h67zM212 41h1073v-41h-1152l1022 1495h-996v41h1075z" />
    <glyph glyph-name="zacute" unicode="&#x17a;" horiz-adv-x="1121" 
d="M822 1536l-220 -371h-52l205 371h67zM205 41h793v-41h-875l758 983h-733v41h820z" />
    <glyph glyph-name="Zdotaccent" unicode="&#x17b;" horiz-adv-x="1408" 
d="M699 1741q-25 0 -43.5 17.5t-18.5 43.5q0 25 18.5 43.5t43.5 18.5q23 0 42 -19t19 -43q0 -26 -18.5 -43.5t-42.5 -17.5zM212 41h1073v-41h-1152l1022 1495h-996v41h1075z" />
    <glyph glyph-name="zdotaccent" unicode="&#x17c;" horiz-adv-x="1121" 
d="M576 1229q-25 0 -43 17.5t-18 43.5q0 25 18 43.5t43 18.5q24 0 42.5 -19t18.5 -43q0 -26 -18.5 -43.5t-42.5 -17.5zM205 41h793v-41h-875l758 983h-733v41h820z" />
    <glyph glyph-name="Zcaron" unicode="&#x17d;" horiz-adv-x="1408" 
d="M722 1677h-51l-197 371h61l164 -323l159 323h64zM212 41h1073v-41h-1152l1022 1495h-996v41h1075z" />
    <glyph glyph-name="zcaron" unicode="&#x17e;" horiz-adv-x="1121" 
d="M599 1165h-51l-197 371h61l164 -323l159 323h64zM205 41h793v-41h-875l758 983h-733v41h820z" />
    <glyph glyph-name="florin" unicode="&#x192;" horiz-adv-x="926" 
d="M704 1516q-76 0 -138.5 -54t-73.5 -131l-49 -307h299l-7 -41h-300l-235 -1495h-41l235 1495h-171l7 41h172l49 312q13 92 88 156t168 64q27 0 58.5 -9.5t48.5 -23.5l-5 -46q-44 39 -105 39z" />
    <glyph glyph-name="uni01CD" unicode="&#x1cd;" horiz-adv-x="1233" 
d="M640 1677h-51l-197 371h61l164 -323l159 323h64zM1147 0l-143 397h-774l-143 -397h-49l556 1536h46l553 -1536h-46zM243 438h748l-374 1042z" />
    <glyph glyph-name="uni01CE" unicode="&#x1ce;" horiz-adv-x="1428" 
d="M699 1165h-51l-197 371h61l164 -323l159 323h64zM1334 20h74v-20q-31 -20 -74 -20q-81 0 -124 52t-43 150v123q-60 -148 -192.5 -236.5t-298.5 -88.5q-144 0 -266.5 71.5t-194.5 194t-72 266.5t72 266.5t194.5 194t266.5 71.5q165 0 298 -92.5t193 -242.5v315h41v-842
q0 -76 33.5 -119t92.5 -43zM676 20q203 0 347 144.5t144 347.5t-144 347.5t-347 144.5t-347.5 -144.5t-144.5 -347.5t144.5 -347.5t347.5 -144.5z" />
    <glyph glyph-name="uni01CF" unicode="&#x1cf;" horiz-adv-x="514" 
d="M230 1677l-197 371h62l164 -323l158 323h64l-199 -371h-52zM238 0v1536h41v-1536h-41z" />
    <glyph glyph-name="uni01D0" unicode="&#x1d0;" horiz-adv-x="517" 
d="M230 1165l-197 371h62l164 -323l158 323h64l-199 -371h-52zM238 0v1024h41v-1024h-41z" />
    <glyph glyph-name="uni01D1" unicode="&#x1d1;" horiz-adv-x="1917" 
d="M929 1677l-197 371h62l163 -323l159 323h64l-200 -371h-51zM957 -20q-160 0 -306 62.5t-251.5 168t-168 251.5t-62.5 306t62.5 306t168 251.5t251.5 168t306 62.5q161 0 307.5 -62.5t252 -168t167.5 -251.5t62 -306t-62 -306t-167.5 -251.5t-252 -168t-307.5 -62.5z
M957 20q153 0 291.5 59t238.5 159t159 238.5t59 291.5t-59 291.5t-159 238.5t-238.5 159t-291.5 59q-152 0 -290 -59t-238.5 -159t-159.5 -238.5t-59 -291.5t59 -291.5t159.5 -238.5t238.5 -159t290 -59z" />
    <glyph glyph-name="uni01D2" unicode="&#x1d2;" horiz-adv-x="1351" 
d="M648 1165l-197 371h61l164 -323l159 323h64l-200 -371h-51zM676 -20q-144 0 -266.5 71.5t-194.5 194t-72 266.5t72 266.5t194.5 194t266.5 71.5q108 0 206 -42.5t169.5 -114t114 -169.5t42.5 -206t-42.5 -206t-114 -169.5t-169.5 -114t-206 -42.5zM676 20
q203 0 347 144.5t144 347.5t-144 347.5t-347 144.5t-347.5 -144.5t-144.5 -347.5t144.5 -347.5t347.5 -144.5z" />
    <glyph glyph-name="uni01D3" unicode="&#x1d3;" horiz-adv-x="1500" 
d="M722 1677l-197 371h61l164 -323l159 323h64l-200 -371h-51zM750 -20q-220 0 -376 156t-156 376v1024h41v-1024q0 -134 65 -247t178 -179t248 -66q203 0 347.5 144.5t144.5 347.5v1024h41v-1024q0 -145 -71.5 -267.5t-194 -193.5t-267.5 -71z" />
    <glyph glyph-name="uni01D4" unicode="&#x1d4;" horiz-adv-x="1100" 
d="M520 1165l-197 371h61l164 -323l159 323h64l-200 -371h-51zM548 -20q-148 0 -253.5 116.5t-105.5 279.5v648h41v-648q0 -147 93.5 -251.5t224.5 -104.5q133 0 226.5 104t93.5 252v648h41v-648q0 -164 -105.5 -280t-255.5 -116z" />
    <glyph glyph-name="Scommaaccent" unicode="&#x218;" horiz-adv-x="1169" 
d="M589 -20q-164 0 -291.5 82t-174.5 207l38 13q43 -112 158 -187t272 -75q111 0 204 38.5t152 118.5t59 187q0 72 -27.5 130.5t-74 99.5t-107 75.5t-127.5 64t-134 59.5t-127.5 67t-107 81.5t-74 108.5t-27.5 143q0 73 23.5 134.5t63 103t91.5 70.5t107.5 42t113.5 13
q116 0 213 -49.5t153 -124.5l-33 -25q-48 67 -135.5 113t-194.5 46q-67 0 -130 -20t-115.5 -58.5t-84 -102t-31.5 -142.5q0 -72 27.5 -131t74 -100t107 -76t127.5 -64.5t134 -59.5t127.5 -67t107 -81t74 -108t27.5 -142q0 -96 -40 -171.5t-107 -120.5t-146.5 -68.5
t-164.5 -23.5zM438 -512h-46l169 389h46z" />
    <glyph glyph-name="scommaaccent" unicode="&#x219;" horiz-adv-x="875" 
d="M453 -20q-109 0 -204 57t-126 140l38 12q25 -70 110 -119.5t182 -49.5q107 0 183 61.5t76 164.5q0 41 -15 76t-36 58t-59.5 46t-67.5 36t-78 32q-45 18 -70 28.5t-63.5 30.5t-60.5 40t-44.5 48t-33 63.5t-10.5 78.5q0 67 26.5 119.5t69 82t89.5 44.5t94 15
q73 0 139.5 -34t103.5 -83l-33 -26q-71 100 -207 100q-44 0 -85.5 -12.5t-77 -37t-57 -67t-21.5 -96.5q0 -31 8 -58t18.5 -47t33.5 -40t39 -32t49 -28.5t50 -24t55 -23.5q42 -18 61 -26t56 -27t55 -32.5t44 -37.5t38 -48t21.5 -57t9.5 -71q0 -107 -87.5 -181.5t-212.5 -74.5
zM305 -512h-46l169 389h46z" />
    <glyph glyph-name="uni021A" unicode="&#x21a;" horiz-adv-x="1064" 
d="M61 1539h943v-41h-451v-1495h-41v1495h-451v41zM340 -512l169 389h47l-169 -389h-47z" />
    <glyph glyph-name="uni021B" unicode="&#x21b;" horiz-adv-x="716" 
d="M604 983h-299v-781q0 -77 52.5 -129.5t128.5 -52.5h113v-7q-20 -14 -53 -23.5t-60 -9.5q-92 0 -157 65t-65 157v781h-172v41h172v445h41v-445h299v-41zM294 -512l169 389h46l-169 -389h-46z" />
    <glyph glyph-name="uni0237" unicode="&#x237;" horiz-adv-x="499" 
d="M51 -614q-27 0 -59.5 9.5t-52.5 23.5v25l112 -17q77 0 129.5 52.5t52.5 128.5v1416h41v-1416q0 -92 -65.5 -157t-157.5 -65z" />
    <glyph glyph-name="circumflex" unicode="&#x2c6;" horiz-adv-x="81" 
d="M179 1165h-61l197 371h51l200 -371h-64l-159 325z" />
    <glyph glyph-name="caron" unicode="&#x2c7;" horiz-adv-x="81" 
d="M315 1165l-197 371h61l164 -323l159 323h64l-200 -371h-51z" />
    <glyph glyph-name="breve" unicode="&#x2d8;" horiz-adv-x="138" 
d="M620 1178q-130 0 -220 81t-90 198h41q0 -100 78 -169t191 -69q115 0 193 69t78 169h41q0 -117 -90.5 -198t-221.5 -81z" />
    <glyph glyph-name="dotaccent" unicode="&#x2d9;" horiz-adv-x="81" 
d="M302 1229q-25 0 -43 17.5t-18 43.5q0 25 18 43.5t43 18.5q24 0 43 -19t19 -43q0 -26 -19 -43.5t-43 -17.5z" />
    <glyph glyph-name="ring" unicode="&#x2da;" horiz-adv-x="120" 
d="M205 1139q-73 0 -123.5 50.5t-50.5 121.5q0 73 50.5 123.5t123.5 50.5q71 0 121 -50.5t50 -123.5q0 -71 -50 -121.5t-121 -50.5zM205 1178q55 0 94 39t39 94q0 57 -38.5 96t-94.5 39q-58 0 -97 -38.5t-39 -96.5q0 -56 39 -94.5t97 -38.5z" />
    <glyph glyph-name="ogonek" unicode="&#x2db;" horiz-adv-x="87" 
d="M376 -532q-92 0 -140.5 54t-48.5 148q0 23 2.5 45t11 45t13.5 38.5t21.5 40t22 34.5t27.5 37t27.5 33t32 36t29.5 34l38 -13q-46 -47 -66.5 -70t-56 -70.5t-51 -93.5t-15.5 -96q0 -74 39.5 -118t113.5 -44q59 0 101 18.5t86 58.5l18 -30q-48 -46 -94 -66.5t-111 -20.5z
" />
    <glyph glyph-name="tilde" unicode="&#x2dc;" horiz-adv-x="197" 
d="M599 1308q-105 0 -171 103q-47 84 -136 84q-62 0 -99 -46.5t-37 -122.5h-41q0 92 50 151t127 59q106 0 171 -102q52 -85 136 -85q61 0 99.5 47t38.5 120h41q0 -90 -50.5 -149t-128.5 -59z" />
    <glyph glyph-name="hungarumlaut" unicode="&#x2dd;" horiz-adv-x="81" 
d="M0 1165l205 371h66l-220 -371h-51z" />
    <glyph glyph-name="gravecomb" unicode="&#x300;" 
d="M-108 1165h-51l-220 371h67z" />
    <glyph glyph-name="acutecomb" unicode="&#x301;" 
d="M-486 1165l204 371h67l-220 -371h-51z" />
    <glyph glyph-name="uni0302" unicode="&#x302;" 
d="M-502 1165h-61l197 371h51l200 -371h-64l-159 325z" />
    <glyph glyph-name="tildecomb" unicode="&#x303;" 
d="M-297 1308q-105 0 -171 103q-47 84 -136 84q-62 0 -99 -46.5t-37 -122.5h-41q0 92 50 151t127 59q106 0 171 -102q52 -85 136 -85q61 0 99.5 47t38.5 120h41q0 -90 -50.5 -149t-128.5 -59z" />
    <glyph glyph-name="uni0304" unicode="&#x304;" 
d="M-689 1270v41h512v-41h-512z" />
    <glyph glyph-name="uni0306" unicode="&#x306;" 
d="M-722 1178q-130 0 -220 81t-90 198h41q0 -100 78 -169t191 -69q115 0 193 69t78 169h41q0 -117 -90.5 -198t-221.5 -81z" />
    <glyph glyph-name="uni0307" unicode="&#x307;" 
d="M-300 1229q-25 0 -43 17.5t-18 43.5q0 25 18 43.5t43 18.5q24 0 43 -19t19 -43q0 -26 -19 -43.5t-43 -17.5z" />
    <glyph glyph-name="uni0308" unicode="&#x308;" 
d="M-550 1229q-25 0 -43.5 17.5t-18.5 43.5q0 25 18.5 43.5t43.5 18.5t43 -18.5t18 -43.5q0 -26 -18 -43.5t-43 -17.5zM-243 1229q-25 0 -43.5 17.5t-18.5 43.5q0 25 18.5 43.5t43.5 18.5t43 -18.5t18 -43.5q0 -26 -18 -43.5t-43 -17.5z" />
    <glyph glyph-name="uni030A" unicode="&#x30a;" 
d="M-202 1139q-73 0 -123.5 50.5t-50.5 121.5q0 73 50.5 123.5t123.5 50.5q71 0 121 -50.5t50 -123.5q0 -71 -50 -121.5t-121 -50.5zM-202 1178q56 0 94.5 39t38.5 94q0 57 -38.5 96t-94.5 39q-58 0 -97 -38.5t-39 -96.5q0 -56 39 -94.5t97 -38.5z" />
    <glyph glyph-name="uni030B" unicode="&#x30b;" 
d="M-507 1165l202 371h67l-218 -371h-51zM-174 1165l202 371h67l-218 -371h-51z" />
    <glyph glyph-name="uni030C" unicode="&#x30c;" 
d="M-366 1165l-197 371h61l164 -323l159 323h64l-200 -371h-51z" />
    <glyph glyph-name="uni0312" unicode="&#x312;" 
d="M-108 1741h47l-169 -389h-46z" />
    <glyph glyph-name="dotbelowcomb" unicode="&#x323;" 
d="M-177 -512q-25 0 -43 17.5t-18 43.5q0 25 18 43.5t43 18.5q24 0 43 -19t19 -43q0 -26 -19 -43.5t-43 -17.5z" />
    <glyph glyph-name="uni0326" unicode="&#x326;" 
d="M-312 -302h-46l169 389h46z" />
    <glyph glyph-name="uni0327" unicode="&#x327;" 
d="M-310 -532q-59 0 -126 30t-104 72l31 26q31 -37 89 -62.5t110 -25.5q65 0 108 44t43 110q0 89 -71 128t-177 8l-36 33l77 169h41l-67 -156q116 25 195 -27.5t79 -154.5q0 -81 -55.5 -137.5t-136.5 -56.5z" />
    <glyph glyph-name="uni0328" unicode="&#x328;" 
d="M-241 -532q-92 0 -140.5 54t-48.5 148q0 23 2.5 45t11 45t13.5 38.5t21.5 40t22 34.5t27.5 37t27.5 33t32 36t29.5 34l38 -13q-46 -47 -66.5 -70t-56 -70.5t-51 -93.5t-15.5 -96q0 -74 39.5 -118t113.5 -44q59 0 101 18.5t86 58.5l18 -30q-48 -46 -94 -66.5t-111 -20.5z
" />
    <glyph glyph-name="uni0335" unicode="&#x335;" 
d="M-914 532v41h512v-41h-512z" />
    <glyph glyph-name="uni0336" unicode="&#x336;" 
d="M-1526 512v41h1408v-41h-1408z" />
    <glyph glyph-name="uni0337" unicode="&#x337;" 
d="M-740 333l361 399l31 -28l-361 -394z" />
    <glyph glyph-name="uni0338" unicode="&#x338;" 
d="M-1139 15l1065 1526l33 -20l-1065 -1526z" />
    <glyph glyph-name="uni0394" unicode="&#x394;" horiz-adv-x="1464" 
d="M753 1536l617 -1536h-46h-1204h-28l617 1536h44zM154 41h1154l-576 1441z" />
    <glyph glyph-name="uni03A9" unicode="&#x3a9;" horiz-adv-x="1940" 
d="M179 0v36h417v20q-167 115 -274 302.5t-107 424.5q0 157 58.5 296t159.5 238.5t242 157.5t300 58q161 0 302 -61.5t238 -164t152.5 -238t55.5 -281.5q0 -126 -33.5 -245.5t-90 -211t-122.5 -161.5t-138 -114v-20h420v-36h-546v26q69 33 134 83.5t125 121.5t104.5 154
t71 187.5t26.5 215.5q-1 95 -29.5 193.5t-87.5 191t-139.5 165t-195 116.5t-244.5 44q-127 0 -240.5 -38.5t-199 -106t-148 -157t-94.5 -195.5t-32 -218q0 -132 39.5 -255.5t106 -219t146 -167t166.5 -115.5v-26h-543z" />
    <glyph glyph-name="uni03BC" unicode="&#x3bc;" horiz-adv-x="1272" 
d="M973 1024h41v-1024h-41v202q-49 -100 -145 -161t-211 -61q-116 0 -211.5 60t-144.5 160v-712h-41v1536h41v-648q0 -148 104 -252t252 -104t252 104t104 252v648z" />
    <glyph glyph-name="pi" unicode="&#x3c0;" horiz-adv-x="1469" 
d="M220 0q72 158 131.5 468.5t73.5 591.5q-241 0 -333 -33l-8 23q106 43 303 43h972l-2 -33h-241v-737q0 -130 9 -201t30 -122h-47q-33 63 -33 302v758l-604 2q-12 -250 -74 -586.5t-133 -475.5h-44z" />
    <glyph glyph-name="Wgrave" unicode="&#x1e80;" horiz-adv-x="2176" 
d="M1119 1677h-51l-221 371h67zM2089 1536h46l-512 -1536h-46l-489 1467l-489 -1467h-46l-512 1536h46l489 -1477l489 1477h46l489 -1477z" />
    <glyph glyph-name="wgrave" unicode="&#x1e81;" horiz-adv-x="1594" 
d="M824 1165h-51l-220 371h67zM1495 1024h38l-350 -1024h-51l-333 965l-333 -965h-51l-354 1024h44l335 -975l336 975h46l335 -978z" />
    <glyph glyph-name="Wacute" unicode="&#x1e82;" horiz-adv-x="2176" 
d="M1339 2048l-220 -371h-51l204 371h67zM2089 1536h46l-512 -1536h-46l-489 1467l-489 -1467h-46l-512 1536h46l489 -1477l489 1477h46l489 -1477z" />
    <glyph glyph-name="wacute" unicode="&#x1e83;" horiz-adv-x="1594" 
d="M1044 1536l-220 -371h-51l205 371h66zM1495 1024h38l-350 -1024h-51l-333 965l-333 -965h-51l-354 1024h44l335 -975l336 975h46l335 -978z" />
    <glyph glyph-name="Wdieresis" unicode="&#x1e84;" horiz-adv-x="2176" 
d="M940 1741q-25 0 -43.5 17.5t-18.5 43.5q0 25 18.5 43.5t43.5 18.5t43 -18.5t18 -43.5q0 -26 -18 -43.5t-43 -17.5zM1247 1741q-25 0 -43.5 17.5t-18.5 43.5q0 25 18.5 43.5t43.5 18.5t43 -18.5t18 -43.5q0 -26 -18 -43.5t-43 -17.5zM2089 1536h46l-512 -1536h-46
l-489 1467l-489 -1467h-46l-512 1536h46l489 -1477l489 1477h46l489 -1477z" />
    <glyph glyph-name="wdieresis" unicode="&#x1e85;" horiz-adv-x="1594" 
d="M645 1229q-25 0 -43 17.5t-18 43.5q0 25 18 43.5t43 18.5t43.5 -18.5t18.5 -43.5q0 -26 -18.5 -43.5t-43.5 -17.5zM952 1229q-25 0 -43 17.5t-18 43.5q0 25 18 43.5t43 18.5t43.5 -18.5t18.5 -43.5q0 -26 -18.5 -43.5t-43.5 -17.5zM1495 1024h38l-350 -1024h-51l-333 965
l-333 -965h-51l-354 1024h44l335 -975l336 975h46l335 -978z" />
    <glyph glyph-name="Ygrave" unicode="&#x1ef2;" horiz-adv-x="1192" 
d="M622 1677h-51l-220 371h66zM1101 1536h51l-532 -801h-3v-735h-41v735h-5l-530 801h49l506 -765z" />
    <glyph glyph-name="ygrave" unicode="&#x1ef3;" horiz-adv-x="988" 
d="M522 1165h-51l-220 371h66zM883 1024h44l-656 -1638h-43l246 614l-413 1024h47l386 -968h3z" />
    <glyph glyph-name="endash" unicode="&#x2013;" horiz-adv-x="1502" 
d="M241 512v41h1024v-41h-1024z" />
    <glyph glyph-name="emdash" unicode="&#x2014;" horiz-adv-x="2048" 
d="M0 512v41h2048v-41h-2048z" />
    <glyph glyph-name="quoteleft" unicode="&#x2018;" horiz-adv-x="509" 
d="M394 1556h44l-190 -619h-46z" />
    <glyph glyph-name="quoteright" unicode="&#x2019;" horiz-adv-x="337" 
d="M146 937h-44l190 619h46z" />
    <glyph glyph-name="quotesinglbase" unicode="&#x201a;" horiz-adv-x="509" 
d="M138 -399h-43l189 619h46z" />
    <glyph glyph-name="quotedblleft" unicode="&#x201c;" horiz-adv-x="711" 
d="M422 1556h44l-190 -619h-46zM627 1556h44l-190 -619h-46z" />
    <glyph glyph-name="quotedblright" unicode="&#x201d;" horiz-adv-x="701" 
d="M118 937h-44l190 619h46zM323 937h-44l189 619h47z" />
    <glyph glyph-name="quotedblbase" unicode="&#x201e;" horiz-adv-x="724" 
d="M125 -399h-43l189 619h46zM428 -399h-44l189 619h47z" />
    <glyph glyph-name="dagger" unicode="&#x2020;" horiz-adv-x="1431" 
d="M1108 922v-41h-378v-1229h-41v1229h-366v41h366v450h41v-450h378z" />
    <glyph glyph-name="daggerdbl" unicode="&#x2021;" horiz-adv-x="1431" 
d="M1108 881h-378v-738h378v-41h-378v-450h-41v450h-366v41h366v738h-366v41h366v450h41v-450h378v-41z" />
    <glyph glyph-name="bullet" unicode="&#x2022;" horiz-adv-x="1082" 
d="M543 404q-107 0 -184 76t-77 186q0 106 77.5 183.5t183.5 77.5q104 0 182.5 -78t78.5 -183q0 -109 -78 -185.5t-183 -76.5z" />
    <glyph glyph-name="ellipsis" unicode="&#x2026;" horiz-adv-x="1617" 
d="M302 -20q-25 0 -43 17.5t-18 43.5q0 25 18 43t43 18q24 0 43 -18.5t19 -42.5q0 -26 -19 -43.5t-43 -17.5zM814 -20q-25 0 -43 17.5t-18 43.5q0 25 18 43t43 18q24 0 43 -18.5t19 -42.5q0 -26 -19 -43.5t-43 -17.5zM1318 -20q-25 0 -43 17.5t-18 43.5q0 25 18 43t43 18
q24 0 43 -18.5t19 -42.5q0 -26 -19 -43.5t-43 -17.5z" />
    <glyph glyph-name="perthousand" unicode="&#x2030;" horiz-adv-x="1989" 
d="M420 1004q-96 0 -164.5 81.5t-68.5 194.5t68.5 194.5t164.5 81.5t164.5 -81.5t68.5 -194.5t-68.5 -194.5t-164.5 -81.5zM166 0l1070 1536h49l-1073 -1536h-46zM420 1044q79 0 135.5 69t56.5 167t-56.5 167t-135.5 69q-81 0 -136.5 -68.5t-55.5 -167.5t55.5 -167.5
t136.5 -68.5zM1032 -20q-96 0 -164.5 81.5t-68.5 194.5t68.5 194.5t164.5 81.5q98 0 165.5 -81t67.5 -195t-67.5 -195t-165.5 -81zM1600 -20q-98 0 -165.5 81t-67.5 195t67.5 195t165.5 81q96 0 163 -81t67 -195t-67 -195t-163 -81zM1032 20q79 0 135.5 69t56.5 167
t-56.5 167t-135.5 69t-135.5 -69t-56.5 -167t56.5 -167t135.5 -69zM1600 20q79 0 134 69t55 167t-55 167t-134 69q-81 0 -136.5 -68.5t-55.5 -167.5t55.5 -167.5t136.5 -68.5z" />
    <glyph glyph-name="guilsinglleft" unicode="&#x2039;" horiz-adv-x="721" 
d="M471 195l-312 376l312 376h54l-313 -376l313 -376h-54z" />
    <glyph glyph-name="guilsinglright" unicode="&#x203a;" horiz-adv-x="721" 
d="M200 195l309 376l-309 376h51l312 -376l-312 -376h-51z" />
    <glyph glyph-name="fraction" unicode="&#x2044;" horiz-adv-x="1062" 
d="M-20 0l1070 1536h33l-1070 -1536h-33z" />
    <glyph glyph-name="Euro" unicode="&#x20ac;" horiz-adv-x="1694" 
d="M988 20q145 0 279.5 55t242.5 158v-54q-107 -96 -242.5 -147.5t-279.5 -51.5q-275 0 -488 169.5t-277 429.5h-179v41h168q-12 74 -12 148q0 69 12 138h-168v41h176q60 264 274.5 436.5t493.5 172.5q141 0 273 -48.5t237 -140.5l-16 -41q-102 92 -229 141t-265 49
q-262 0 -464.5 -160.5t-262.5 -408.5h1093l-15 -41h-1086q-12 -66 -12 -138q0 -74 15 -148h988l-15 -41h-965q64 -245 264.5 -402t459.5 -157z" />
    <glyph glyph-name="uni2113" unicode="&#x2113;" horiz-adv-x="1397" 
d="M722 -8q-79 0 -144 25t-109.5 66.5t-75 97t-44.5 116t-14 123.5v28q-25 -18 -79.5 -62.5t-78.5 -62.5l-34 56q17 13 88 67t104 86v656q0 97 15 176.5t42 132t59.5 90.5t72 58.5t75 29.5t72.5 9q92 0 156 -49t92 -123t28 -165q0 -106 -39 -214t-115 -215.5t-171.5 -209.5
t-222.5 -214v-49q0 -103 29 -182.5t77.5 -125.5t105.5 -68.5t119 -22.5q86 0 164.5 41.5t128 96.5t80.5 118l49 -31q-158 -279 -430 -279zM399 573q114 108 190 189.5t150 180.5t110.5 195t36.5 191q0 65 -12 117t-38 93.5t-71.5 64t-106.5 22.5q-35 0 -69.5 -13t-69 -45
t-61 -79.5t-43 -122.5t-16.5 -168v-625z" />
    <glyph glyph-name="trademark" unicode="&#x2122;" horiz-adv-x="1633" 
d="M138 1498v38h461v-38h-212v-686h-39v686h-210zM1367 1536h41v-724h-38v655l-300 -443l-297 443v-655h-41v724h44l297 -440z" />
    <glyph glyph-name="estimated" unicode="&#x212e;" horiz-adv-x="2022" 
d="M1009 -18q-177 0 -338.5 62t-278.5 166.5t-186.5 250t-69.5 304.5q0 161 69.5 307.5t186.5 252.5t278.5 168.5t338.5 62.5q179 0 341.5 -62.5t280 -168.5t187 -252.5t69.5 -307.5v-20h-1419q-12 0 -12 -8v-430q0 -22 20 -48q105 -108 244 -170.5t291 -62.5
q167 0 313.5 69.5t252.5 191.5h125q-119 -141 -301.5 -223t-391.5 -82zM468 788h1088q8 0 8 16v430q0 34 -20 51q-106 104 -243.5 164.5t-289.5 60.5q-151 0 -288.5 -62t-246.5 -171q-20 -26 -20 -53v-420q0 -16 12 -16z" />
    <glyph glyph-name="partialdiff" unicode="&#x2202;" horiz-adv-x="1090" 
d="M410 1434q148 4 268.5 -95.5t188.5 -276t67 -391.5q-1 -178 -58.5 -326t-156 -233.5t-217.5 -85.5q-104 0 -181 45.5t-115.5 123t-39 184.5t43.5 225q44 117 118 198t162 116.5t189 25t197 -70.5q-41 235 -169 379.5t-297 140.5v41zM893 671q0 84 -7 148
q-92 64 -188.5 80t-181 -14.5t-155.5 -106.5t-113 -189q-52 -150 -39 -266t91 -186t202 -70q107 0 196.5 80t141.5 218.5t53 305.5z" />
    <glyph glyph-name="emptyset" unicode="&#x2205;" horiz-adv-x="1786" 
d="M1341 1014q78 -84 121 -191.5t43 -226.5q0 -166 -82 -307t-223 -222.5t-307 -81.5q-118 0 -226 44t-191 122l-89 -90l-29 29l90 89q-78 83 -122 191t-44 226q0 166 81.5 307t222.5 223t307 82q119 0 226.5 -43t191.5 -121l87 88l30 -31zM323 596q0 -112 40.5 -212.5
t112.5 -176.5l807 809q-162 151 -390 151q-156 0 -287 -76t-207 -207.5t-76 -287.5zM893 26q156 0 287.5 76t207.5 207t76 287q0 228 -151 390l-809 -807q76 -72 176.5 -112.5t212.5 -40.5z" />
    <glyph glyph-name="product" unicode="&#x220f;" horiz-adv-x="1551" 
d="M159 1439h1236v-41h-123v-1644h-41v1644h-908v-1644h-41v1644h-123v41z" />
    <glyph glyph-name="summation" unicode="&#x2211;" horiz-adv-x="1617" 
d="M241 -243v10l809 832l-809 829v11h1136v-41h-1052l783 -799l-783 -801h1052v-41h-1136z" />
    <glyph glyph-name="minus" unicode="&#x2212;" horiz-adv-x="1584" 
d="M179 543v41h1229v-41h-1229z" />
    <glyph glyph-name="radical" unicode="&#x221a;" horiz-adv-x="1530" 
d="M571 -159l-248 761h-123v41h153l231 -704l770 1607l36 -15l-809 -1690h-10z" />
    <glyph glyph-name="infinity" unicode="&#x221e;" horiz-adv-x="1597" 
d="M425 335q-100 0 -171 75.5t-75 185.5q4 109 75 184t171 75q84 0 180.5 -58.5t193.5 -166.5q92 107 189.5 166t183.5 59q100 0 171 -75t75 -184q-4 -110 -75 -185.5t-171 -75.5q-86 0 -183.5 59.5t-189.5 168.5q-96 -110 -193 -169t-181 -59zM425 376q156 0 348 220
q-92 106 -181.5 162t-166.5 56q-82 0 -141.5 -64t-63.5 -154q4 -91 63.5 -155.5t141.5 -64.5zM1172 376q82 0 141.5 64.5t63.5 155.5q-4 90 -63.5 154t-141.5 64q-77 0 -168 -56.5t-180 -161.5q90 -105 180.5 -162.5t167.5 -57.5z" />
    <glyph glyph-name="integral" unicode="&#x222b;" horiz-adv-x="985" 
d="M236 -387q-56 0 -90.5 37t-25.5 104h41q-7 -47 17.5 -73.5t64.5 -26.5t71.5 26t38.5 74l256 1623q11 65 58.5 103t103.5 38q54 0 87.5 -37.5t24.5 -103.5h-41q7 46 -16.5 73t-62.5 27t-72.5 -27t-40.5 -73l-256 -1623q-11 -67 -57 -104t-101 -37z" />
    <glyph glyph-name="approxequal" unicode="&#x2248;" horiz-adv-x="1305" 
d="M878 660q-40 0 -74.5 11t-66 36.5t-50.5 46t-52 58.5q-55 64 -101.5 97t-108.5 33q-92 0 -154 -71.5t-64 -179.5h-41q2 128 76.5 210t182.5 82q53 0 100.5 -24t74.5 -51t71 -79q53 -65 97.5 -96.5t107.5 -31.5q94 0 156 70.5t66 180.5h41q-4 -127 -77.5 -209.5
t-183.5 -82.5zM878 292q-41 0 -75 11t-65.5 36t-51 45.5t-51.5 58.5q-55 64 -101.5 97t-108.5 33q-92 0 -154 -71t-64 -179h-41q2 128 76.5 209.5t182.5 81.5q41 0 75.5 -11t65.5 -36t52 -46.5t53 -59.5q53 -65 97.5 -96.5t107.5 -31.5q94 0 156 70.5t66 180.5h41
q-4 -127 -77.5 -209.5t-183.5 -82.5z" />
    <glyph glyph-name="notequal" unicode="&#x2260;" horiz-adv-x="1584" 
d="M1408 707h-422l-279 -328h701v-41h-737l-290 -338h-56l289 338h-435v41h471l282 328h-753v41h786l238 276h54l-236 -276h387v-41z" />
    <glyph glyph-name="lessequal" unicode="&#x2264;" horiz-adv-x="1733" 
d="M1431 1318v-43l-1083 -545l1083 -551v-43l-1129 571v46zM302 0v41h1129v-41h-1129z" />
    <glyph glyph-name="greaterequal" unicode="&#x2265;" horiz-adv-x="1733" 
d="M302 1318l1129 -565v-46l-1129 -571v43l1083 551l-1083 545v43zM302 0v41h1129v-41h-1129z" />
    <glyph glyph-name="lozenge" unicode="&#x25ca;" horiz-adv-x="1715" 
d="M858 108l-617 614l617 619l617 -617zM858 164l560 560l-560 561l-561 -563z" />
    <glyph glyph-name="uniF8FF" unicode="&#xf8ff;" horiz-adv-x="2035" 
d="M1019 0q-158 0 -302.5 62t-248.5 166t-165.5 248t-61.5 302t61.5 302.5t165.5 248.5t248.5 165.5t302.5 61.5t302.5 -61.5t248.5 -165.5t165.5 -248.5t61.5 -302.5t-61.5 -302t-165.5 -248t-248.5 -166t-302.5 -62zM1019 74q143 0 273.5 56t225 150.5t150 224.5t55.5 273
t-55.5 273.5t-150 225t-225 150t-273.5 55.5t-274 -55.5t-226 -150t-151 -225t-56 -273.5t56 -273t151 -224.5t226 -150.5t274 -56zM1426 445q-15 0 -26 11l-297 297q-10 11 -10 26t10 25l297 297q11 11 26.5 11t25.5 -11q11 -10 11 -25.5t-11 -25.5l-269 -272l269 -271
q11 -10 11 -25t-11 -26q-7 -11 -26 -11zM609 445q-15 0 -25.5 10.5t-10.5 25.5v594q0 15 10.5 25.5t25.5 10.5t27 -10.5t12 -25.5v-594q0 -15 -12 -25.5t-27 -10.5zM1019 445q-15 0 -27 10.5t-12 25.5v594q0 15 12 25.5t27 10.5t25.5 -10.5t10.5 -25.5v-594
q0 -15 -10.5 -25.5t-25.5 -10.5zM722 742q-15 0 -26.5 10.5t-11.5 25.5t11.5 25.5t26.5 10.5h184q15 0 27 -10.5t12 -25.5t-12 -25.5t-27 -10.5h-184z" />
    <glyph glyph-name="i.loclTRK" horiz-adv-x="517" 
d="M259 1229q-25 0 -43.5 17.5t-18.5 43.5q0 25 18.5 43.5t43.5 18.5q23 0 42 -19t19 -43q0 -26 -18.5 -43.5t-42.5 -17.5zM238 0v1024h41v-1024h-41z" />
    </font>
</defs>
</svg>
